<?xml version="1.0" encoding="utf-8"?>
<!-- Generator: Adobe Illustrator 18.1.1, SVG Export Plug-In . SVG Version: 6.00 Build 0)  -->
<svg version="1.1" id="Layer_1" xmlns="http://www.w3.org/2000/svg" xmlns:xlink="http://www.w3.org/1999/xlink" x="0px" y="0px"
	 viewBox="0 0 200 45" enable-background="new 0 0 200 45" xml:space="preserve">
<g>
	<path fill="#FF6648" d="M79.9,34.4c-1.3,3.2-5.9,4.4-8.6,2.5c0.7-0.5,1.4-1,2-1.5c2.7-2.1,7.9-6.5,4.5-10.2
		c-2.4-2.7-6.8-1.9-9.2,0.4c-2.5,2.3-3.4,6-2.7,9.3c0.1,0.4,0.2,0.7,0.3,1.1c-1.6,1-3.3,1.9-5,2.2c-1.9,0.4-4.4,0.3-6-1
		c-1.7-1.3-2.1-3.8-1.6-5.8c0.2-0.9,0.5-1.7,1-2.3c0.3-0.3,0.6-0.5,0.9-0.7c0.1-0.1,0.2-0.1,0.4-0.2c1.6-0.5,4.6-0.2,5.3,1.6
		c0.8,2.1,4.2,1.2,3.4-0.9c-1.1-2.9-3.8-4.7-6.9-4.7c-1.8,0-3.4,0.6-4.8,1.6c-0.3,0.2-0.5,0.4-0.7,0.6c-1,0.9-1.9,2.1-2.4,3.3
		c-0.8,1.8-1.1,3.6-1.6,5.5c-0.3,1.3-1.5,4.1-3.2,2.7c-1.3-1-1.3-3.2-1.2-4.7c0.1-2.1,0.2-4.2-0.5-6.2c-0.6-1.7-3.7-1.7-3.5,0.5
		c0.3,2.7,0.7,5.9-0.6,8.4c-1,1.9-3.4,3.5-5.4,2c-0.4-0.3-0.7-0.7-1-1.1c2.1-3.5,3-8.1,3.8-11.3c1-4.2,1.6-8.6,1.8-12.9
		c0.2-2.9,0.4-7.1-2.4-8.9c-3-2-5.6,0.8-6.4,3.5c-1.2,4.1-1.8,8.5-2.1,12.8c-0.3,4.3-0.3,8.7,0.4,13c0.2,1.2,0.5,2.3,0.9,3.5
		c-0.8,0.9-1.8,1.6-3.1,1.6c-2.3,0-2.3,3.6,0,3.6c2,0,3.6-0.8,5-2c0.3,0.4,0.7,0.7,1.1,1.1c3,2.2,6.9,1.4,9.3-1.2
		c0.2-0.2,0.3-0.4,0.5-0.6c1.7,2.8,5.1,3.8,7.8,1.6c0.9-0.8,1.5-1.7,1.9-2.8c0.1,0.2,0.3,0.5,0.5,0.7c1.9,2.6,5.4,3.6,8.5,3.4
		c2.8-0.2,5.5-1.4,8-2.9c4.3,4.1,12.7,2.5,15.2-3.6C84.2,33.2,80.8,32.3,79.9,34.4z M30.9,23.2c0.1-3.1,0.4-6.3,0.9-9.4
		c0.2-0.9,1.2-7.5,2.3-7c0.6,0.3,0.8,1.9,0.9,2.5c0.1,1.5-0.1,3.2-0.2,4.7c-0.2,3.1-0.7,6.2-1.3,9.3c-0.6,2.8-1.3,5.6-2.2,8.3
		C30.8,28.9,30.8,26,30.9,23.2z M70,29.7c0.7-1.4,3-3.6,4.8-2.4c2.1,1.4-4,5.6-5,6.3c-0.1,0.1-0.2,0.2-0.4,0.2
		C69.2,32.4,69.4,30.9,70,29.7z"/>
	<path fill="#FF6648" d="M40.6,22.4c3,0,3-3.6,0-3.6C38.6,18.8,38.6,22.4,40.6,22.4z"/>
	<path fill="#FF6648" d="M19.1,18.9c-0.7-3.7-1.5-7.3-2.3-11c-0.5-2.2-1.6-4.9-4.3-4.8C9.7,3.3,8.9,6.2,8.2,8.4
		c-1,3.4-1.9,6.8-2.7,10.3c-1.7,7-3.2,14-4.6,21c-0.4,2.2,3,3.2,3.4,0.9c0.9-4.6,1.8-9.2,2.9-13.7c3.2,0.2,6.4,0,9.7-0.5
		c0.8,4.6,1.5,9.1,2.1,13.7c0.3,2.2,3.9,2.3,3.6,0C21.6,33,20.5,25.9,19.1,18.9z M16.1,23c-2.7,0.4-5.4,0.5-8.1,0.4c0,0,0-0.1,0-0.1
		c0.7-2.9,1.4-5.7,2.1-8.6c0.4-1.3,0.7-2.7,1.1-4c0.3-0.9,0.5-3,1.2-3.7c0.3-0.3,0.1-0.4,0.4,0.1c0.3,0.5,0.4,1.2,0.5,1.7
		c0.3,1.4,0.6,2.7,0.9,4.1c0.6,3,1.2,6,1.8,8.9c0.1,0.3,0.1,0.7,0.2,1C16.2,22.9,16.2,22.9,16.1,23z"/>
	<path fill="#FF6648" d="M114.1,3.1c-1.6,2.9-2.4,6.5-3.5,9.6c-0.8,2.7-1.7,5.3-2.6,8c-2.6-5.7-5-11.5-7.8-17.1
		c-0.9-1.7-3.2-0.7-3.3,0.9c-1,12.2-1.5,24.5-0.8,36.8c0.1,2.3,3.7,2.3,3.6,0c-0.6-9.9-0.3-19.9,0.3-29.9c2.2,4.9,4.3,9.9,6.7,14.7
		c0.8,1.5,2.7,0.9,3.3-0.4c1.6-3.8,2.7-7.7,4-11.5c0.3-0.9,0.5-1.8,0.8-2.7c1.1,9.9,1.9,19.9,2.3,29.9c0.1,2.3,3.7,2.3,3.6,0
		c-0.6-12.5-1.6-24.9-3.2-37.3C117.2,2.4,115.1,1.4,114.1,3.1z"/>
	<path fill="#FF6648" d="M198.3,35c-1.4-1.8-3.9,0.7-2.5,2.5c0.2,0.2-0.9,0.5-1.1,0.4c-0.9-0.3-1.3-1.7-1.4-2.5
		c-0.2-1.9,0.2-3.8,0-5.7c-0.3-3.1-2.3-5.8-5.6-6.1c-2.3-0.2-4.7,0.8-6.3,2.4c0-0.4-0.1-0.8-0.1-1.1c-0.2-2.1-2.7-2.3-3.5-0.5
		c-0.2,0.6-0.5,1.3-0.9,1.9c0,0,0,0,0-0.1c-2.6-4-7.8-5.4-11.8-2.7c-2,1.3-3.3,3.4-3.7,5.8c-0.5,2.5,0,5.6-1.7,7.6
		c-1.8,2.1-3.4-0.5-4-2.2c0-0.1-0.1-0.2-0.1-0.3c0.3-0.5,0.5-1.1,0.7-1.6c1.7-4.2,2.7-8.8,3.4-13.2c0.7-4,1.4-8.7,0.3-12.7
		c-0.4-1.3-1-2.7-2.3-3.4c-2-1.2-4.1,0.1-5.2,1.9c-1.3,2-1.7,4.6-2,6.9c-0.5,3.9-0.5,7.9-0.2,11.9c0.3,3.3,0.7,6.7,1.5,9.9
		c-0.9,1.5-2,2.8-3.6,3.5c-2.3,1-3.9-0.4-4.9-2.5c1.1-1.3,1.8-2.9,2.4-4.5c1.5-3.9,2.1-8.1,2.5-12.2c0.3-3.7,0.5-7.5-0.3-11.2
		c-0.5-2.3-2.3-5.7-5.1-3.7c-2.6,1.9-3.2,6.6-3.7,9.4c-0.9,5-1.4,10.2-1,15.3c0.1,1.7,0.4,3.7,0.9,5.6c-0.2,0.1-0.4,0.1-0.6,0.2
		c-0.1-3.7-3.4-10.4-8-9.2c-0.5,0.1-0.9,0.3-1.3,0.6c-2.7,0.2-5.4,1.5-6.8,4c-2.6,4.6-0.2,11.2,5,12.6c3.9,1.1,8.4-1,10.2-4.4
		c0.7,0,1.3-0.1,2-0.2c0.3-0.1,0.6-0.1,0.8-0.2c1,1.8,2.5,3.3,4.5,3.9c3.4,1.1,6.3-0.6,8.4-3.2c0.9,1.5,2.1,2.8,3.9,3.2
		c2.9,0.6,5.3-1.5,6.5-4c0.1-0.3,0.2-0.6,0.3-1c1.4,1.9,3.5,3.2,5.9,3.4c4.2,0.3,7.8-3.2,8.5-7.2c0.1,1.2,0.2,2.5,0.3,3.7
		c0,0.8,0.1,1.6,0.2,2.3c0.2,2.3,3.8,2,3.6-0.4c0,0,0-0.4,0-0.4c0,0,0,0,0,0c0,0,0,0.1,0,0c-0.1-0.9-0.1-1.6-0.2-2.5
		c-0.2-3.1,0.2-6.3,3.1-7.7c1.3-0.6,3-0.7,3.9,0.6c1.1,1.6,0.5,4.1,0.5,5.9c0,3.3,1.7,7.8,5.8,7.5C198.7,41.4,200.3,37.5,198.3,35z
		 M130.8,29.3c0.9,0.2,1.7,0.7,2.4,1.4c0.1,0.1,0.3,0.3,0.4,0.3c0.3,0.7,0.6,1.4,0.7,1.9c0.1,0.4,0.1,0.7,0.2,1.1
		C132.6,33.4,130.7,31.4,130.8,29.3z M127.3,38.5c-3.5-1.8-3.5-7.3,0-8.9c0,1.2,0.4,2.4,0.9,3.4c1.1,2.2,3,3.6,5.1,4.3
		C131.8,38.8,129.4,39.6,127.3,38.5z M144.7,6.7C144.8,6.4,145,6.7,144.7,6.7L144.7,6.7z M144.7,6.7C144.7,6.7,144.7,6.7,144.7,6.7
		C144.7,6.7,144.7,6.6,144.7,6.7z M143.7,6.6C143.7,6.6,143.7,6.6,143.7,6.6C143.6,6.6,143.7,6.6,143.7,6.6z M141.8,18
		c0.4-3.3,0.9-6.8,2.2-9.9c0.1-0.1,0.1-0.3,0.2-0.4c0.6,2.2,0.6,4.6,0.6,6.8c-0.1,3.3-0.4,6.6-1,9.8c-0.4,2.2-1,4.4-1.9,6.5
		c-0.1-0.4-0.1-0.8-0.2-1.1C141.1,25.8,141.3,21.9,141.8,18z M154.5,9.7c0.2-0.8,0.5-1.7,1-2.4c0.1-0.1,0.3-0.5,0.4-0.5
		c0,0,0,0,0.1,0.1c-0.2-0.1,0,0,0,0.1c0.1,0.1,0.2,0.3,0.2,0.4c0.2,0.4,0.3,1,0.4,1.6c0.5,3.1,0,6.6-0.5,9.7
		c-0.5,3.1-1.2,6.2-2.1,9.3c-0.1-0.6-0.2-1.2-0.2-1.8C153.3,20.8,153,14.8,154.5,9.7z M170.4,28.2c1-2.1,3.3-0.2,4.1,1.4
		c-0.3,0.2-0.6,0.4-0.9,0.5C172.5,30.4,169.6,29.8,170.4,28.2z M172.6,35.3c-3.4,2.5-7.8-1.2-7.1-5c0.2-0.9,0.6-1.6,1.2-2.2
		c-0.1,0.8,0,1.6,0.4,2.4c1.2,2.5,4.4,3.7,7,3.1C173.7,34.2,173.2,34.8,172.6,35.3z"/>
</g>
</svg>
