<?xml version="1.0" encoding="utf-8"?>
<!-- Generator: Adobe Illustrator 18.1.1, SVG Export Plug-In . SVG Version: 6.00 Build 0)  -->
<svg version="1.1" id="Layer_1" xmlns="http://www.w3.org/2000/svg" xmlns:xlink="http://www.w3.org/1999/xlink" x="0px" y="0px"
	 viewBox="0 0 100 14.7" enable-background="new 0 0 100 14.7" xml:space="preserve">
<g>
	<g>
		<path fill="#FF6648" d="M24,5.2c-0.7-1.5-2.4-2.6-4.1-2.6c-1.8,0-3.4,1.1-4.1,2.7c-0.7,1.7-0.9,4.1-0.1,5.7
			c0.7,1.5,2.4,2.6,4.1,2.5c1.9-0.1,3.5-1.5,4-3.3c0.2-0.7-0.9-1-1.1-0.3c-0.4,1.5-2,2.7-3.6,2.4c-0.8-0.1-1.6-0.6-2.1-1.2
			c-0.7-0.8-0.8-1.8-0.8-2.8c0-1.8,0.6-3.8,2.5-4.5c1.7-0.6,3.5,0.3,4.2,1.8C23.4,6.4,24.3,5.9,24,5.2L24,5.2z"/>
	</g>
	<g>
		<path fill="#FF6648" d="M30.2,2.6c-2.2,0-3.8,2.1-4.2,4.2c-0.4,2,0.2,4.3,1.9,5.6c1.6,1.2,3.9,1.3,5.5,0c1.6-1.3,2-3.6,1.8-5.6
			c-0.1-1.2-0.5-2.4-1.6-3.1C32.6,3,31.4,2.9,30.2,2.6c-0.7,0-0.7,1.1,0,1.2C31.8,4,33.7,4.4,34,6.2c0.3,1.5,0.1,3.5-0.8,4.8
			c-0.9,1.3-2.6,1.5-4,0.9c-1.6-0.7-2.3-2.4-2.2-4c0.1-1.7,1.2-4,3.2-4C30.9,3.7,30.9,2.6,30.2,2.6L30.2,2.6z"/>
	</g>
	<g>
		<path fill="#FF6648" d="M37.5,3.2c0.1,3.2,0.2,6.4,0.3,9.7c0,0.3,0.2,0.6,0.6,0.6c1.7-0.2,3.4-0.2,5.1-0.1c0.7,0,0.7-1.1,0-1.1
			c-1.7-0.1-3.4,0-5.1,0.1c0.2,0.2,0.4,0.4,0.6,0.6c-0.1-3.2-0.2-6.4-0.3-9.7C38.6,2.5,37.5,2.5,37.5,3.2L37.5,3.2z"/>
	</g>
	<g>
		<path fill="#FF6648" d="M45.7,3c-0.2,3.2-0.1,6.4,0.5,9.6c0,0.2,0.3,0.4,0.5,0.4c1.7-0.1,3.5,0,5.2,0.2c0.7,0.1,0.7-1,0-1.1
			c-1.7-0.2-3.5-0.3-5.2-0.2c0.2,0.1,0.4,0.3,0.5,0.4c-0.5-3.1-0.6-6.2-0.4-9.3C46.8,2.3,45.7,2.3,45.7,3L45.7,3z"/>
	</g>
	<g>
		<path fill="#FF6648" d="M54.1,12.7c0.6-1.7,1.2-3.4,1.8-5.2c0.5-1.4,0.8-3.2,2-4.2c-0.3,0-0.6-0.1-0.9-0.1
			c1.5,3.2,2.7,6.4,3.8,9.7c0.2,0.7,1.3,0.4,1.1-0.3c-1.1-3.4-2.5-6.7-4-9.9c-0.2-0.3-0.6-0.3-0.9-0.1c-1.2,1.1-1.6,2.8-2.1,4.3
			c-0.6,1.9-1.3,3.7-1.9,5.6C52.8,13.1,53.9,13.4,54.1,12.7L54.1,12.7z"/>
	</g>
	<g>
		<path fill="#FF6648" d="M55.2,10.1c0,0,2.6,0,4.5,0c0.6,0,0.6-1.3,0-1.3c-1.9,0-3.2,0-4.5,0C54.5,8.9,54.5,10.1,55.2,10.1
			C55.2,10.1,54.5,10.1,55.2,10.1z"/>
	</g>
	<g>
		<path fill="#FF6648" d="M72,5.1c-0.7-1.6-2.4-2.4-4.1-2.4c-1.9,0.1-3.4,1.2-4.1,2.9c-0.7,1.7-0.7,4.1,0.5,5.6
			c1.3,1.6,3.9,1.7,5.7,1.4c1.1-0.2,2.1-0.7,2.5-1.8c0.4-0.9,0.2-1.9-0.7-2.5c-0.6-0.4-1.1,0.5-0.6,1c0.5,0.4,0.3,1.2,0,1.6
			c-0.5,0.6-1.4,0.7-2.1,0.8c-1.4,0.1-3.4,0-4.2-1.4c-1.4-2.3-0.2-6.1,2.7-6.4c1.4-0.1,2.8,0.5,3.3,1.8C71.3,6.3,72.3,5.8,72,5.1
			L72,5.1z"/>
	</g>
	<g>
		<path fill="#FF6648" d="M69.9,9.4c0.9-0.3,1.9-0.5,2.9-0.3c0.7,0.1,1-1,0.3-1.1c-1.2-0.2-2.3-0.1-3.5,0.3
			C69,8.6,69.3,9.7,69.9,9.4L69.9,9.4z"/>
	</g>
	<g>
		<path fill="#FF6648" d="M75.2,3.4c0.1,1.4,0.1,2.8,0.2,4.2c0.1,1.4,0,2.8,0.2,4.2c0.1,1.4,1.4,1.2,2.4,1.2c1.4,0,2.9,0,4.3,0
			c0.7,0,0.7-1.1,0-1.1c-1.2,0-2.4,0-3.6,0c-0.6,0-1.1,0-1.7,0c-0.3,0-0.4-0.1-0.4-0.4c0-0.3,0-0.7,0-1c-0.1-2.4-0.2-4.8-0.3-7.2
			C76.3,2.7,75.2,2.7,75.2,3.4L75.2,3.4z"/>
	</g>
	<g>
		<path fill="#FF6648" d="M75.7,4c2,0,4.1-0.1,6.1-0.1c0.7,0,0.7-1.1,0-1.1c-2,0-4.1,0.1-6.1,0.1C75,2.9,75,4,75.7,4L75.7,4z"/>
	</g>
	<g>
		<path fill="#FF6648" d="M76.1,8.7c1.9-0.3,3.8-0.4,5.8-0.4c0.7,0,0.7-1.1,0-1.1c-2,0-4.1,0.1-6.1,0.4C75.1,7.8,75.4,8.8,76.1,8.7
			L76.1,8.7z"/>
	</g>
</g>
</svg>
