<?xml version="1.0" encoding="utf-8"?>
<!-- Generator: Adobe Illustrator 18.1.1, SVG Export Plug-In . SVG Version: 6.00 Build 0)  -->
<svg version="1.1" id="Layer_1" xmlns="http://www.w3.org/2000/svg" xmlns:xlink="http://www.w3.org/1999/xlink" x="0px" y="0px"
	 viewBox="0 0 100 15" enable-background="new 0 0 100 15" xml:space="preserve">
<g>
	<path fill="#FF6648" d="M26.1,4.8c-0.7-1.4-2.2-2.4-3.8-2.4c-1.7,0-3.2,1-3.9,2.6c-0.7,1.6-0.8,3.8-0.1,5.3
		c0.7,1.4,2.3,2.4,3.8,2.3c1.8-0.1,3.3-1.4,3.8-3c0.2-0.6-0.8-0.9-1-0.3c-0.4,1.4-1.9,2.5-3.4,2.3c-0.8-0.1-1.5-0.5-1.9-1.1
		C19.1,9.6,19,8.7,19,7.8c0-1.7,0.5-3.6,2.3-4.2c1.6-0.5,3.2,0.2,3.9,1.7C25.5,5.9,26.4,5.4,26.1,4.8L26.1,4.8z"/>
</g>
<g>
	<path fill="#FF6648" d="M31.7,2.5c-2.1,0-3.6,2-3.9,3.9c-0.4,1.9,0.2,4,1.8,5.2c1.5,1.1,3.7,1.2,5.1,0c1.5-1.2,1.8-3.4,1.7-5.2
		c-0.1-1.2-0.5-2.2-1.5-2.9C34,2.9,32.8,2.7,31.7,2.5c-0.6,0-0.6,1,0,1.1c1.5,0.2,3.2,0.5,3.6,2.2c0.3,1.4,0.1,3.3-0.8,4.4
		c-0.9,1.2-2.5,1.4-3.8,0.8c-1.5-0.7-2.1-2.2-2.1-3.8c0.1-1.6,1.1-3.8,3-3.8C32.4,3.5,32.4,2.5,31.7,2.5L31.7,2.5z"/>
</g>
<path fill="#FF6648" d="M63.9,11.9c-1.1-3.2-2.3-6.2-3.7-9.3c-0.1-0.3-0.6-0.3-0.8-0.1c-1.1,1-1.5,2.6-2,4c-0.6,1.7-1.2,3.5-1.8,5.2
	c-0.2,0.6,0.8,0.8,1,0.1C56.9,11,57.2,10,57.5,9c0.5,0,2.7,0,4,0c0.1,0,0.2,0.1,0.3,0.1c0.4,1,0.7,2.1,1.1,3.1
	C63.1,12.8,64.1,12.6,63.9,11.9z M58,8c0.1,0,0.2-0.5,0.3-0.8c0.4-1.1,0.7-2.4,1.4-3.4C60.2,5.2,60.8,6,61.4,8C60.2,8,59.1,8,58,8z"
	/>
<g>
	<path fill="#FF6648" d="M39.5,12.1c-0.1-3.1-0.3-6.2-0.4-9.3c-0.3,0.1-0.6,0.2-1,0.3c2.3,3.1,4.7,6.2,7.1,9.3
		c0.3,0.4,0.9,0,0.9-0.4c0.2-3,0-6-0.6-9c-0.1-0.7-1.1-0.4-1,0.3C45,6.2,45.2,9.1,45,12c0.3-0.1,0.6-0.2,0.9-0.4
		c-2.4-3-4.7-6-6.9-9.1c-0.3-0.4-1-0.3-1,0.3c0.1,3.1,0.3,6.2,0.4,9.3C38.5,12.8,39.5,12.8,39.5,12.1L39.5,12.1z"/>
</g>
<path fill="#FF6648" d="M54.9,2.7c-1.2,0.1-2.5,0.1-3.7,0.2c-0.2-0.1-0.5-0.1-0.6,0c-1,0-2.1,0-3.1,0c-0.7,0-0.7,1,0,1c1,0,2,0,3,0
	c0.2,2.6,0.2,5.2,0.2,7.8c0,0.7,1,0.7,1,0c0-2.6,0-5.2-0.2-7.8c1.1,0,2.3-0.1,3.4-0.2C55.6,3.7,55.6,2.7,54.9,2.7z"/>
<g>
	<path fill="#FF6648" d="M73.6,4.8c-0.7-1.4-2.2-2.4-3.8-2.4c-1.7,0-3.2,1-3.9,2.6c-0.7,1.6-0.8,3.8-0.1,5.3
		c0.7,1.4,2.3,2.4,3.8,2.3c1.8-0.1,3.3-1.4,3.8-3c0.2-0.6-0.8-0.9-1-0.3c-0.4,1.4-1.9,2.5-3.4,2.3c-0.8-0.1-1.5-0.5-1.9-1.1
		c-0.6-0.7-0.7-1.7-0.7-2.6c0-1.7,0.5-3.6,2.3-4.2C70.4,3,72,3.8,72.7,5.3C73,5.9,73.9,5.4,73.6,4.8L73.6,4.8z"/>
</g>
<path fill="#FF6648" d="M83.1,2.7c-1.2,0.1-2.5,0.1-3.7,0.2c-0.2-0.1-0.5-0.1-0.6,0c-1,0-2.1,0-3.1,0c-0.7,0-0.7,1,0,1c1,0,2,0,3,0
	c0.2,2.6,0.2,5.2,0.2,7.8c0,0.7,1,0.7,1,0c0-2.6,0-5.2-0.2-7.8c1.1,0,2.3-0.1,3.4-0.2C83.7,3.7,83.7,2.7,83.1,2.7z"/>
</svg>
