<?xml version="1.0" encoding="utf-8"?>
<!-- Generator: Adobe Illustrator 18.1.1, SVG Export Plug-In . SVG Version: 6.00 Build 0)  -->
<svg version="1.1" id="Layer_1" xmlns="http://www.w3.org/2000/svg" xmlns:xlink="http://www.w3.org/1999/xlink" x="0px" y="0px"
	 viewBox="0 0 100 14.7" enable-background="new 0 0 100 14.7" xml:space="preserve">
<g>
	<g>
		<path fill="#FF6648" d="M24.2,12.9c0.1-2.1,0.2-4.2,0.3-6.3c0-0.5,0.1-1.1,0.1-1.6c0-0.2,0-0.5,0-0.7c0-0.4-0.1-0.3,0.3-0.3
			c1-0.1,2-0.2,3-0.2c1.8,0.1,2.4,2,2.6,3.5c0.2,1.6-0.1,3.3-1.6,4.2c-1.5,1-3.4,1.1-5.1,0.9c-0.7-0.1-1,0.9-0.3,1
			c1.9,0.3,3.9,0.2,5.6-0.8c1.8-1,2.6-2.8,2.5-4.9C31.5,6,31,3.8,29.3,3c-1.1-0.5-2.3-0.3-3.5-0.2c-1,0.1-2.2-0.1-2.3,1.1
			c-0.2,3-0.3,6-0.4,9C23.1,13.6,24.2,13.6,24.2,12.9L24.2,12.9z"/>
	</g>
	<g>
		<path fill="#FF6648" d="M33.3,3.2c-0.1,3,0,6,0.2,9c0,0.3,0.2,0.5,0.5,0.5c2.1,0.1,4.2,0.2,6.4,0.2c0.7,0,0.7-1.1,0-1.1
			c-2.1-0.1-4.2-0.2-6.4-0.2c0.2,0.2,0.4,0.4,0.5,0.5c-0.2-3-0.3-6-0.2-9C34.4,2.5,33.3,2.5,33.3,3.2L33.3,3.2z"/>
	</g>
	<g>
		<path fill="#FF6648" d="M33.8,3.9c2.2-0.1,4.4-0.3,6.6-0.4c0.7,0,0.7-1.1,0-1.1c-2.2,0.1-4.4,0.3-6.6,0.4
			C33.1,2.8,33.1,3.9,33.8,3.9L33.8,3.9z"/>
	</g>
	<g>
		<path fill="#FF6648" d="M34,8.4c1.9-0.1,3.8-0.2,5.7-0.3c0.7,0,0.7-1.1,0-1.1c-1.9,0.1-3.8,0.2-5.7,0.3C33.3,7.4,33.3,8.5,34,8.4
			L34,8.4z"/>
	</g>
	<g>
		<path fill="#FF6648" d="M49.8,5.2c-0.6-1.5-2.1-2.4-3.7-2.5c-1.6-0.1-3.6,1-3.6,2.8c0,0.8,0.4,1.6,1.2,2c0.8,0.4,1.8,0.4,2.6,0.6
			c0.9,0.3,1.9,0.7,2.3,1.6c0.4,0.8,0.3,1.7-0.5,2.2C46.5,13,43.1,12.4,43,10c0-0.7-1.1-0.7-1.1,0c0.1,2,1.8,3.3,3.7,3.5
			c1.6,0.2,3.9-0.3,4.3-2.2c0.4-1.9-1.1-3.4-2.8-4c-0.9-0.3-2-0.3-2.9-0.7c-1-0.4-0.7-1.7,0-2.2c1.6-1.2,3.9-0.2,4.6,1.5
			C49.2,6.4,50.1,5.8,49.8,5.2L49.8,5.2z"/>
	</g>
	<g>
		<path fill="#FF6648" d="M52.7,3.4c0.2,3,0.4,6,0.6,9.1c0,0.7,1.1,0.7,1.1,0c-0.1-3-0.3-6-0.6-9.1C53.7,2.7,52.6,2.7,52.7,3.4
			L52.7,3.4z"/>
	</g>
	<g>
		<path fill="#FF6648" d="M64.9,5.9c-0.2-1.9-2.3-2.8-3.9-2.7c-1.6,0.1-3.3,0.9-4,2.4c-0.8,1.5-0.7,3.3,0.2,4.8
			c1,1.7,2.9,2.3,4.8,2.3c1,0,2.1-0.2,2.7-1.2c0.5-0.9,0.4-1.9,0.2-2.9c-0.1-0.7-1.2-0.4-1,0.3c0.1,0.6,0.2,1.3-0.1,1.9
			c-0.3,0.7-1.1,0.8-1.7,0.8c-1.4,0-2.9-0.3-3.8-1.6c-0.7-1-0.9-2.3-0.5-3.4c0.4-1.2,1.4-2,2.6-2.2c0.6-0.2,1.3-0.2,1.9,0
			c0.7,0.2,1.6,0.7,1.7,1.5C63.8,6.6,64.9,6.6,64.9,5.9L64.9,5.9z"/>
	</g>
	<g>
		<path fill="#FF6648" d="M61.7,9.3c1.1-0.2,2.2-0.3,3.3-0.2c0.7,0,0.7-1.1,0-1.1c-1.2,0-2.4,0-3.6,0.3C60.7,8.4,61,9.4,61.7,9.3
			L61.7,9.3z"/>
	</g>
	<g>
		<path fill="#FF6648" d="M68.7,12.6c-0.1-3.3-0.3-6.5-0.4-9.8c-0.3,0.1-0.7,0.2-1,0.3c2.4,3.3,4.9,6.5,7.4,9.7
			c0.3,0.4,0.9,0,0.9-0.4c0.2-3.1,0-6.3-0.7-9.4c-0.1-0.7-1.2-0.4-1,0.3c0.6,3,0.8,6,0.6,9.1c0.3-0.1,0.6-0.3,0.9-0.4
			c-2.5-3.1-4.9-6.3-7.2-9.5c-0.3-0.4-1-0.3-1,0.3c0.1,3.3,0.3,6.5,0.4,9.8C67.6,13.3,68.7,13.3,68.7,12.6L68.7,12.6z"/>
	</g>
</g>
</svg>
