<?xml version="1.0" encoding="utf-8"?>
<!-- Generator: Adobe Illustrator 18.1.1, SVG Export Plug-In . SVG Version: 6.00 Build 0)  -->
<svg version="1.1" id="Layer_1" xmlns="http://www.w3.org/2000/svg" xmlns:xlink="http://www.w3.org/1999/xlink" x="0px" y="0px"
	 viewBox="0 0 100 14.7" enable-background="new 0 0 100 14.7" xml:space="preserve">
<g>
	<g>
		<path fill="#FF6648" d="M10.6,11.2c-1.6,0.1-3.2,0.1-4.8,0.2C5.7,8.5,5.6,5.6,5.5,2.7c0-0.7-1.1-0.7-1.1,0C4.5,5.8,4.6,8.9,4.7,12
			c0,0.3,0.2,0.6,0.5,0.5c1.8-0.1,3.6-0.2,5.4-0.2C11.3,12.2,11.3,11.2,10.6,11.2z"/>
		<path fill="#FF6648" d="M18.7,11.5c-1.5,0-3,0-4.6,0C14,8.6,14,5.7,13.9,2.8c0-0.7-1.1-0.7-1.1,0c0.1,3.1,0.1,6.2,0.2,9.2
			c0,0.3,0.2,0.5,0.5,0.5c1.7,0,3.4,0,5.1,0C19.3,12.6,19.4,11.5,18.7,11.5z"/>
		<path fill="#FF6648" d="M27.2,2.7c-0.1,2.1-0.1,4.1-0.2,6.2c0,0.8-0.2,1.7-0.9,2.3c-0.5,0.4-1.2,0.5-1.8,0.5
			c-1.6-0.1-2.6-1.5-2.9-2.9c-0.5-1.9,0.2-3.9,0-5.8c-0.1-0.7-1.1-0.7-1.1,0c0.1,1.8-0.4,3.6-0.1,5.5c0.2,1.4,0.9,2.8,2.1,3.6
			c1,0.8,2.4,0.9,3.6,0.5c1.4-0.5,2-1.8,2.1-3.2c0.2-2.2,0.2-4.4,0.2-6.6C28.3,2,27.2,2,27.2,2.7z"/>
		<path fill="#FF6648" d="M34.7,7.4c-0.8-0.2-1.8-0.5-2.2-1.3c-0.3-0.6-0.1-1.4,0.3-2c1.2-1.7,3.6-0.5,4.1,1.2C37,6,38.1,5.7,37.9,5
			c-0.4-1.6-1.9-2.8-3.6-2.9c-1.5,0-2.8,1.2-3.1,2.7c-0.3,1.7,0.9,2.9,2.5,3.4c0.8,0.3,1.7,0.4,2.5,0.9c0.7,0.4,1.2,1.3,0.5,2
			c-0.7,0.7-2,0.7-2.9,0.5c-1-0.2-2-1-2.1-2.1c-0.1-0.7-1.1-0.7-1.1,0c0.2,2,1.9,3.1,3.8,3.3c1.5,0.1,3.6-0.5,3.7-2.3
			C38.3,8.6,36.1,7.8,34.7,7.4z"/>
		<path fill="#FF6648" d="M47.7,2.5c-2.7,0-5.4,0.1-8,0.2c-0.7,0-0.7,1.1,0,1.1c1,0,2.1,0,3.1-0.1c0.1,2.9,0.1,5.8,0.2,8.7
			c0,0.7,1.1,0.7,1.1,0C44,9.5,44,6.6,43.9,3.6c1.3,0,2.6,0,3.8-0.1C48.4,3.6,48.4,2.5,47.7,2.5z"/>
		<path fill="#FF6648" d="M54.7,7.9C56,7.6,57,6.9,57,5.5c0-1.3-1.1-2.3-2.3-2.7c-0.7-0.2-1.4-0.2-2.2-0.3c-0.9,0-1.8-0.1-2.7-0.1
			c-0.3,0-0.5,0.3-0.5,0.5c0,3.1,0,6.2,0,9.2c0,0.7,1.1,0.7,1.1,0c0-1.3,0-2.7,0-4c0.8,0.1,1.9,0.1,3,0c0,0,0.1,0.1,0.1,0.1
			c1.4,1,2.4,2.5,2.8,4.2c0.2,0.7,1.2,0.4,1-0.3C56.8,10.6,55.9,9.1,54.7,7.9z M50.3,7.1c0-1.2,0-2.4,0-3.6c1.1,0,2.1,0,3.2,0.2
			c1,0.1,2.4,0.6,2.4,1.8c0,1-1.2,1.3-2,1.5C52.7,7.2,51.5,7.2,50.3,7.1z"/>
		<path fill="#FF6648" d="M63.1,2.7c-0.2-0.5-0.8-0.3-1,0.1c-1.2,3.2-2.5,6.5-3.7,9.7c-0.2,0.7,0.8,0.9,1,0.3
			c0.4-1.2,0.9-2.4,1.3-3.5c0.1,0,0.2,0,0.3,0C62.2,9.1,63.4,9,64.6,9c0.4,1.1,0.8,2.2,1.1,3.3c0.2,0.7,1.2,0.4,1-0.3
			C65.8,8.8,64.6,5.7,63.1,2.7z M61.2,8.1c0.5-1.3,1-2.5,1.5-3.8c0.6,1.2,1.1,2.4,1.5,3.6C63.2,7.9,62.2,8,61.2,8.1z"/>
		<path fill="#FF6648" d="M75.1,2.5c-1.3,0.1-6.7,0.2-7.8,0.2c-0.7,0-0.7,1.1,0,1.1c1.1,0,2.1,0,3.2,0c0.2,2.7,0.3,5.5,0.2,8.2
			c0,0.7,1.1,0.7,1.1,0c0-2.7,0-5.5-0.2-8.2c1.2,0,2.4-0.1,3.6-0.2C75.8,3.6,75.8,2.5,75.1,2.5z"/>
		<path fill="#FF6648" d="M76.9,2.7c0.1,3.2,0.1,6.5,0.2,9.7c0,0.7,1.1,0.7,1.1,0c-0.1-3.2-0.1-6.5-0.2-9.7C78,2,76.9,2,76.9,2.7z"
			/>
		<path fill="#FF6648" d="M86.7,2.8C86.7,2.8,86.7,2.8,86.7,2.8c-2-1.3-4.4,0.1-5.4,2c-1,2-1.3,5,0.6,6.5c3.1,2.5,8.3,0.1,8-4
			C89.7,5.4,88.5,3.5,86.7,2.8z M87.4,10.4c-1.1,0.8-2.6,1.1-3.9,0.6c-0.8-0.3-1.5-1-1.8-1.9c-0.2-0.9-0.1-1.9,0.1-2.7
			c0.2-1,0.7-2,1.6-2.5c0.7-0.5,1.5-0.6,2.2-0.4c0.1,0.1,0.2,0.2,0.3,0.2C88.8,4.5,89.9,8.6,87.4,10.4z"/>
		<path fill="#FF6648" d="M98.5,2.5c0,1.7,0,3.4,0,5.2c0,0.8,0,1.6,0,2.5c0,0.4,0,0.7,0,1.1c-0.1-0.1-0.2-0.2-0.2-0.2
			c-1.9-2.6-3.6-5.4-5.1-8.2c-0.3-0.5-1-0.2-1,0.3c0,3.1-0.2,6.2-0.5,9.4c-0.1,0.7,1,0.7,1.1,0c0.2-2.4,0.4-4.9,0.5-7.4
			c0.6,1.1,1.3,2.1,1.9,3.2c0.5,0.8,1,1.6,1.6,2.4c0.3,0.4,0.5,0.8,0.8,1.2c0.2,0.3,0.5,0.7,0.8,0.8c0.8,0.3,1.2-0.3,1.2-1
			c0-1,0-2,0-3c0-2,0-4.1,0-6.1C99.6,1.8,98.5,1.8,98.5,2.5z"/>
	</g>
	<path fill="#FF6648" d="M0.4,2.6c0.1,3.2,0.1,6.5,0.2,9.7c0,0.7,1.1,0.7,1.1,0C1.6,9.1,1.6,5.9,1.5,2.6C1.5,1.9,0.4,1.9,0.4,2.6z"
		/>
</g>
</svg>
