<?xml version="1.0" encoding="utf-8"?>
<!-- Generator: Adobe Illustrator 18.1.1, SVG Export Plug-In . SVG Version: 6.00 Build 0)  -->
<svg version="1.1" id="Layer_1" xmlns="http://www.w3.org/2000/svg" xmlns:xlink="http://www.w3.org/1999/xlink" x="0px" y="0px"
	 viewBox="0 0 960 247.5" enable-background="new 0 0 960 247.5" xml:space="preserve">
<path fill="#FF6645" d="M477.3,85.6c5.3,0.7,10.6,2.4,15.1,5.3c0-0.7,0-1.3-0.1-1.9c0,0,0,0,0-0.1c-2.1-0.6-4-1.7-6.1-2.5
	c-2.5-0.9-5.2-1.2-7.8-1.7c-2.8-0.5-5.6-0.9-8.5-1c-2.4-0.1-5-0.3-7.3,0.4c0,1,0,2.1-0.1,3.1C467.1,85.3,472.4,85,477.3,85.6z"/>
<path fill="#FF6645" d="M493.1,79.9c-10.1-2.7-20.5-4-30.9-2.2c0,0.2,0,0.3,0,0.5c4.7-0.6,9.4-0.7,14.1-0.3c2.9,0.3,5.6,0.7,8.4,1.7
	c2.6,1,5.2,2.2,8.1,2.4C492.9,81.4,493,80.6,493.1,79.9C493.1,79.9,493.1,79.9,493.1,79.9z"/>
<path fill="#FF6645" d="M477.6,73.2c-3.1,0-6.1,0.4-9.2,0.4c-2.2,0-4.3-0.2-6.4,0.1c0,0.6,0.1,1.3,0.1,2c10.5-1.8,21-0.5,31.3,2.2
	c0.1-0.6,0.1-1.3,0.2-1.9C488.2,75.3,483,73.2,477.6,73.2z"/>
<path fill="#FF6645" d="M494.1,68.9c-5.1-2.2-11.2-2.5-16.7-2.4c-3.3,0.1-6.6,1.1-9.9,1.2c-2,0.1-4-0.1-6-0.3c0,0.4,0.1,0.8,0.2,1.2
	c2.2-0.1,4.3,0,6.5,0.1c3,0.2,6,0.1,9.1,0.2c3.1,0,6.3,0.2,9.4,0.4c2.5,0.1,5,0.4,7.5,0.9c0-0.4,0.1-0.7,0.1-1.1
	C494.3,69,494.2,68.9,494.1,68.9z"/>
<path fill="#FF6645" d="M478,63.4c-5.5,0.4-11.1,0.7-16.7,0.7c0,0.4,0.1,0.9,0.1,1.3c2.3,0.2,4.6,0.5,7,0.3c3.3-0.3,6.5-1.2,9.9-1.2
	c5.4,0.1,11.1,0.4,16.2,2.5c0.1-0.6,0.1-1.3,0.1-1.9C489.4,63,483.6,63,478,63.4z"/>
<path fill="#FF6645" d="M478.5,60.2c-3.2,0.3-6.5,1.1-9.7,1.2c-2.5,0.1-5-0.3-7.5-0.5c0,0.4,0,0.8,0,1.2c5.7,0,11.5-0.4,17.2-0.7
	c5.4-0.3,11.1-0.3,16.3,1.6c0-0.7,0.1-1.3,0.1-2C489.6,59.5,483.9,59.6,478.5,60.2z"/>
<path fill="#FF6645" d="M461.2,57.4c0,0.5,0,1,0,1.5c2.7,0.2,5.4,0.6,8.1,0.5c3.3-0.2,6.5-0.8,9.7-1.2c5.3-0.5,10.8-0.6,16,0.7
	c0-0.5,0-1,0-1.5C483.9,54.9,472.4,56.5,461.2,57.4z"/>
<path fill="#FF6645" d="M476.1,53.2c-3.3,0.2-6.5,1-9.7,1.2c-1.7,0.1-3.5-0.1-5.2-0.2c0,0.4,0,0.8,0,1.2c11.3-0.9,22.7-2.4,33.9-0.1
	l0,0c0.1-0.7,0.2-1.4,0.3-2.1C488.9,53.3,482.5,52.8,476.1,53.2z"/>
<path fill="#FF6645" d="M461.2,51.9c0,0.1,0,0.2,0,0.3c1.9,0.2,3.8,0.4,5.7,0.2c3.1-0.4,6.1-1,9.2-1.2c6.5-0.4,12.9,0.1,19.4,0.1
	c0.1-0.5,0.2-1,0.2-1.5C484.2,48.8,472.7,50.4,461.2,51.9z"/>
<path fill="#FF6645" d="M477.7,46.1c-5.5,0.5-10.9,1.7-16.4,2.3c0,0,0,0.1,0,0.1c0,0.4,0,0.9,0,1.3c11.5-1.5,23.1-3.1,34.7-2.1
	c0-0.5,0.1-1.1,0.1-1.6C490.1,44.3,483.8,45.6,477.7,46.1z"/>
<path fill="#FF6645" d="M461.3,45.2c0,0.4,0,0.8,0,1.2c2.4-0.3,4.8-0.8,7.2-1.2c3.2-0.5,6.4-0.9,9.7-1.2c5.9-0.6,12.1-1.6,17.9,0
	c0-0.5,0-1,0-1.5C484.6,40.2,472.4,41.5,461.3,45.2z"/>
<path fill="#FF6645" d="M487.3,39c-3.2-0.5-6.4-0.5-9.6-0.4c-5.6,0.2-11.1,1.6-16.4,3.2c0,0.4,0,0.9,0,1.3c10.1-3.3,21-4.6,31.5-3.1
	C491,39.6,489.1,39.2,487.3,39z"/>
<path fill="#FF6645" d="M476.7,35.3c-5.3,0.8-10.4,2.4-15.5,4.2c0,0.1,0,0.2,0,0.2c5.2-1.5,10.5-2.9,15.9-3.1
	c3.3-0.2,6.6-0.1,9.9,0.3c3,0.4,6,1.2,9.1,1.5c0-0.5,0-1.1,0-1.6C489.9,34.8,483.3,34.3,476.7,35.3z"/>
<path fill="#FF6645" d="M477.9,31.7c-5.6,0.5-11.1,2.2-16.6,3.4c0,0.7,0,1.5,0,2.2c5.2-1.8,10.5-3.4,15.9-4.1
	c6.4-0.9,12.8-0.4,19,1.5c0-0.4,0-0.8,0.1-1.1C490.2,32.5,484,31.2,477.9,31.7z"/>
<path fill="#FF6645" d="M496.7,29.3c-2.5-0.3-5.2,0.1-7.7,0.2c-3.7,0-7.4-0.5-11.2-0.3c-5.5,0.3-11.1,0.3-16.6,1.2
	c0,0.9,0,1.8,0,2.7c5.5-1.2,11-2.8,16.6-3.4c6.2-0.6,12.5,0.8,18.6,1.9c0-0.2,0-0.4,0.1-0.6c0.1-0.3,0.1-0.7,0-1
	C496.7,29.8,496.7,29.5,496.7,29.3z"/>
<path fill="#FF6645" d="M477.9,27.1c4-0.2,7.9,0.4,11.8,0.3c2.4-0.1,4.8-0.4,7.2-0.1c0-0.4,0-0.9-0.1-1.3c-0.1-1.3-0.9-2.5-2.4-2.7
	c-0.5-0.1-0.9,0-1.4,0.2c-0.4-0.1-0.9-0.2-1.4-0.2c-3.2-0.3-6.5,0.2-9.7,0.7c-5.8,0.9-11.7,2.3-17.4,0.1c-1.7-0.7-3.5,1-3.5,2.6
	c0,0.5,0,1.1,0,1.6C466.7,27.5,472.3,27.5,477.9,27.1z"/>
<path fill="#FF6645" d="M495.2,40.4c0.3,0.1,0.6,0.1,0.9,0.2c0,0,0,0,0-0.1C495.8,40.4,495.5,40.4,495.2,40.4z"/>
<path fill="#FF6645" d="M486,71.1c-2.9-0.1-5.7-0.3-8.6-0.3c-2.9,0-5.9,0-8.8-0.2c-2.2-0.1-4.4-0.3-6.5-0.1c0,0.4,0,0.8-0.1,1.2
	c2-0.2,3.9-0.1,5.9-0.1c3,0.1,6.1-0.4,9.1-0.4c5.7-0.1,11.1,2.1,16.7,2.8c0-0.3,0-0.5,0-0.8c0.1-0.3,0.2-0.6,0.2-0.9
	c0-0.1,0-0.2,0-0.2C491.4,71.5,488.7,71.2,486,71.1z"/>
<path fill="#FF6645" d="M492.5,84.1c-2.6-0.3-4.9-1.2-7.3-2.1c-2.7-1-5.4-1.7-8.3-2c-4.8-0.5-9.7-0.3-14.5,0.2
	c0,0.6,0.1,1.2,0.1,1.9c2.3-0.6,4.8-0.4,7.1-0.4c2.8,0.1,5.5,0.5,8.2,0.9c2.8,0.5,5.8,0.8,8.4,1.7c2,0.7,3.9,1.8,5.9,2.4
	c0-0.3,0-0.7,0-1c0-0.1,0-0.1,0-0.2C492.3,85.1,492.4,84.6,492.5,84.1z"/>
<g>
	<path fill="#FF6645" d="M492.3,99.7"/>
</g>
<g>
	<g>
		<path fill="#FF6645" d="M493.1,93.8C493.1,93.8,493.1,93.8,493.1,93.8c0-0.1,0-0.2,0-0.3c-4.5-3.2-10.8-5.3-16.2-5.9
			c-1.8-0.2-6.2-0.4-6.6-0.4c-4.4-0.4-6.4,0.4-7.8,2.9c-1.5,2.7,1,7.4,3.4,8.7l22.8,4.6C491.4,102.5,495.2,96.1,493.1,93.8z
			 M476.5,88.8c0.2,0,0.4-0.1,0.6-0.1c0.7,0.3,1.4,0.5,2.1,0.8c0.4,0.2,0.9,0.4,1.5,0.6c1.4,0.7,2.8,1.3,4.2,1.9
			c0.6,0.3,1.3,0.5,2,0.8c-0.4,0-0.8-0.1-1.2-0.2C482.5,91.5,479.6,90,476.5,88.8z"/>
	</g>
</g>
<path fill="#FF6645" d="M497.6,161.1c-0.3-0.8-0.7-1.5-1-2.3c-0.7-2-1.7-3.9-2.5-5.8c-1.7-3.9-3.4-7.8-5-11.7
	c-1.3-6.1-1.4-12.6-1.3-18.8c0.1-3.5,0.3-7,0.5-10.5c0.1-1.3,0.2-2.5,0.3-3.8c0.3-3.6,0.4-14.7-0.1-15.7c-1.8-3-12.6-4.3-18.9-4.3
	c-2,0-4,0.2-4,0.8c0,10.8,0.5,21.5,0.8,32.3c0.1,5,0.3,10,0.4,15c0,1.1,0.1,2.2,0,3.3c-0.1,2.4-1.6,4.5-2.7,6.5
	c-2.3,4.1-3.9,8.4-4.3,13.1c-0.2,2.5-0.1,5.1,0,7.6c0.1,2.4,0.3,5,1.2,7.3c0.8,2.2,2.2,4,3.6,5.8c0.3,0.6,0.8,1,1.3,1.4
	c0.3,0.2,0.6,0.4,0.9,0.6c0,0,0,0,0.1,0c0,0,0,0,0.1,0c0.2,0.1,0.4,0.2,0.6,0.3c0.6,0.2,1.2,0.2,1.6,0c0,1.3,0.6,2.6,1.4,3.7
	c0.2,0.3,0.5,0.6,0.7,0.9c0.9,1.1,2.6,2,4.1,1.9c0.7-0.1,1.2-0.4,1.6-0.8c-0.1,1.4,0.4,3,1.2,4.2c0.8,1.2,1.7,2,3.1,2.6
	c1.5,0.6,2.7,0.1,3.6-0.9c0,0.1,0,0.1,0,0.2c-0.4,2.3,0.2,4.7,0.3,7c0.2,2.4,0.2,4.9,0,7.3c-0.1,2.6-1.4,12.1,0.8,14.1
	c1.4,1.3,4.2,1.1,4.6-1.1c1.6-8,2.3-24.6,2.2-34.1c0.4-0.2,0.8-0.4,1.2-0.7c1.5-1.2,1.8-3.3,2.3-5c0.7-2.6,1.5-4.9,2.8-7.3
	C500.9,170.1,499.2,165,497.6,161.1z M487.1,133.3c0-0.1,0-0.2-0.1-0.3c0-0.1,0-0.2,0-0.3C487.1,132.9,487.1,133.1,487.1,133.3z
	 M482.2,96.4c0,0.1,0,0.1,0,0.2c0,0-0.1,0-0.1,0c0-0.1,0-0.1,0-0.2C482.1,96.4,482.1,96.4,482.2,96.4z"/>
<path fill="#FFEDE9" d="M486.9,215.7c2.6-1.3,3.7,3.8,2.4,5.2c-0.9,1-2.9,0.4-3.4-0.7c-0.6-1.3,0.1-3.4,0.7-4.4L486.9,215.7z"/>
</svg>
