<?xml version="1.0" encoding="utf-8"?>
<!-- Generator: Adobe Illustrator 26.0.2, SVG Export Plug-In . SVG Version: 6.00 Build 0)  -->
<svg version="1.1" id="Layer_1" xmlns="http://www.w3.org/2000/svg" xmlns:xlink="http://www.w3.org/1999/xlink" x="0px" y="0px"
	 viewBox="0 0 220 100" style="enable-background:new 0 0 220 100;" xml:space="preserve">
<style type="text/css">
	.st0{fill:#07222D;}
	.st1{filter:url(#Adobe_OpacityMaskFilter);}
	.st2{fill-rule:evenodd;clip-rule:evenodd;fill:#FFFFFF;}
	.st3{mask:url(#mask-2_00000172419927635028950350000016990595500894708871_);fill-rule:evenodd;clip-rule:evenodd;fill:#07222D;}
	.st4{filter:url(#Adobe_OpacityMaskFilter_00000023256326463656686350000015710061023741829304_);}
	.st5{mask:url(#mask-4_00000031179769895205708410000007030728210091176124_);fill-rule:evenodd;clip-rule:evenodd;fill:#07222D;}
</style>
<g id="_x31_39x36-AARP-logo-white-smaller">
	<g id="AARP-logo---white-" transform="translate(0.000000, 5.000000)">
		<g id="Group-3" transform="translate(0.000000, 0.120700)">
			<defs>
				<filter id="Adobe_OpacityMaskFilter" filterUnits="userSpaceOnUse" x="25" y="26.96" width="143.64" height="31.4">
					<feColorMatrix  type="matrix" values="1 0 0 0 0  0 1 0 0 0  0 0 1 0 0  0 0 0 1 0"/>
				</filter>
			</defs>
			
				<mask maskUnits="userSpaceOnUse" x="25" y="26.96" width="143.64" height="31.4" id="mask-2_00000172419927635028950350000016990595500894708871_">
				<g class="st1">
					<polygon id="path-1_00000179648343101899717980000012434595487755175858_" class="st2" points="25,26.96 168.64,26.96 
						168.64,58.36 25,58.36 					"/>
				</g>
			</mask>
			<path id="Fill-1" class="st3" d="M50.04,52.43c0.03,0,0.06-0.01,0.08-0.01l-2.2,5.94h-0.12h-8.48h-0.12l2.12-5.09h0.07h0
				c0.59,0,4.57-0.03,8.64-0.85L50.04,52.43z M168.64,38c0,6.72-5.31,11.04-14.06,11.04h-5.26v9.31h-23.77l-9.59-12.65v12.65H93.02
				l-2.52-6.94c-0.16-0.03-2.72-0.51-5.75-0.51c-3.01,0-5.69,0.47-5.84,0.5l-2.58,6.95H64.65l-1.91-5.28
				c2.86,0.71,5.06,1.89,6.15,2.53l0.48-1.19c-1.76-1.05-6.7-3.55-13.78-3.55c-5.48,0-8.96,1.34-14.65,1.34
				c-9.24,0-15.62-4.5-15.95-4.72l2.46-6c0.64,0.42,6.78,4.38,13.86,4.38c1.2,0,2.23-0.06,3.19-0.16l7.68-18.75h1.1h6.27h5.39
				l7.6,19.69l8.04-19.69h12.78l11.18,28.98V26.96h15.27c10.39,0,15.47,4.77,15.47,11.05c0,6.29-4.95,8.71-6.32,9.33l8.95,9.73
				V26.96h16.67C163.8,26.96,168.64,31.62,168.64,38L168.64,38z M59.89,45.18l-3.5-9.67l-3.43,9.26c0.58-0.02,1.2-0.04,1.87-0.04
				C57.61,44.73,59.67,45.14,59.89,45.18L59.89,45.18z M88.26,44.98l-3.5-9.35l-3.56,9.35c0.16-0.02,2.08-0.24,3.56-0.24
				C86.34,44.74,88.09,44.95,88.26,44.98L88.26,44.98z M123.55,38c0-3.12-1.57-5.87-5.92-5.87h-1.68v11.72h1.68
				C121.55,43.85,123.55,41.63,123.55,38L123.55,38z M156.91,38c0-3.42-1.81-5.87-5.27-5.87h-2.32v11.72h2.32
				C154.88,43.85,156.91,41.65,156.91,38L156.91,38z"/>
		</g>
		<g id="Group-6" transform="translate(114.000000, 0.120700)">
			<defs>
				
					<filter id="Adobe_OpacityMaskFilter_00000137852177661457951080000011650210711702785470_" filterUnits="userSpaceOnUse" x="54.71" y="26.96" width="6.29" height="6.38">
					<feColorMatrix  type="matrix" values="1 0 0 0 0  0 1 0 0 0  0 0 1 0 0  0 0 0 1 0"/>
				</filter>
			</defs>
			
				<mask maskUnits="userSpaceOnUse" x="54.71" y="26.96" width="6.29" height="6.38" id="mask-4_00000031179769895205708410000007030728210091176124_">
				<g style="filter:url(#Adobe_OpacityMaskFilter_00000137852177661457951080000011650210711702785470_);">
					<polygon id="path-3_00000114056345313853701440000014429340475323903124_" class="st2" points="54.71,26.96 61,26.96 61,33.33 
						54.71,33.33 					"/>
				</g>
			</mask>
			<path id="Fill-4" class="st5" d="M57.88,26.96c1.74,0,3.12,1.41,3.12,3.18c0,1.79-1.39,3.19-3.14,3.19
				c-1.74,0-3.15-1.4-3.15-3.19c0-1.77,1.41-3.18,3.15-3.18H57.88z M57.86,27.45c-1.4,0-2.54,1.2-2.54,2.69
				c0,1.51,1.15,2.7,2.56,2.7c1.41,0.02,2.54-1.19,2.54-2.68c0-1.5-1.13-2.7-2.54-2.7H57.86z M57.27,31.99H56.7v-3.55
				c0.3-0.04,0.58-0.08,1-0.08c0.54,0,0.89,0.11,1.1,0.27c0.21,0.15,0.32,0.4,0.32,0.74c0,0.47-0.31,0.75-0.69,0.86v0.03
				c0.31,0.06,0.52,0.34,0.59,0.86c0.09,0.55,0.17,0.76,0.23,0.88h-0.59c-0.08-0.11-0.17-0.44-0.24-0.9
				c-0.08-0.45-0.31-0.62-0.76-0.62h-0.4V31.99z M57.27,30.02h0.41c0.46,0,0.86-0.17,0.86-0.61c0-0.31-0.22-0.62-0.86-0.62
				c-0.18,0-0.31,0.02-0.41,0.03V30.02z"/>
		</g>
	</g>
</g>
</svg>
