<?xml version="1.0" encoding="utf-8"?>
<!-- Generator: Adobe Illustrator 18.1.1, SVG Export Plug-In . SVG Version: 6.00 Build 0)  -->
<svg version="1.1" id="Layer_1" xmlns="http://www.w3.org/2000/svg" xmlns:xlink="http://www.w3.org/1999/xlink" x="0px" y="0px"
	 viewBox="0 0 236 36" enable-background="new 0 0 236 36" xml:space="preserve">
<g>
	<path fill="none" d="M223-0.8c-1.4,0.1-2.8,0.4-4.1,0.8h10.9C227.7-0.7,225.1-0.9,223-0.8z"/>
	<path fill="#F24E22" d="M15.3,6.7c-0.3-1-0.7-2-1-3.1c-0.5-1.6-2.7-1.6-3.3,0c-0.6,1.7-1.2,3.3-1.7,5c1,0,2.1,0.1,3.1,0.3
		C13.2,8.1,14.2,7.4,15.3,6.7z"/>
	<path fill="#F24E22" d="M22,34.3c1,0.5,2.5-0.1,2.5-1.2C23.7,33.5,22.8,33.9,22,34.3z"/>
	<path fill="#F24E22" d="M13.5,24.3c-2.1,0-4.2,0.1-6.2,0.1c0.6-1.9,1.3-3.7,1.9-5.6c-1-0.5-2-1-3.1-1.5C4.3,22.7,2.4,28,0.5,33.4
		c-0.7,2.1,2.6,3,3.3,0.9c0.8-2.2,1.5-4.4,2.3-6.6c1.5,0,3,0,4.6,0C11.4,26.5,12.4,25.4,13.5,24.3z"/>
	<path fill="#F24E22" d="M114.7,21.8c-0.3-0.3-0.7-0.6-1-0.8c0,1,0,2,0.1,2.9c1.2,0.6,2.3,1.4,3.5,2.1c0-0.6,0-1.1,0-1.7
		C116.3,23.6,115.5,22.7,114.7,21.8z"/>
	<path fill="#F24E22" d="M118.1,6.8c-0.5-1-1.1-2-1.6-3c-0.8-1.5-3.2-0.8-3.2,0.9c0,0.2,0,0.4,0,0.6c2.1,0.9,4,2.2,5.8,3.6
		C118.8,8.2,118.5,7.5,118.1,6.8z"/>
	<path fill="#F24E22" d="M134.7,15.3c0.2-0.3,0.4-0.6,0.7-0.8c0,0,0-0.1,0-0.1c-0.6,0.2-1.1,0.4-1.7,0.6
		C134,15.1,134.3,15.2,134.7,15.3z"/>
	<path fill="#F24E22" d="M130.8,21.4c-0.4-0.4-0.9-0.8-1.3-1.1c0,0.1,0,0.1-0.1,0.2c0.4,0.5,0.7,1,1.1,1.6
		C130.6,21.8,130.7,21.6,130.8,21.4z"/>
	<path fill="#F24E22" d="M114,29.7c0,0,0,0.1,0,0.1c0,1.2,0.1,2.4,0.1,3.6c0.1,2.2,3.5,2.2,3.4,0c0-0.6,0-1.2,0-1.8
		C116.2,31.2,115.1,30.5,114,29.7C114,29.7,114,29.7,114,29.7z"/>
	<path fill="#F24E22" d="M113.6,13.3C113.6,13.4,113.6,13.4,113.6,13.3C113.6,13.4,113.6,13.4,113.6,13.3
		C113.6,13.3,113.6,13.3,113.6,13.3z"/>
	<path fill="#F24E22" d="M140.3,31.8c-0.1,0.2-0.3,0.3-0.4,0.5c-0.4,0.5-1,0.7-1.5,0.7c0,0,0,0,0,0c0.1,1.2,1.2,1.8,2.1,1.6
		c0-0.9,0.1-1.9,0.2-2.9C140.6,31.8,140.4,31.8,140.3,31.8z"/>
	<path fill="#F24E22" d="M188.3,18c-0.1-0.1-0.1-0.2-0.2-0.3c-0.6-0.8-1.1-1.7-1.5-2.7c-0.3,0.1-0.7,0.2-1,0.4
		c-0.1,0.2-0.2,0.5-0.3,0.7c-0.6,1.7-1.3,3.4-2.1,5c0-1.6-0.1-3.2-0.1-4.8c-1.1,0.5-2.3,0.9-3.4,1.4c0,1,0,2,0,3
		c2.2,0.4,4.6,0.7,6.7,1.5C187.2,20.8,187.7,19.4,188.3,18z"/>
	<path fill="#F24E22" d="M174.6,31.4c-0.3,0.1-0.5,0.1-0.8,0.1c-0.8,0.1-1.6,0-2.4-0.1c-0.3,0.3-0.6,0.5-0.9,0.7
		c1.2,1.8,2.9,3,5.1,2.8c1.2-0.1,2.4-0.4,3.4-1c-0.6-0.9-1.2-1.9-1.8-2.9C176.3,31.6,175.4,31.7,174.6,31.4z"/>
	<path fill="#F24E22" d="M183.5,8.4c0.1-0.5,0.2-1.1,0.3-1.6c0.2-0.9,0.6-2.1,1.3-2.7c0.7-0.6,1.4,0.1,1.8,0.9
		c0.7-0.9,1.6-1.7,2.7-2.2c-0.9-1.4-2.4-2.4-4.2-2.3c-1.7,0.1-3.1,1.4-3.9,2.8c-0.5,1-0.9,2-1.2,3.2c0.3,0.8,0.5,1.6,0.6,2.5
		C181.8,8.7,182.6,8.6,183.5,8.4z"/>
	<path fill="#F24E22" d="M232,33.1c-0.2,2.2,3.2,2.2,3.4,0c0.1-0.9,0.1-1.8,0.2-2.7c-1-0.7-2.2-1.7-3.4-2.8
		C232.2,29.4,232.1,31.3,232,33.1z"/>
	<path fill="#F24E22" d="M162.8,29.9c0.3,0.4,0.7,0.9,1,1.4c0-0.1,0.1-0.1,0.1-0.2c-0.3-0.4-0.6-0.9-0.8-1.4
		C163,29.7,162.9,29.8,162.8,29.9z"/>
	<path fill="#F24E22" d="M173.5,13.2c0.3,0.1,0.5,0.2,0.7,0.3c0.1,0,0.1,0.1,0.2,0.1c0.8-1.2,1.7-2.2,2.9-2.9
		c0.1-0.4,0.1-0.8,0.2-1.3c-1.2,1.1-2.5,2.1-3.9,3.1C173.6,12.8,173.6,13,173.5,13.2z"/>
	<path fill="#F24E22" d="M162.7,27.6c0-0.1,0-0.2,0-0.3c-0.1,0-0.1-0.1-0.2-0.1c-0.1,0.3-0.3,0.6-0.5,0.8
		C162.3,27.8,162.5,27.7,162.7,27.6z"/>
	<path fill="#F24E22" d="M155.6,34.5c1.1,0.1,2.3,0,3.4-0.3c-0.2-0.5-0.4-1.1-0.5-1.6C157.5,33.3,156.6,33.9,155.6,34.5z"/>
	<path fill="#F24E22" d="M153.2,18.9c0.2,0.3,0.3,0.6,0.4,0.9c0.1,0.2,0.1,0.4,0.2,0.6c0.3-0.6,0.6-1.2,0.9-1.8
		c-0.1-0.3-0.2-0.6-0.2-0.8c-0.1,0.1-0.1,0.1-0.2,0.2C154,18.4,153.6,18.7,153.2,18.9z"/>
	<path fill="#F24E22" d="M193.7,23c-0.9-0.6-1.8-1.2-2.6-1.9c-0.2,0.9-0.4,1.8-0.4,2.7c0,0.5,0,0.9,0.1,1.4c0.4,0.5,0.8,1.1,1.1,1.8
		C192.4,25.7,193,24.3,193.7,23z"/>
	<path fill="#F24E22" d="M206.4,16.9c0.6-0.3,1.2-0.4,1.7-0.6c-0.3-0.3-0.6-0.5-1-0.8c-0.1-0.1-0.2-0.2-0.3-0.2
		c-0.8-0.4-1.6-0.8-2.4-1.1C204.4,15.9,204.7,17.6,206.4,16.9z"/>
	<path fill="#F24E22" d="M170.1,2.5c-0.1,2.1-0.9,4.1-2,6.1c0.1,0,0.2,0,0.3,0c1.2,0.2,1.9,1,2.4,1.9c0-1,0.1-2.1,0.2-2.9
		c0.1-0.8,0.6-2.8,1.5-3.5c1.5-1,1.6,2.2,1.5,4.4c1.1-0.8,2.3-1.5,3.6-2.1c0-0.3,0-0.5,0-0.8C175.8,3.2,172.7,1.9,170.1,2.5z"/>
	<path fill="#F24E22" d="M198.2,15.2c-0.8,0-1.7-0.1-2.5-0.2c0,0-0.1,0-0.1,0.1c-0.7,0.4-1.3,0.9-1.9,1.5c0.7,0.8,1.5,1.4,2.4,2
		C196.8,17.5,197.5,16.4,198.2,15.2z"/>
	<path fill="#F24E22" d="M187.4,31.3c-1.4,0.2-2.9-0.3-3.4-1.9c-0.1-0.4-0.2-0.8-0.3-1.2c0.3-0.5,0.5-1,0.8-1.6
		c-0.2-0.1-0.4-0.2-0.7-0.3c-1.2-0.4-2.5-0.6-3.7-0.8c0,0.6,0,1.2,0.1,1.8c-0.1,0.1-0.2,0.3-0.2,0.4c2.3,1.6,4.8,3.1,7.4,4.4
		C187.3,32,187.4,31.6,187.4,31.3z"/>
	<path fill="#F24E22" d="M217.7,30.5c-0.1,0-0.1,0.1-0.2,0.1c1.8,0.8,1.9,3.1,0.4,4.1c1,0.2,2.1-0.3,2.1-1.6c0-0.5,0-1.1,0-1.6
		c0,0,0,0,0,0C219.1,31.2,218.3,30.9,217.7,30.5z"/>
	<path fill="#F24E22" d="M208.6,25.5c-0.3,0.1-0.7,0.3-1,0.5c-0.5,1.7-1.6,3.3-3.3,4.1c-0.1,0-0.2,0.1-0.3,0.1c-1,1.4-2,2.8-3.2,4
		c1.3,0,2.7-0.2,3.9-0.7c3.3-1.3,5.8-4.1,6.3-7.6c0-0.1,0-0.3,0-0.4C210.5,25.3,209.6,25.2,208.6,25.5z"/>
	<path fill="#F24E22" d="M216.9,18c-1.8,0.3-3.6,0.6-5.3,1.1c-0.4,0.2-0.8,0.5-1.2,0.6c0-0.1-0.1-0.2-0.1-0.3
		c-1.1,0.3-2.2,0.6-3.3,1c0.1,0.1,0.2,0.3,0.2,0.4c-0.5,0.1-1,0.2-1.5,0.2c0,0,0,0,0,0c-0.6,0-1.2,0.4-1.8,0.7
		c0.4,0.1,0.8,0.1,1.2,0.2c1.4,0.2,1.9,1.3,1.8,2.4c0,0,0,0,0,0c1.5-1,3-1.2,4.3-0.8c0-0.1,0-0.3,0-0.4c1.6-0.7,3-1.7,4.3-2.8
		C215.6,19.3,216.1,18.4,216.9,18z"/>
	<path fill="#F24E22" d="M220.6,15.3c0.2-0.4,0.5-0.8,0.7-1.2c-0.5,0.2-1,0.5-1.5,0.8c0-0.4,0-0.7,0-1.1c0-2-2.6-2.1-3.3-0.5
		c-0.4,0.9-0.9,1.8-1.5,2.6c0.7,0,1.4-0.1,2.2-0.2C218.3,15.6,219.4,15.4,220.6,15.3z"/>
	<path fill="#F24E22" d="M195.9,28.6c-0.4,0.8-0.7,1.6-0.9,2.5c0.6-0.5,1.4-1,2.2-1.4C196.7,29.4,196.3,29.1,195.9,28.6z"/>
	<path fill="#F24E22" d="M225.5,14.7c0-0.5,0-1.1,0.1-1.6c-0.3,0-0.6,0-0.8,0.1c-0.4,0.6-0.8,1.2-1.2,1.8
		C224.2,14.9,224.9,14.8,225.5,14.7z"/>
	<path fill="#F24E22" d="M219.2,17.6c-0.3,0.1-0.7,0.1-1,0.2c0.3,0,0.6,0.1,0.8,0.2C219,17.8,219.1,17.7,219.2,17.6z"/>
	<path fill="#F24E22" d="M65.5,33.2c0.2-0.1,0.3-0.1,0.5-0.2c0,0,0,0,0,0c0-0.2-0.1-0.4-0.1-0.6C65.8,32.7,65.6,33,65.5,33.2z"/>
	<path fill="#F24E22" d="M34.5,31.1c-0.8-0.3-1.5-0.8-2-1.4c-0.2,0.1-0.4,0.1-0.7,0c-0.6-0.2-1.2-0.5-1.9-0.7
		c-0.7,0.6-1.4,1.2-2.1,1.8c-0.2,0.7-0.4,1.3-0.6,2c-0.6,2.1,2.7,3,3.3,0.9c0.1-0.3,0.2-0.6,0.3-0.9c0,0,0.1,0.1,0.1,0.1
		c0.5,0.4,1.1,0.8,1.7,1.1c0.8-0.9,1.6-1.8,2.3-2.7C34.7,31.2,34.6,31.2,34.5,31.1z"/>
	<path fill="#F24E22" d="M33.3,4.6C33.8,5.2,33.9,6.1,34,7c0,0.2,0,0.4,0,0.6c0.5-1,1-2.1,1.7-2.8c0-0.3,0-0.6,0.1-1
		c-1,0-2,0.2-3.1,0.4C33,4.3,33.2,4.4,33.3,4.6z"/>
	<path fill="#F24E22" d="M32.4,27.8c0.3-0.8,0.5-1.5,0.8-2.3c-0.5,0.6-1,1.2-1.5,1.8C31.9,27.4,32.1,27.6,32.4,27.8z"/>
	<path fill="#F24E22" d="M39.2,25.9C39.2,25.9,39.2,25.9,39.2,25.9c0,0.1,0,0.1,0,0.2c0.1-0.1,0.1-0.1,0.2-0.2
		C39.3,25.9,39.2,25.9,39.2,25.9z"/>
	<path fill="#F24E22" d="M45.8,29.8c-0.2-0.2-0.5-0.4-0.7-0.6c-0.5,1-1,2.1-1.5,3.1c0.3,0.2,0.6,0.4,0.9,0.5
		c0.7-0.9,1.4-1.8,2.1-2.7C46.3,30.1,46.1,30,45.8,29.8z"/>
	<path fill="#F24E22" d="M36.4,34.7c0.1,0,0.1,0,0.2,0c0.1-0.1,0.2-0.2,0.3-0.3C36.7,34.5,36.5,34.6,36.4,34.7z"/>
	<path fill="#F24E22" d="M76,16.5c1-0.2,3.5,0.8,4.3,2.8c0.4,1,0.5,2.1,0.8,3.2c0.1,0.1,0.2,0.2,0.4,0.3c0.6-0.6,1-1.2,1.4-1.9
		c1-2.2,0.1-4.6-1.8-5.8c-1.2-0.8-2.5-1-3.9-0.9C76.7,14.9,76,15.7,76,16.5C76,16.5,76,16.5,76,16.5z"/>
	<path fill="#F24E22" d="M59.7,30.3c-1.2-0.2-2.4-0.5-3.2-1.2c-0.7,0.9-1.4,1.8-2.1,2.7c0.3,0.3,0.7,0.5,1.1,0.7
		c2.2,1.2,5,1.6,7.6,1.3c0.6-1.4,1.4-2.8,2.2-4.1C63.5,30.3,61.8,30.6,59.7,30.3z"/>
	<path fill="#F24E22" d="M83.7,27.4c-0.1,0.5-0.4,0.9-0.7,1.2c0.2,0.3,0.4,0.5,0.6,0.8c0.6,0.6,0.9,1.3,1,1.9c0.7-0.6,1.4-1.3,2-2.1
		C87.9,27.5,85.1,25.8,83.7,27.4z"/>
	<path fill="#F24E22" d="M54.1,25.7c-0.7,0.5-1.4,0.9-2.2,1.2c-0.2,0.1-0.3,0.1-0.5,0c-0.2,0.2-0.3,0.5-0.5,0.7
		c-0.2,0.6-0.4,1.2-0.8,1.7c-0.3,0.3-0.6,0.6-1,0.8c-0.9,1.2-1.7,2.3-2.6,3.5c0,0,0,0,0.1,0C49.2,31.1,51.7,28.4,54.1,25.7
		C54.1,25.7,54.1,25.7,54.1,25.7z"/>
	<path fill="#333232" d="M83.7,27.4C83.7,27.4,83.7,27.5,83.7,27.4c-0.3,0.4-0.6,0.7-0.9,1c0.1,0.1,0.1,0.2,0.2,0.2
		C83.4,28.3,83.6,27.9,83.7,27.4z"/>
	<path fill="#333232" d="M81.1,23.1c0.1-0.1,0.2-0.2,0.3-0.3c-0.1-0.1-0.3-0.2-0.4-0.3C81,22.7,81.1,22.9,81.1,23.1z"/>
	<path fill="#333232" d="M65.4,29.6c-0.1,0-0.1,0.1-0.2,0.1c-0.8,1.4-1.5,2.7-2.2,4.1c0.9-0.1,1.7-0.3,2.5-0.6
		c0.1-0.3,0.2-0.5,0.4-0.8C65.7,31.5,65.6,30.5,65.4,29.6z"/>
	<path fill="#333232" d="M55.2,27.2c-0.2-0.5-0.2-1-0.2-1.5c-0.3,0-0.6,0-0.9-0.1c-2.4,2.8-4.9,5.5-7.6,8c1.4,0.3,2.9,0.2,4.2-0.5
		c1.2-0.6,2-1.5,2.5-2.5c0.3,0.4,0.7,0.8,1.1,1.1c0.7-0.9,1.4-1.8,2.1-2.7C55.9,28.6,55.5,28,55.2,27.2z"/>
	<path fill="#333232" d="M75.7,16.5c0.4-0.8,0.8-1.6,1.2-2.4c-0.4,0-0.8,0.1-1.2,0.2c0,0.5,0,1,0,1.5C75.7,16,75.7,16.2,75.7,16.5z"
		/>
	<path fill="#333232" d="M46.6,30.2c-0.7,0.9-1.4,1.8-2.1,2.7c0.6,0.3,1.3,0.6,1.9,0.7c0.9-1.2,1.8-2.3,2.6-3.5
		C48.3,30.5,47.4,30.5,46.6,30.2z"/>
	<path fill="#333232" d="M43.4,26.4c-0.1-0.2-0.1-0.5-0.2-0.7c0,0,0,0,0-0.1c0-0.2,0-0.3,0-0.5c-1,0.2-2.5,0.7-3.9,0.8
		c-0.1,0.1-0.1,0.1-0.2,0.2c0,0.1,0,0.2-0.1,0.3C40.4,26.6,41.9,26.6,43.4,26.4z"/>
	<path fill="#333232" d="M51.1,26.8c-0.1,0.3-0.1,0.6-0.2,0.9c0.2-0.2,0.3-0.5,0.5-0.7C51.3,26.9,51.2,26.8,51.1,26.8z"/>
	<path fill="#333232" d="M64.5,15.8c-1,0.8-1.9,1.7-2.8,2.5c0,0,0.1,0,0.1,0C62.8,17.6,63.7,16.8,64.5,15.8z"/>
	<path fill="#333232" d="M44.3,28.3c-2,0.2-3.9,0.2-5.8,0c-0.1,0.3-0.2,0.6-0.3,0.8c-0.7,1.6-1.7,2.6-3.4,2.1
		c-0.8,0.9-1.6,1.8-2.3,2.7c1.2,0.6,2.6,0.9,3.9,0.7c0.1-0.1,0.3-0.2,0.4-0.4c-0.1,0.1-0.2,0.2-0.3,0.3c0.6-0.1,1.1-0.2,1.7-0.5
		c1.5-0.7,2.6-2.2,3.3-4c0.6,0.8,1.3,1.6,2.1,2.1c0.5-1,1-2.1,1.5-3.1C44.8,29,44.6,28.6,44.3,28.3z"/>
	<path fill="#FECE53" d="M83,28.6c-0.1-0.1-0.1-0.2-0.2-0.2c-2.6,2.5-6.5,2.6-9.7,0.9c1.7-1.1,3.2-2.2,4.8-3.5
		c1-0.8,2.2-1.7,3.2-2.7c0-0.2-0.1-0.4-0.1-0.6c-0.2-1.1-0.3-2.2-0.7-3.2c-0.7-2-3.3-2.9-4.3-2.8c0,0,0,0,0,0c0-0.2-0.1-0.5-0.1-0.7
		c0-0.5-0.1-1-0.1-1.5c-2.3,0.5-4.5,1.9-5.9,3.5c-2.5,2.9-3.5,7.1-2,10.6c-0.4,0.2-0.8,0.4-1.2,0.6c-0.4,0.2-0.8,0.4-1.3,0.6
		c0.1,1,0.3,1.9,0.5,2.9c0,0.2,0.1,0.4,0.1,0.6c1.3-0.5,2.6-1.1,3.9-1.8c1.6,1.4,3.9,2.2,5.9,2.5c3.4,0.5,6.4-0.4,8.8-2.4
		c-0.1-0.7-0.4-1.3-1-1.9C83.4,29.2,83.2,28.9,83,28.6z M70.9,22.7c0.8-2.6,3.3-4.8,6.1-5.1c1.2-0.1,3.5,0.3,2.7,2
		c-0.3,0.6-1,1.1-1.5,1.6c-0.7,0.7-1.5,1.3-2.3,2c-1.6,1.4-3.3,2.6-5,3.6C70.4,25.4,70.5,24,70.9,22.7z"/>
	<path fill="#FECE53" d="M24.4,32.4c-0.9-2.3-1.7-4.6-2.6-6.9c-0.4-0.2-0.8-0.4-1.2-0.6c-0.2,0.1-0.5,0.1-0.8-0.1
		c-0.8-0.5-1.6-1-2.4-1.5c0.1,0.3,0.2,0.5,0.3,0.8c-1.4,0-2.8,0.1-4.2,0.1c-1.1,1-2.1,2.2-2.8,3.4c2.8,0,5.5-0.1,8.3-0.2
		c0.7,1.9,1.4,3.8,2.1,5.8c0.2,0.5,0.5,0.8,0.9,1c0.9-0.4,1.7-0.8,2.5-1.2C24.5,32.9,24.5,32.7,24.4,32.4z"/>
	<path fill="#FECE53" d="M33.9,9.2c0.5-0.3,1-0.4,1.5-0.4c0-0.6,0.1-1.3,0.1-1.9c0.1-0.7,0.1-1.4,0.1-2.2C35,5.4,34.5,6.5,34,7.5
		C34,8.1,34,8.7,33.9,9.2z"/>
	<path fill="#FECE53" d="M32.2,20.3C32.1,20.3,32.1,20.3,32.2,20.3c0,0-0.1,0-0.1-0.1C32.1,20.3,32.1,20.3,32.2,20.3z"/>
	<path fill="#FECE53" d="M27.8,28.2c0.1,0.4,0.3,0.8,0.5,1.2c-0.2,0.5-0.3,1-0.5,1.5c0.7-0.6,1.4-1.2,2.1-1.8
		C29.2,28.8,28.5,28.5,27.8,28.2z"/>
	<path fill="#FECE53" d="M33,14.7c0,0.2-0.1,0.3-0.1,0.5c-0.1,0.3-0.1,0.5-0.2,0.8c0.5,2,1,4,1.7,6c0.2-0.7,0.4-1.3,0.6-2
		c-0.5-1.7-0.9-3.4-1.4-5.1C33.4,14.8,33.2,14.8,33,14.7z"/>
	<path fill="#FECE53" d="M32.3,22.6c-0.5-0.1-1-0.2-1.6-0.4c-0.2,0.5-0.4,1-0.5,1.6c-0.1-0.6-0.2-1.2-0.3-1.7
		c-0.5-0.1-1-0.2-1.5-0.3c0,0-0.1,0-0.1,0c-0.1,0-0.3,0-0.4,0c-0.4,0.7-0.7,1.4-1.1,1.9c1.6,1.2,3.3,2.4,4.8,3.6
		c0.5-0.6,1-1.2,1.5-1.8c0.1-0.2,0.1-0.4,0.2-0.6c-0.3-0.7-0.5-1.5-0.7-2.4C32.5,22.6,32.4,22.6,32.3,22.6z"/>
	<path fill="#FECE53" d="M117.2,24.3c0-0.1,0-0.3,0-0.4c-0.6-0.5-1.5-1.4-2.5-2.2C115.5,22.7,116.3,23.6,117.2,24.3z"/>
	<path fill="#FECE53" d="M114,29.7C114,29.7,114,29.7,114,29.7c1.2,0.8,2.2,1.5,3.4,1.9c0-1.9-0.1-3.7-0.1-5.6
		c-1.2-0.7-2.2-1.6-3.5-2.1C113.9,25.8,113.9,27.8,114,29.7z"/>
	<path fill="#FECE53" d="M135.3,14.4c0-0.4-0.1-0.9-0.1-1.3c-0.9,0-1.8,0.1-2.7,0.1c-0.2,0.4-0.4,0.8-0.6,1.3
		c0.6,0.2,1.1,0.3,1.6,0.5C134.2,14.8,134.8,14.6,135.3,14.4z"/>
	<path fill="#FECE53" d="M140.5,7.8c0-0.1,0-0.3,0-0.4c-0.1-1.2-0.1-2.5-0.2-3.7c-0.1-1.5-2.4-2.5-3.2-0.9c-0.6,1.5-1.3,2.9-1.9,4.4
		C136.9,7.1,138.7,7.3,140.5,7.8z"/>
	<path fill="#FECE53" d="M186.9,5c0.1,0.3,0.2,0.6,0.3,0.9c0,0.3,0.1,0.6,0.1,0.8c0.9-1.2,1.7-2.4,2.6-3.4c-0.1-0.2-0.2-0.3-0.3-0.5
		C188.5,3.3,187.6,4,186.9,5z"/>
	<path fill="#FECE53" d="M199.2,13.8c-1.2,0.2-2.4,0.6-3.5,1.3c0.9,0.1,1.7,0.2,2.5,0.2C198.5,14.8,198.8,14.3,199.2,13.8z"/>
	<path fill="#FECE53" d="M169.8,31c0.2,0.4,0.4,0.7,0.6,1c0,0,0.1,0.1,0.1,0.1c0.3-0.2,0.6-0.5,0.9-0.7
		C170.9,31.3,170.3,31.2,169.8,31z"/>
	<path fill="#FECE53" d="M174.5,13.7c0.6,0.3,1.1,0.8,1.4,1.2c0.3-0.1,0.5-0.2,0.8-0.2c0.2-0.9,0.3-1.7,0.5-2.6
		c0.1-0.4,0.1-0.8,0.2-1.3C176.2,11.5,175.2,12.5,174.5,13.7z"/>
	<path fill="#FECE53" d="M200.8,23.4c2,0.8,4.1,1,6.2,0.8c0.2-1.1-0.3-2.2-1.8-2.4c-0.4-0.1-0.8-0.1-1.2-0.2
		c-0.2,0.1-0.4,0.2-0.6,0.3C202.5,22.4,201.6,22.9,200.8,23.4z"/>
	<path fill="#FECE53" d="M196.1,18.6c-0.9-0.6-1.7-1.2-2.4-2c-1.2,1.2-2.1,2.8-2.6,4.5c0.8,0.7,1.7,1.4,2.6,1.9
		C194.4,21.6,195.2,20.1,196.1,18.6z"/>
	<path fill="#FECE53" d="M163.1,29.7c0.2,0.5,0.4,1,0.8,1.4c0.6-0.6,1-1.4,1.5-2.1c-0.2-0.1-0.3-0.2-0.5-0.3
		C164.3,29,163.7,29.3,163.1,29.7z"/>
	<path fill="#FECE53" d="M188.1,17.7c0.1,0.1,0.1,0.2,0.2,0.3c0-0.1,0.1-0.1,0.1-0.2c0.5-1.2,0.9-2.5,1.3-3.8
		c-1,0.3-2.1,0.7-3.1,1.1C187,16,187.5,16.9,188.1,17.7z"/>
	<path fill="#FECE53" d="M163,27.4c-0.1-0.1-0.2-0.1-0.3-0.2c0,0.1,0,0.2,0,0.3C162.8,27.5,162.9,27.5,163,27.4z"/>
	<path fill="#FECE53" d="M180.9,9c0.1,0.9,0.1,1.8,0,2.7c-0.1,0.6-0.2,1.2-0.3,1.8c0.9-0.2,1.7-0.9,2.6-1.7c0-1.1,0.1-2.2,0.3-3.3
		C182.6,8.6,181.8,8.7,180.9,9z"/>
	<path fill="#FF9292" d="M140.3,31.8c0.1,0,0.2,0,0.4-0.1c0.1-1.6,0.4-3.4,0.8-5c-0.1-1.1-0.1-2.2-0.2-3.2c-0.8,2.1-1.7,4.2-3.1,6
		c0.1,1.2,0.1,2.4,0.2,3.5c0.5,0,1.1-0.3,1.5-0.7C140,32.1,140.2,32,140.3,31.8z"/>
	<path fill="#FF9292" d="M140.8,12.9C140.8,12.9,140.8,12.9,140.8,12.9c-1.1,1-2.2,2.2-3.2,3.4c0,0.1,0,0.2,0,0.3
		c0.1,0,0.2,0.1,0.3,0.2C138.8,15.5,139.8,14.2,140.8,12.9z"/>
	<path fill="#FF9292" d="M170.9,11.3c0-0.2,0-0.5,0-0.7c-0.5-0.9-1.2-1.7-2.4-1.9c-0.1,0-0.2,0-0.3,0c-0.2,0.4-0.4,0.7-0.6,1.1
		c0,0.5-0.1,1.1-0.1,1.6c0.7,0.4,1.6,0.7,2.4,0.9C170.2,11.9,170.5,11.6,170.9,11.3z"/>
	<path fill="#FF9292" d="M151.3,17.3c0.5-0.4,0.8-0.9,0.9-1.6c0.1-0.7,0.1-1.2,0-1.6c-1.7,0.6-3.2,1.7-4.3,3.3
		C149,16.9,150.2,16.9,151.3,17.3z"/>
	<path fill="#FF9292" d="M189.7,33.4c0.6-2,1.1-4,1.9-5.8c0.1-0.2,0.2-0.4,0.3-0.6c-0.3-0.7-0.6-1.3-1.1-1.8
		c0.1,0.7,0.2,1.5,0.5,2.2c0,0.5,0,1-0.4,1.6c-0.6,0.9-1.4,1.6-2.3,2.1c-0.4,0.2-0.8,0.3-1.2,0.4c0,0.3-0.1,0.6-0.1,0.9
		C188.1,32.7,188.9,33,189.7,33.4z"/>
	<path fill="#FF9292" d="M184.5,26.6c0.7-1.5,1.4-3,2.1-4.5c-2.1-0.8-4.4-1.1-6.7-1.5c0,1,0.1,1.9,0.1,2.9c0,0.6,0.1,1.3,0.1,2
		c1.3,0.2,2.5,0.4,3.7,0.8C184,26.5,184.2,26.5,184.5,26.6z"/>
	<path fill="#FF9292" d="M154.2,23.3c0.1,0.1,0.2,0.2,0.3,0.2c0.6-0.5,1.3-1.1,2-1.6c-0.8-1-1.4-2.1-1.7-3.3
		c-0.3,0.6-0.6,1.2-0.9,1.8C154,21.4,154.2,22.4,154.2,23.3z"/>
	<path fill="#FF9292" d="M135.3,14.4c0,0,0,0.1,0,0.1c0.2-0.2,0.4-0.5,0.6-0.7c0.1-0.3,0.2-0.5,0.3-0.8c-0.4,0-0.7,0-1.1,0.1
		C135.3,13.5,135.3,13.9,135.3,14.4z"/>
	<path fill="#FF9292" d="M16.3,9.8c-0.3-1-0.7-2.1-1-3.1c-1,0.7-2,1.4-3,2.2C13.6,9.1,15,9.4,16.3,9.8z"/>
	<path fill="#FF9292" d="M32.2,4c0.2,0,0.4,0,0.6,0.1c1-0.2,2.1-0.4,3.1-0.4c0,0.3,0,0.6-0.1,1c0,0.7-0.1,1.5-0.1,2.2
		c0,0.6-0.1,1.3-0.1,1.9c-0.5,0-1.1,0.1-1.5,0.4c-0.1,1.8-0.5,3.7-1,5.5c0.2,0.1,0.4,0.1,0.6,0.2c0.5,1.7,0.9,3.4,1.4,5.1
		c0.5-1.5,0.9-2.9,1.3-4.4c1-4.3,3.2-14.2-3.7-14.8c-1-0.1-1.8,0-2.6,0.3c0.3,1.2,0.5,2.4,0.7,3.6C31.1,4.2,31.5,4,32.2,4z"/>
	<path fill="#FF9292" d="M54.1,25.7C54.1,25.7,54.1,25.7,54.1,25.7c0.3,0,0.6,0,0.9,0.1c0-0.2,0-0.4,0-0.6c0-0.1,0-0.1,0-0.2
		C54.7,25.2,54.4,25.4,54.1,25.7z"/>
	<path fill="#FF9292" d="M61.8,18.4c0.5,0.2,1,0.5,1.5,1c1.5,1.5,3.4-0.4,2.7-2.1c-0.3-0.7-0.8-1.2-1.4-1.6c0,0,0,0-0.1,0.1
		C63.7,16.8,62.8,17.6,61.8,18.4z"/>
	<path fill="#FF9292" d="M43.2,25.1c-0.1-2.7-0.3-5.5-0.4-8.2c-0.1-2.2-3.4-2.2-3.4,0c0,1.2,0,2.5-0.1,3.7c0,0.1,0,0.2,0,0.3
		c0,1,0,1.9-0.1,2.9c0,0.6,0,1.1,0,1.7c0,0.1,0,0.3,0,0.5c0,0,0.1,0,0.1,0C40.7,25.8,42.2,25.4,43.2,25.1z"/>
	<path fill="#FF9292" d="M41,8.2c-2,0-2,3.4,0,3.4S43,8.2,41,8.2z"/>
	<path fill="#FF9292" d="M218.2,17.8c-0.4,0.1-0.8,0.1-1.2,0.2c-0.9,0.4-1.3,1.3-1.3,2.2c0.3-0.3,0.6-0.6,0.9-0.9c0,0.7,0,1.4,0,2.1
		c0,0.2,0,0.3,0,0.5c0.8-1.3,1.6-2.7,2.4-4C218.7,17.8,218.5,17.8,218.2,17.8z"/>
	<path fill="#FF9292" d="M220,31.5C220,31.5,220,31.5,220,31.5c0-0.9,0-1.8,0-2.7c-0.7,0.6-1.5,1.1-2.3,1.6
		C218.3,30.9,219.1,31.2,220,31.5z"/>
	<path fill="#FF9292" d="M217.5,30.6c-0.3,0.2-0.6,0.4-0.9,0.6c0,0.6,0,1.3,0,1.9c0,0.9,0.6,1.4,1.3,1.6
		C219.5,33.6,219.3,31.4,217.5,30.6z"/>
	<path fill="#FF9292" d="M229.9,13.8c-0.2-0.1-0.5-0.2-0.8-0.3c-1.1-0.3-2.3-0.5-3.5-0.4c0,0.5-0.1,1.1-0.1,1.6
		C227,14.5,228.5,14.2,229.9,13.8z"/>
	<path fill="#333232" d="M134.7,15.3c-0.3-0.1-0.7-0.3-1-0.4c-0.5-0.2-1.1-0.4-1.6-0.5c-0.8,1.9-1.7,3.9-2.5,5.8
		c0.4,0.3,0.9,0.7,1.3,1.1C131.9,19.2,133.2,17.2,134.7,15.3z"/>
	<path fill="#333232" d="M113.6,13C113.6,13,113.6,13,113.6,13c0.1,0,0,0.2,0,0.2c0.1,2.5,0.1,5.1,0.2,7.7c0.3,0.2,0.7,0.6,1,0.9
		c0.9,0.8,1.8,1.7,2.5,2.2c0-1.5-0.1-3-0.1-4.5c-0.3-0.4-0.6-0.9-0.9-1.3c-0.5-0.9,0-1.7,0.8-2c0-0.1,0-0.1,0-0.2
		c-1.2-1-2.3-2.2-3.5-3.2C113.5,12.8,113.5,13,113.6,13z"/>
	<path fill="#333232" d="M158.1,30.9c-1,0.3-2.1,0.3-3.3,0c-0.5-0.1-0.9-0.3-1.3-0.5c-0.2,1.1-0.4,2.3-0.6,3.4
		c0.9,0.3,1.8,0.5,2.7,0.6c1-0.6,1.9-1.2,2.9-1.9C158.3,32,158.2,31.5,158.1,30.9z"/>
	<path fill="#333232" d="M207,24.2c0.3,0,0.7-0.1,1-0.2c0,0.7-0.1,1.3-0.3,1.9c0.3-0.2,0.6-0.4,1-0.5c1-0.3,1.9-0.2,2.6,0.1
		c0.1-0.7,0.1-1.5,0.1-2.2C210,23,208.5,23.2,207,24.2z"/>
	<path fill="#333232" d="M160.1,25.3c0,0.1,0.1,0.4,0.2,0.6c0.3,0,0.5,0.1,0.8,0.1C160.7,25.8,160.4,25.5,160.1,25.3z"/>
	<path fill="#333232" d="M197.2,29.7c-0.8,0.5-1.5,1-2.2,1.4c-0.1,0.4-0.1,0.8-0.2,1.2c0.1,0.1,0.2,0.2,0.3,0.3
		c1.7,1.1,3.7,1.7,5.7,1.7c1.2-1.2,2.2-2.7,3.2-4C201.7,31.3,199.1,31,197.2,29.7z"/>
	<path fill="#333232" d="M170.1,2.5c2.5-0.6,5.7,0.7,7.5,3.2c-0.2-1.9-0.9-3.7-2.7-4.6c-2-1.1-3.6-0.4-4.8,0.9
		C170.1,2.1,170.1,2.3,170.1,2.5z"/>
	<path fill="#333232" d="M174,10.2c-0.1,0.7-0.2,1.5-0.3,2.3c1.3-1,2.6-2,3.9-3.1c0.1-1,0.2-2,0.2-2.9c-1.3,0.6-2.4,1.3-3.6,2.1
		C174.1,9.4,174,10,174,10.2z"/>
	<path fill="#333232" d="M183.2,15.3c0-1.2,0-2.4,0-3.5c-0.9,0.9-1.7,1.5-2.6,1.7c0.1-0.6,0.3-1.2,0.3-1.8c0.1-0.9,0.1-1.8,0-2.7
		c-0.1-0.9-0.3-1.7-0.6-2.5c-0.5,2.1-0.6,4.4-0.6,6.6c0,1.6,0,3.1,0.1,4.7c1.1-0.5,2.3-1,3.4-1.4C183.2,16,183.2,15.6,183.2,15.3z"
		/>
	<path fill="#333232" d="M162.1,27.9c-0.1,0.2-0.2,0.3-0.3,0.5c0.3,0.5,0.7,1,1,1.5c0.1-0.1,0.2-0.1,0.4-0.2c0.6-0.3,1.1-0.7,1.7-1
		c-0.6-0.4-1.3-0.8-1.9-1.2c-0.1,0-0.2,0.1-0.3,0.1C162.5,27.7,162.3,27.8,162.1,27.9z"/>
	<path fill="#333232" d="M140.6,9.3c0-0.5-0.1-1-0.1-1.5c-1.8-0.4-3.6-0.6-5.3-0.6c-0.9,2-1.7,4-2.6,6c0.9,0,1.8-0.1,2.7-0.1
		c0.4,0,0.7,0,1.1-0.1c0.3-0.7,0.6-1.4,0.9-2.1c0,0.5,0,1,0.1,1.4C138.3,11.2,139.4,10.2,140.6,9.3z"/>
	<path fill="#333232" d="M176.3,16.2c0.1-0.5,0.2-1,0.4-1.5c-0.3,0.1-0.5,0.2-0.8,0.2C176.1,15.3,176.2,15.7,176.3,16.2z"/>
	<path fill="#333232" d="M185.6,15.4c0.3-0.1,0.7-0.2,1-0.4c1-0.4,2.1-0.7,3.1-1.1c1-3.2,1.5-6.6,0.6-9.7c-0.1-0.3-0.2-0.6-0.4-0.9
		c-0.9,1-1.7,2.2-2.6,3.4C187.5,9.6,186.6,12.6,185.6,15.4z"/>
	<path fill="#333232" d="M137.5,16.6c0,0.2,0,0.4,0,0.5c0.1-0.1,0.2-0.3,0.3-0.4C137.8,16.7,137.7,16.7,137.5,16.6z"/>
	<path fill="#333232" d="M155.5,24.3c0.6,0.4,1.3,0.7,2,0.9c0-0.6,0.1-1.2,0.2-1.8c-0.5-0.5-1-1-1.4-1.5c-0.7,0.5-1.3,1.1-2,1.6
		C154.8,23.9,155.1,24.1,155.5,24.3z"/>
	<path fill="#333232" d="M152.1,15.7c-0.1,0.6-0.4,1.1-0.9,1.6c0.3,0.1,0.7,0.3,1,0.6c0.1-0.1,0.3-0.2,0.4-0.3
		c-0.1,0.2-0.1,0.3-0.2,0.5c0.3,0.3,0.5,0.5,0.7,0.9c0.4-0.3,0.8-0.6,1.1-0.9c0.1-0.1,0.1-0.1,0.2-0.2c-0.3-1.4-0.4-2.8-0.2-4.3
		c-0.7,0.1-1.4,0.3-2.1,0.6C152.3,14.5,152.3,15,152.1,15.7z"/>
	<path fill="#333232" d="M187.3,32.3c-2.6-1.3-5-2.7-7.4-4.4c-0.7,1.3-1.4,2.5-2.6,3.2c0,0-0.1,0-0.1,0c0.6,1,1.2,1.9,1.8,2.9
		c0.9-0.5,1.7-1.2,2.4-2c1.2,1.9,3.4,3,5.7,2.9c0.8,0,1.6-0.3,2.4-0.6c0.1-0.3,0.2-0.5,0.2-0.8C188.9,33,188.1,32.7,187.3,32.3z"/>
	<path fill="#333232" d="M170.9,11.3c-0.3,0.3-0.7,0.6-1,1c0.3,0.1,0.6,0.2,1,0.2c0-0.3,0-0.7,0-1C170.9,11.4,170.9,11.3,170.9,11.3
		z"/>
	<path fill="#333232" d="M172.9,20.8c0.3,0.3,0.6,0.6,0.9,0.9c0.5-0.7,1-1.4,1.4-2.2C174.5,20.1,173.7,20.6,172.9,20.8z"/>
	<path fill="#333232" d="M12.5,9.3c1.6,4.7,3.2,9.4,4.9,14.1c0.8,0.5,1.6,1,2.4,1.5c0.3,0.2,0.6,0.2,0.8,0.1
		c0.4,0.2,0.8,0.4,1.2,0.6c-1.9-5.2-3.8-10.5-5.5-15.7c-1.3-0.4-2.7-0.7-4-0.9c-1-0.2-2.1-0.3-3.1-0.3c-1,2.9-2,5.8-3,8.7
		c1,0.5,2,1,3.1,1.5C10.3,15.6,11.4,12.5,12.5,9.3z"/>
	<path fill="#333232" d="M31.8,29.7c0.3,0.1,0.5,0.1,0.7,0c-0.2-0.2-0.3-0.4-0.5-0.7c0.1-0.4,0.3-0.8,0.4-1.3
		c-0.2-0.2-0.5-0.4-0.7-0.5c-1.6-1.2-3.2-2.4-4.8-3.6c0,0,0,0.1,0,0.1c0.1,0.6,0.2,1.1,0.3,1.7c0.2,0.9,0.4,1.9,0.7,2.8
		c0.7,0.3,1.4,0.6,2.1,0.8C30.5,29.3,31.1,29.5,31.8,29.7z"/>
	<path fill="#333232" d="M28.4,21.7c0.5,0.1,1,0.2,1.5,0.3c-0.2-1.2-0.3-2.4-0.4-3.6c-0.4,0.9-1,2.2-1.6,3.3c0.1,0,0.3,0,0.4,0
		C28.3,21.7,28.4,21.7,28.4,21.7z"/>
	<path fill="#333232" d="M32.3,22.6c0.1,0,0.3,0,0.4,0c0-0.2-0.1-0.4-0.1-0.6c-0.1-0.5-0.3-1.1-0.4-1.6c0,0-0.1,0-0.1-0.1
		c0,0,0.1,0,0.1,0c-0.1-0.5-0.2-1-0.3-1.4c-0.4,1.1-0.7,2.3-1.1,3.4C31.2,22.4,31.7,22.5,32.3,22.6z"/>
	<path fill="#779FFF" d="M170.1,2.5c0-0.2,0-0.4,0-0.6c-1.4,1.5-2.2,4-2.4,5.8c-0.1,0.6-0.1,1.3-0.2,1.9c0.2-0.4,0.4-0.7,0.6-1.1
		C169.3,6.6,170.1,4.6,170.1,2.5z"/>
	<path fill="#779FFF" d="M195.9,28.6c-0.5-0.6-0.9-1.2-1.2-1.9c-0.2-1.4-0.7-2.8-0.4-4.3c0.3-1.5,1.6-3.1,3.1-4.2
		c-0.2,2.1,1.2,4.3,3.3,5.1c0,0,0.1,0,0.1,0c0.8-0.5,1.7-1.1,2.6-1.5c0.2-0.1,0.4-0.2,0.6-0.3c0.6-0.3,1.2-0.5,1.8-0.8
		c-1.4,0-4.9-0.1-5-2.1c0-1.4,1.6-1.4,3-0.9c0.3,0.1,0.5,0.2,0.8,0.3c0.5,0.2,0.9,0.4,1.1,0.6c0.5,0.5,1,1,1.3,1.6
		c1.1-0.4,2.2-0.7,3.3-1c-0.5-1.1-1.2-2.2-2.2-3c0,0,0,0-0.1-0.1c-0.5,0.1-1.1,0.3-1.7,0.6c-1.7,0.7-2-0.9-2-2.6
		c-1.7-0.5-3.4-0.7-5.1-0.5c-0.3,0.5-0.7,1-1,1.5c-0.7,1.1-1.5,2.2-2.1,3.4c-0.8,1.4-1.6,2.9-2.4,4.4c-0.7,1.3-1.3,2.6-1.8,3.9
		c-0.1,0.2-0.2,0.4-0.3,0.6c-0.8,1.8-1.3,3.8-1.9,5.8c-0.1,0.3-0.2,0.5-0.2,0.8c1.6-0.6,2.9-1.8,3.9-3.1c0.4,0.5,0.9,0.9,1.4,1.3
		c0-0.4,0.1-0.8,0.2-1.2C195.2,30.3,195.5,29.4,195.9,28.6z"/>
	<path fill="#779FFF" d="M173.8,31.5c0.3,0,0.6-0.1,0.8-0.1c-0.4-0.2-0.8-0.5-1.2-1c-0.7-1-0.8-1.4-1.1-2.5
		c-0.4-1.4-0.6-2.7-0.7-4.1c0.9-0.6,1.6-1.3,2.2-2.1c-0.3-0.3-0.6-0.6-0.9-0.9c0.9-0.2,1.6-0.7,2.2-1.3c0.5-1,0.9-2.2,1.2-3.3
		c-0.1-0.4-0.2-0.9-0.4-1.3c-0.3-0.5-0.8-0.9-1.4-1.2c-0.1,0-0.1-0.1-0.2-0.1c-0.2-0.1-0.5-0.2-0.7-0.3c-0.4,2.4-1,4.9-2.5,6.6
		c-0.2-2.4-0.2-4.9-0.2-7.3c-0.3-0.1-0.6-0.2-1-0.2c-0.9-0.2-1.7-0.5-2.4-0.9c-0.2,3-0.1,6.1,0.2,9c0.1,0.5,0.1,1,0.2,1.5
		c-0.3,0.1-0.7,0.2-1.1,0.3c-0.5-4.2-3.7-8.6-8.2-8.6c-1.5-0.3-2.9-0.3-4.3-0.1c-0.1,1.5-0.1,2.9,0.2,4.3c0.1,0.3,0.1,0.6,0.2,0.8
		c0.4,1.2,0.9,2.3,1.7,3.3c0.4,0.5,0.8,1,1.4,1.5c-0.1,0.6-0.2,1.2-0.2,1.8c0.9,0.3,1.8,0.5,2.7,0.6c-0.1-0.3-0.2-0.5-0.2-0.6
		c0.3,0.2,0.6,0.5,0.9,0.7c0.7,0.1,1.3,0.1,2,0.1c-0.1,0.2-0.2,0.4-0.2,0.6c-0.1,0.1-0.1,0.3-0.2,0.4c0.1,0,0.1,0.1,0.2,0.1
		c0.1,0.1,0.2,0.1,0.3,0.2c0.6,0.4,1.3,0.8,1.9,1.2c0.2,0.1,0.3,0.2,0.5,0.3c0.5-1,1-2.1,1.2-3.3c0.6-0.1,1.2-0.3,1.7-0.4
		c0.1,0.8,0.3,1.6,0.4,2.3c0.2,1.2,0.6,2.3,1.1,3.4c0.5,0.2,1,0.3,1.6,0.4C172.2,31.5,173,31.6,173.8,31.5z M155.7,19
		c0.3-2.2,3.1-2.3,4.6-1.4c1.9,1.1,2.8,3,3,5.1c-1.4,0-2.8-0.1-4-0.4C157.9,21.9,155.5,20.9,155.7,19z"/>
	<path fill="#779FFF" d="M235.4,23.9c-0.2-2.1-0.4-4.6-1.4-6.5c-0.8-1.7-2.4-3-4.1-3.7c-1.4,0.4-2.8,0.7-4.3,0.9
		c-0.6,0.1-1.3,0.2-1.9,0.3c0.4-0.6,0.8-1.2,1.2-1.8c-1.2,0.1-2.4,0.5-3.4,1c-0.2,0.4-0.5,0.8-0.7,1.2c-1.2,0.1-2.3,0.3-3.4,0.5
		c-0.8,0.1-1.5,0.2-2.2,0.2c-0.9,1.2-2.1,2.2-3.4,3c1.7-0.4,3.5-0.8,5.3-1.1c0.4-0.1,0.8-0.1,1.2-0.2c0.3-0.1,0.7-0.1,1-0.2
		c-0.1,0.1-0.1,0.2-0.2,0.3c-0.8,1.3-1.6,2.7-2.4,4c0,1.1,0,2.2,0,3.3c0,2,0,4,0.1,6c0.3-0.2,0.6-0.4,0.9-0.6c0.1,0,0.1-0.1,0.2-0.1
		c0.8-0.5,1.5-1.1,2.3-1.6c0-2.5,0-5-0.1-7.5v0c0.1-3.3,3.4-4.8,6.4-4.8c1.7,0,3.7,0.7,4.6,2.4c0.8,1.5,0.9,3.6,1.1,5.3
		c0.1,1.1,0.1,2.3,0.2,3.4c1.2,1.1,2.4,2.1,3.4,2.8C235.6,28.2,235.5,26.1,235.4,23.9z"/>
	<path fill="#779FFF" d="M161.8,28.4c-1,1.2-2.2,2.1-3.7,2.5c0.1,0.6,0.3,1.1,0.4,1.7c0.2,0.5,0.3,1.1,0.5,1.6
		c0.2-0.1,0.4-0.1,0.7-0.2c1.6-0.6,3-1.5,4.1-2.8c-0.3-0.5-0.7-0.9-1-1.4C162.4,29.4,162.1,28.9,161.8,28.4z"/>
	<path fill="#779FFF" d="M140.8,12.9c-0.1-1.2-0.1-2.4-0.2-3.6c-1.1,1-2.2,2-3.2,3c0.1,1.3,0.1,2.7,0.2,4
		C138.5,15.1,139.6,13.9,140.8,12.9z"/>
	<path fill="#779FFF" d="M140.8,12.9c-1,1.3-1.9,2.6-2.9,3.9c-0.1,0.1-0.2,0.3-0.3,0.4c0.2,4.1,0.4,8.1,0.6,12.2c0,0.1,0,0.1,0,0.2
		c1.4-1.7,2.3-3.8,3.1-6C141.1,20,140.9,16.4,140.8,12.9z"/>
	<path fill="#779FFF" d="M135.3,14.5c-0.2,0.3-0.4,0.6-0.7,0.8c-1.5,1.9-2.8,3.9-3.9,6c-0.1,0.2-0.2,0.4-0.3,0.6
		c-0.3-0.5-0.7-1-1.1-1.6c-0.6,1.4-1.2,2.8-1.9,4.3c0,0,0,0.1-0.1,0.1c-2.8-5.3-5.6-10.6-8.3-15.9c-1.8-1.4-3.7-2.6-5.8-3.6
		c0.1,2.5,0.1,5,0.2,7.5c1.1,1,2.3,2.1,3.5,3.1c0-1.3-0.1-2.6-0.1-4c2.6,4.9,5.1,9.8,7.7,14.6c0.5,1,1.1,2,1.6,3
		c0.5,1,2.4,1.2,2.9,0c2.3-5.3,4.6-10.5,6.9-15.8C135.8,14,135.6,14.3,135.3,14.5z"/>
	<path fill="#779FFF" d="M116.2,18.1c0.3,0.5,0.6,0.9,0.9,1.3c0-1.1-0.1-2.2-0.1-3.3C116.2,16.3,115.7,17.2,116.2,18.1z"/>
	<path fill="#779FFF" d="M51.9,26.9c0.8-0.3,1.6-0.7,2.2-1.2c0.3-0.2,0.6-0.5,0.9-0.7c0-0.1,0-0.1,0-0.2c-0.1,0.7,0.1-0.7,0.1-0.7
		c0.1-0.3,0.1-0.6,0.2-0.9c0-0.1,0.1-0.2,0.1-0.3c0.7-1.7,1.8-3.2,3.5-4.1c1-0.6,1.9-0.7,2.7-0.4c0.9-0.9,1.9-1.7,2.8-2.5
		c0,0,0,0,0.1-0.1c-1-0.7-2.4-1-3.6-1.1c-2-0.1-3.8,0.6-5.3,1.8c-1.9,1.6-3.2,3.9-3.7,6.4c-0.1,0.4-0.2,0.8-0.3,1.2
		c-0.2,0.9-0.3,1.8-0.5,2.7c0.1,0.1,0.2,0.1,0.3,0.1C51.5,27,51.7,27,51.9,26.9z"/>
	<path fill="#779FFF" d="M44.3,28.3c-0.4-0.6-0.7-1.2-0.9-1.9c-1.5,0.2-3,0.2-4.3-0.1c0,0.2-0.1,0.4-0.1,0.5c-0.1,0.5-0.3,1-0.4,1.5
		C40.4,28.5,42.4,28.5,44.3,28.3z"/>
	<path fill="#779FFF" d="M27.9,21.8c0.6-1.2,1.2-2.4,1.6-3.3c0-0.2,0-0.5-0.1-0.7c-0.3-3.1-0.5-6.3,0-9.4c0.2-1.2,0.4-2.5,1.1-3.4
		c0.1-0.1,0.2-0.2,0.3-0.3C30.5,3.4,30.3,2.2,30,1c-4.9,1.9-4.4,11.2-4.1,15.3c0.2,2.5,0.4,5,0.8,7.5c0,0,0-0.1,0-0.1
		C27.1,23.1,27.5,22.5,27.9,21.8z"/>
	<path fill="#779FFF" d="M31.8,18.9c0.1,0.5,0.2,1,0.3,1.4c0,0,0,0,0,0c0.1,0.5,0.3,1.1,0.4,1.6c0,0.2,0.1,0.4,0.1,0.6
		c0.2,0.9,0.4,1.7,0.7,2.4c0.3-1,0.7-2,1-3c-0.7-1.9-1.3-4-1.7-6C32.4,16.9,32.1,17.9,31.8,18.9z"/>
	<path fill="#FECE53" d="M141.5,26.7c-0.4,1.7-0.6,3.4-0.8,5c-0.1,1-0.1,2-0.2,2.9c0.7-0.1,1.3-0.7,1.3-1.6
		C141.7,30.9,141.6,28.8,141.5,26.7z"/>
	<path fill="#FECE53" d="M149.1,24.1c0-2.4,1.1-4.9,3.2-6.3c-0.3-0.2-0.6-0.4-1-0.6c-1-0.4-2.2-0.3-3.4,0.1
		c-0.2,0.3-0.4,0.5-0.5,0.8c-2.1,3.4-2.3,8.1,0.1,11.5c1.3,1.9,3.3,3.4,5.6,4.2c0.1-1.2,0.4-2.3,0.6-3.4
		C150.9,29.3,149.1,27,149.1,24.1z"/>
	<path fill="#FECE53" d="M154.2,23.3c0-1-0.2-1.9-0.4-2.9c-0.1-0.2-0.1-0.4-0.2-0.6c-0.1-0.3-0.2-0.6-0.4-0.9
		c-0.2-0.3-0.4-0.6-0.7-0.9c0,0,0,0,0,0.1C152,20.1,152.8,22,154.2,23.3z"/>
</g>
</svg>
