<?xml version="1.0" encoding="utf-8"?>
<!-- Generator: Adobe Illustrator 21.1.0, SVG Export Plug-In . SVG Version: 6.00 Build 0)  -->
<svg version="1.1" id="Layer_1" xmlns="http://www.w3.org/2000/svg" xmlns:xlink="http://www.w3.org/1999/xlink" x="0px" y="0px"
	 viewBox="0 0 227.7 36" style="enable-background:new 0 0 227.7 36;" xml:space="preserve">
<style type="text/css">
	.st0{fill:#F24E22;}
</style>
<g>
	<path class="st0" d="M14.2,3.6c-0.5-1.6-2.7-1.6-3.3,0C7.5,13.6,4,23.5,0.5,33.4c-0.7,2.1,2.6,3,3.3,0.9c0.8-2.2,1.5-4.4,2.3-6.6
		c4.3,0.1,8.6-0.1,12.9-0.2c0.7,1.9,1.4,3.8,2.1,5.8c0.8,2,4.1,1.1,3.3-0.9C20.8,22.9,17.4,13.3,14.2,3.6z M7.3,24.4
		c1.7-5,3.5-10,5.2-15c1.7,5,3.4,9.9,5.2,14.9C14.3,24.3,10.8,24.4,7.3,24.4z"/>
	<path class="st0" d="M40.6,11.6c2,0,2-3.4,0-3.4S38.6,11.6,40.6,11.6z"/>
	<path class="st0" d="M132.2,7.3c-0.1-1.2-0.1-2.5-0.2-3.7c-0.1-1.5-2.4-2.5-3.2-0.9c-3.2,7.3-6.4,14.6-9.5,21.9c0,0,0,0.1-0.1,0.1
		c-3.1-6-6.3-12-9.4-18c-0.5-1-1.1-2-1.6-3c-0.8-1.5-3.2-0.8-3.2,0.9c0.2,8.4,0.4,16.8,0.6,25.2c0,1.2,0.1,2.4,0.1,3.6
		c0.1,2.2,3.5,2.2,3.4,0c-0.2-7.2-0.4-14.4-0.5-21.5c2.6,4.9,5.1,9.8,7.7,14.6c0.5,1,1.1,2,1.6,3s2.4,1.2,2.9,0
		c2.7-6.2,5.4-12.5,8.1-18.7c0.3,6.1,0.6,12.3,1,18.4c0.1,1.2,0.1,2.5,0.2,3.7c0.1,2.2,3.5,2.2,3.4,0
		C133.1,24.5,132.6,15.9,132.2,7.3z"/>
	<path class="st0" d="M227.1,23.9c-0.2-2.1-0.4-4.6-1.4-6.5s-2.9-3.3-4.9-3.9c-2.9-0.9-6.6-0.4-9.2,1.5c0-0.4,0-0.7,0-1.1
		c0-2-2.6-2.1-3.3-0.5c-1.1,2.7-3.4,5-6,6.3c-0.5-1.3-1.3-2.4-2.3-3.3c-0.3-0.3-0.7-0.6-1.1-0.8c-0.1-0.1-0.2-0.2-0.3-0.2
		c-3.5-2-7.7-2.4-11.2-0.2c-3,1.9-4.8,5.1-4.8,8.6c0,1.2,0.2,2.4,0.5,3.5c0,0.5,0,1-0.4,1.6c-0.6,0.9-1.4,1.6-2.3,2.1
		c-1.7,0.9-3.9,0.5-4.6-1.5c-0.1-0.4-0.2-0.8-0.3-1.2c1.8-3.4,3.4-6.9,4.7-10.5c1.6-4.1,3.3-9.2,1.9-13.5c-0.7-2.2-2.6-3.8-4.9-3.7
		c-1.7,0.1-3.1,1.4-3.9,2.8c-1.5,2.9-1.8,6.5-1.7,9.7c0.1,3.5,0,7,0.2,10.5c0.1,1.2,0.1,2.5,0.2,3.8c-0.7,1.4-1.5,2.9-2.9,3.6
		c-1.5,0.8-2.9,0.7-3.9-0.6c-0.7-1-0.8-1.4-1.1-2.5c-0.4-1.4-0.6-2.7-0.7-4.1c3.8-2.6,4.8-7.2,5.6-11.7c0.5-3.4,1.6-9-2.2-11
		c-4.4-2.3-6.8,3.3-7.2,6.7c-0.5,4.1-0.5,8.5-0.1,12.6c0.1,0.5,0.1,1,0.2,1.5c-0.3,0.1-0.7,0.2-1.1,0.3c-0.5-4.2-3.7-8.6-8.2-8.6
		c-4.4-0.8-8.8,0.5-11.3,4.5c-2.1,3.4-2.3,8.1,0.1,11.5c2.6,3.8,7.9,5.9,12.3,4.3c3.7-1.3,6.1-4.6,6.9-8.3c0.6-0.1,1.2-0.3,1.7-0.4
		c0.1,0.8,0.3,1.6,0.4,2.3c0.3,1.5,0.8,3.1,1.7,4.4c1.2,1.8,3,3.1,5.2,2.9c2.3-0.1,4.3-1.3,5.8-3.1c1.2,1.9,3.4,3,5.7,2.9
		c2.5-0.1,4.9-1.7,6.4-3.7c0.5,0.6,1.1,1.1,1.7,1.5c2.8,1.9,6.5,2.2,9.6,1c3.3-1.3,5.8-4.1,6.3-7.6c0.2-1,0.2-2,0.1-3
		c1.9-0.9,3.7-2.2,5.2-3.7c0,0.7,0,1.4,0,2.1c-0.1,1.2,0,2.5,0,3.7c0,2.6,0.1,5.3,0.1,7.9c0,2.2,3.4,2.2,3.4,0
		c0-3.9-0.1-7.9-0.1-11.8l0,0c0.1-3.3,3.4-4.8,6.4-4.8c1.7,0,3.7,0.7,4.6,2.4c0.8,1.5,0.9,3.6,1.1,5.3c0.2,3,0.2,6,0,9
		c-0.2,2.2,3.2,2.2,3.4,0C227.3,30.1,227.3,27,227.1,23.9z M155.1,22.7c-1.4,0-2.8-0.1-4-0.4c-1.5-0.3-3.9-1.3-3.6-3.2
		c0.3-2.2,3.1-2.3,4.6-1.4C153.9,18.7,154.9,20.6,155.1,22.7z M154.4,26.7c-1.4,3.2-4.5,5-8,4.2c-3.1-0.8-5.7-3.4-5.7-6.8
		c0-2.6,1.3-5.3,3.6-6.6c-0.1,0.2-0.1,0.4-0.2,0.6c-0.6,2.6,0.9,4.9,3,6.2c2.1,1.3,4.8,1.8,7.5,1.7
		C154.6,26.3,154.5,26.5,154.4,26.7z M162.6,11.5c0-1.2,0.1-2.8,0.3-3.8c0.1-0.8,0.6-2.8,1.5-3.5c2.1-1.4,1.5,5.3,1.3,6.1
		c-0.5,3.1-0.8,7.1-3,9.6C162.4,17.1,162.5,14.2,162.6,11.5z M175.5,6.8c0.2-0.9,0.6-2.1,1.3-2.7c1-0.8,1.9,0.7,2.1,1.7
		c0.6,3.5-0.6,7.1-1.8,10.3c-0.6,1.7-1.3,3.4-2.1,5c-0.1-1.9-0.1-3.9-0.1-5.8C174.9,12.4,174.8,9.6,175.5,6.8z M195.5,17.9
		c0.3,0.1,0.5,0.2,0.8,0.3c0.5,0.2,0.9,0.4,1.1,0.6c0.7,0.6,1.2,1.2,1.5,2c-0.5,0.1-1,0.1-1.5,0.2c-1.4,0-5-0.1-5-2.1
		C192.5,17.4,194.1,17.5,195.5,17.9z M196.1,30.1c-3.7,1.9-8.1,0.3-9.7-3.4c-0.2-1.4-0.7-2.8-0.4-4.3s1.6-3.1,3.1-4.2
		c-0.2,2.1,1.2,4.3,3.3,5.1c2.4,1,4.9,1.2,7.3,0.7C199.6,26.5,198.3,29,196.1,30.1z"/>
	<path class="st0" d="M83.7,27.5c-2.6,3.4-7,3.7-10.5,1.8c1.7-1.1,3.2-2.2,4.8-3.5c1.7-1.4,3.9-2.9,4.8-4.9c1-2.2,0.1-4.6-1.8-5.8
		c-3.6-2.2-8.6-0.1-11.1,2.8s-3.5,7.1-2,10.6c-0.4,0.2-0.8,0.4-1.2,0.6c-2.4,1.2-4.3,1.6-7,1.3c-2-0.3-3.9-1.1-4.5-3.1
		C55,26.6,55,26,55,25.3c0-0.1,0-0.3,0-0.4c-0.1,0.7,0.1-0.7,0.1-0.7c0.1-0.3,0.1-0.6,0.2-0.9c0-0.1,0.1-0.2,0.1-0.3
		c0.7-1.7,1.8-3.2,3.5-4.1s3-0.7,4.4,0.6c1.5,1.5,3.4-0.4,2.7-2.1c-0.8-1.9-3.1-2.6-5-2.7c-2-0.1-3.8,0.6-5.3,1.8
		c-1.9,1.6-3.2,3.9-3.7,6.4c-0.1,0.4-0.2,0.8-0.3,1.2c-0.4,1.7-0.4,3.8-1.5,5.3c-1,1.3-2.9,1.3-4.2,0.4c-1.4-0.9-2.2-2.6-2.6-4.1
		c0,0,0,0,0-0.1c-0.2-2.9-0.3-5.8-0.5-8.7c-0.1-2.2-3.4-2.2-3.4,0c0,1.2,0,2.5-0.1,3.7c0,0.1,0,0.2,0,0.3c0,1,0,1.9-0.1,2.9
		c0,0.6,0,1.1,0,1.7c0,0.1,0,0.3,0,0.5c-0.1,0.2-0.2,0.7-0.2,0.9c-0.2,0.8-0.4,1.5-0.7,2.3c-0.7,1.7-1.8,2.7-3.8,2.1
		c-1.1-0.4-1.9-1.1-2.5-2.1c1.5-4.5,3.2-8.9,4.3-13.5c1-4.3,3.2-14.2-3.7-14.8c-7.6-0.8-7,10.9-6.7,15.6c0.2,3,0.6,6.1,1.1,9.1
		c0.3,1.3,0.6,2.7,1.2,4c-0.4,1.1-0.7,2.3-1.1,3.4c-0.6,2.1,2.7,3,3.3,0.9c0.1-0.3,0.2-0.6,0.3-0.9l0.1,0.1c2,1.7,4.9,2.4,7.4,1.3
		c1.5-0.7,2.6-2.2,3.3-4c2,2.9,5.8,4.7,9.2,2.9c1.2-0.6,2-1.5,2.5-2.5c0.6,0.7,1.3,1.4,2.1,1.8c3,1.7,7.4,1.9,10.6,0.6
		c1.3-0.5,2.6-1.1,3.9-1.8c1.6,1.4,3.9,2.2,5.9,2.5c4.4,0.7,8.2-1,10.8-4.5C87.9,27.5,85,25.8,83.7,27.5z M29.4,17.7
		c-0.3-3.1-0.5-6.3,0-9.4c0.2-1.2,0.4-2.5,1.1-3.4C31,4.2,31.3,4,32.2,4c0.6,0,1,0.3,1.2,0.5C33.8,5.2,33.9,6.1,34,7
		c0.2,2.8-0.5,5.6-1.1,8.2c-0.7,2.9-1.7,5.8-2.7,8.6C29.8,21.8,29.6,19.8,29.4,17.7z M70.9,22.7c0.8-2.6,3.3-4.8,6.1-5.1
		c1.2-0.1,3.5,0.3,2.7,2c-0.3,0.6-1,1.1-1.5,1.6c-0.7,0.7-1.5,1.3-2.3,2c-1.6,1.4-3.3,2.6-5,3.6C70.4,25.4,70.5,24,70.9,22.7z"/>
</g>
</svg>
