<?xml version="1.0" encoding="utf-8"?>
<!-- Generator: Adobe Illustrator 26.0.2, SVG Export Plug-In . SVG Version: 6.00 Build 0)  -->
<svg version="1.1" id="Layer_1" xmlns="http://www.w3.org/2000/svg" xmlns:xlink="http://www.w3.org/1999/xlink" x="0px" y="0px"
	 viewBox="0 0 220 100" style="enable-background:new 0 0 220 100;" xml:space="preserve">
<style type="text/css">
	.st0{fill:#07222D;}
	.st1{filter:url(#Adobe_OpacityMaskFilter);}
	.st2{fill-rule:evenodd;clip-rule:evenodd;fill:#FFFFFF;}
	.st3{mask:url(#mask-2_00000172419927635028950350000016990595500894708871_);fill-rule:evenodd;clip-rule:evenodd;fill:#07222D;}
	.st4{filter:url(#Adobe_OpacityMaskFilter_00000016766226715114555810000002665955547453088158_);}
	.st5{mask:url(#mask-4_00000031179769895205708410000007030728210091176124_);fill-rule:evenodd;clip-rule:evenodd;fill:#07222D;}
</style>
<path class="st0" d="M133.4,40.23c-0.36,0.28-6.65,3.82-6.65,11.7c0,9.11,8,12.34,8.24,12.42c-0.04,0.2-1.27,4.42-4.22,8.72
	c-2.63,3.78-5.37,7.56-9.55,7.56s-5.25-2.43-10.07-2.43c-4.7,0-6.37,2.51-10.19,2.51s-6.49-3.5-9.55-7.8
	C87.87,67.86,85,60.01,85,52.57c0-11.94,7.76-18.27,15.4-18.27c4.06,0,7.44,2.67,9.99,2.67c2.43,0,6.21-2.83,10.83-2.83
	C122.97,34.14,129.26,34.3,133.4,40.23z M119.03,29.08c1.91-2.27,3.26-5.41,3.26-8.56c0-0.44-0.04-0.88-0.12-1.23
	c-3.11,0.12-6.81,2.07-9.03,4.66c-1.75,1.99-3.38,5.13-3.38,8.32c0,0.48,0.08,0.96,0.12,1.11c0.2,0.04,0.52,0.08,0.84,0.08
	C113.5,33.46,117,31.6,119.03,29.08z"/>
</svg>
