<?xml version="1.0" encoding="utf-8"?>
<!-- Generator: Adobe Illustrator 26.0.2, SVG Export Plug-In . SVG Version: 6.00 Build 0)  -->
<svg version="1.1" id="Layer_1" xmlns="http://www.w3.org/2000/svg" xmlns:xlink="http://www.w3.org/1999/xlink" x="0px" y="0px"
	 viewBox="0 0 41.01 9.94" style="enable-background:new 0 0 41.01 9.94;" xml:space="preserve">
<style type="text/css">
	.st0{fill:#FFFFFF;}
</style>
<g>
	<path class="st0" d="M0,4.03c0,0.01,0,0.03,0,0.04c0.03,0.21,0.26,0.42,0.39,0.57c0.19,0.24,0.38,0.48,0.57,0.72
		c0.39,0.5,0.78,0.99,1.18,1.48C2.69,7.5,3.24,8.16,3.8,8.81c0.17,0.2,1.09,1.55,1.29,0.87C5.4,8.57,5.65,7.45,5.84,6.32
		c0.1-0.58,0.17-1.15,0.24-1.73c0.03-0.26,0.07-0.52,0.1-0.78C6.19,3.7,6.33,2.58,6.19,2.59C5.89,2.62,5.45,3.04,5.2,3.2
		C4.83,3.45,4.4,3.88,3.99,4.02c0,0-0.8-2.3-0.87-2.5C3.07,1.39,3.03,1.25,2.93,1.15C2.74,0.94,2.45,1.03,2.21,1.1
		C1.94,1.17,1.61,1.28,1.6,1.61c0,0.13,0.03,0.25,0.07,0.37C1.9,2.75,2.26,3.56,2.39,4.34c-0.44-0.02-0.87-0.08-1.3-0.18
		C0.88,4.11,0.67,4.04,0.46,4C0.27,3.96,0,3.85,0,4.03z"/>
	<path class="st0" d="M17.65,2.4c0,0.01-0.01,0.02,0,0.04c-0.01,0.21,0.17,0.46,0.25,0.64c0.13,0.27,0.26,0.55,0.4,0.83
		c0.27,0.57,0.56,1.13,0.84,1.7c0.39,0.76,0.79,1.52,1.2,2.28c0.13,0.23,0.73,1.75,1.07,1.13c0.54-1.02,1.02-2.06,1.46-3.12
		c0.22-0.54,0.41-1.09,0.61-1.63c0.09-0.24,0.17-0.49,0.27-0.74c0.04-0.11,0.42-1.17,0.27-1.19c-0.3-0.03-0.82,0.28-1.1,0.39
		C22.52,2.88,22,3.21,21.57,3.25c0,0-0.29-2.41-0.31-2.63c-0.02-0.14-0.03-0.28-0.1-0.4c-0.14-0.25-0.45-0.23-0.7-0.21
		c-0.28,0.02-0.63,0.05-0.7,0.38c-0.03,0.13-0.02,0.25-0.01,0.37c0.07,0.8,0.24,1.66,0.2,2.46c-0.42-0.12-0.84-0.26-1.23-0.46
		c-0.2-0.09-0.38-0.21-0.58-0.29C17.93,2.38,17.68,2.22,17.65,2.4z"/>
	<path class="st0" d="M34.96,2.4c-0.01,0.01-0.01,0.02-0.02,0.04c-0.08,0.2,0.01,0.49,0.04,0.69c0.04,0.3,0.08,0.61,0.12,0.91
		c0.08,0.63,0.17,1.25,0.26,1.87c0.13,0.85,0.27,1.7,0.41,2.54c0.05,0.26,0.13,1.89,0.66,1.41c0.83-0.79,1.62-1.63,2.37-2.5
		c0.38-0.44,0.74-0.9,1.09-1.36c0.16-0.21,0.32-0.41,0.48-0.62C40.44,5.29,41.13,4.4,41,4.34c-0.27-0.12-0.87,0.01-1.16,0.02
		c-0.44,0.02-1.03,0.17-1.46,0.08c0,0,0.49-2.38,0.54-2.6c0.03-0.13,0.06-0.27,0.03-0.41c-0.06-0.28-0.36-0.35-0.6-0.42
		c-0.26-0.07-0.6-0.14-0.78,0.14c-0.07,0.11-0.1,0.23-0.13,0.35c-0.19,0.78-0.3,1.66-0.6,2.39c-0.36-0.24-0.71-0.51-1.02-0.83
		c-0.15-0.15-0.3-0.31-0.45-0.46C35.23,2.47,35.06,2.24,34.96,2.4z"/>
</g>
</svg>
