<?xml version="1.0" encoding="utf-8"?>
<!-- Generator: Adobe Illustrator 28.0.0, SVG Export Plug-In . SVG Version: 6.00 Build 0)  -->
<svg version="1.1" id="Layer_1" xmlns="http://www.w3.org/2000/svg" xmlns:xlink="http://www.w3.org/1999/xlink" x="0px" y="0px"
	 viewBox="0 0 220 100" style="enable-background:new 0 0 220 100;" xml:space="preserve">
<style type="text/css">
	.st0{fill:#07222D;}
</style>
<g id="BuzzFeed_on_White">
	<path class="st0" d="M3.7,68V31.3h16.4c7,0,10.6,4.5,10.6,9.3c0,4.6-2.9,7.7-6.3,8.4c4,0.6,7,4.4,7,9c0,5.6-3.6,10-10.7,10H3.7z
		 M22.7,42c0-2.3-1.6-3.9-4.3-3.9h-6.9v7.7h6.9C21,45.9,22.7,44.4,22.7,42z M23.4,56.9c0-2.3-1.6-4.2-4.7-4.2h-7.2v8.4h7.2
		C21.6,61.1,23.4,59.6,23.4,56.9z"/>
	<path class="st0" d="M33.5,57.4V41.4h7v15.7c0,3.2,1.9,5.5,5.7,5.5c3.7,0,5.6-2.3,5.6-5.5V41.4h7v15.9c0,6.7-4,11.4-12.6,11.4
		S33.5,64,33.5,57.4z"/>
	<path class="st0" d="M61.1,68v-5.2l12-15.2h-12v-6.1h21.5v5L70.4,61.9h12.4V68H61.1L61.1,68z"/>
	<path class="st0" d="M85.2,68v-5.2l12-15.2h-12v-6.1h21.5v5L94.4,61.9h12.4V68H85.2L85.2,68z"/>
	<path class="st0" d="M109.5,68V31.3h25.5v6.9h-17.6v7.7h13.3v6.9h-13.3V68H109.5z"/>
	<path class="st0" d="M132.6,54.7c0-7.7,5.7-13.9,13.7-13.9c8,0,13.3,6,13.3,14.6V57h-19.8c0.5,3.2,3.1,6,7.6,6c2.3,0,5.3-0.9,7-2.6
		l3.1,4.6c-2.6,2.4-6.8,3.7-10.9,3.7C138.7,68.7,132.6,63.2,132.6,54.7z M146.3,46.5c-4.3,0-6.2,3-6.5,5.7h13.1
		C152.7,49.6,150.9,46.5,146.3,46.5z"/>
	<path class="st0" d="M161.5,54.7c0-7.7,5.7-13.9,13.7-13.9c8,0,13.3,6,13.3,14.6V57h-19.8c0.5,3.2,3.1,6,7.6,6c2.3,0,5.3-0.9,7-2.6
		l3.1,4.6c-2.6,2.4-6.8,3.7-10.9,3.7C167.6,68.7,161.5,63.2,161.5,54.7z M175.2,46.5c-4.3,0-6.2,3-6.5,5.7h13.1
		C181.6,49.6,179.9,46.5,175.2,46.5z"/>
	<path class="st0" d="M191.1,68V41.4h10.7c8.4,0,14.4,5,14.4,13.3c0,8.3-6,13.4-14.4,13.4H191.1z M209.5,54.7c0-4.1-2.5-7.6-7.4-7.6
		h-4.3v15.2h4.3C206.8,62.3,209.5,58.7,209.5,54.7z"/>
</g>
</svg>
