<?xml version="1.0" encoding="utf-8"?>
<!-- Generator: Adobe Illustrator 28.0.0, SVG Export Plug-In . SVG Version: 6.00 Build 0)  -->
<svg version="1.1" id="Layer_1" xmlns="http://www.w3.org/2000/svg" xmlns:xlink="http://www.w3.org/1999/xlink" x="0px" y="0px"
	 viewBox="0 0 220 100" style="enable-background:new 0 0 220 100;" xml:space="preserve">
<style type="text/css">
	.st0{fill:#07222D;}
</style>
<g>
	<g>
		<path class="st0" d="M112.2,54.7c-1.9,0-2.8,1.6-2.8,4.8c0,0.4,0,0.8,0.1,1.2l0,0c0.3,3.7,1.5,5.7,3.4,5.7c1.9,0,3-1.9,3-5.2
			C115.8,57.4,114.3,54.7,112.2,54.7z"/>
		<path class="st0" d="M125.4,33.5c-1.4,0-2.1,1.1-2.4,3.7c2.2,0,2.8-0.1,5-0.3C127.7,34.6,126.9,33.5,125.4,33.5z"/>
		<path class="st0" d="M35,12.3v75.4h150V12.3H35z M150.3,47.6C150.3,47.6,150.3,47.6,150.3,47.6c1,0,1.8,0.8,1.8,1.7
			c0,1-0.8,1.8-1.7,1.8s-1.7-0.8-1.7-1.8C148.6,48.4,149.4,47.6,150.3,47.6z M56.5,67l-2,0L48.2,67l-4.3,0l0.1-0.7l0,0
			c1.9-0.1,2.4-0.6,2.4-2.5V51.6c0-2-0.5-2.5-2.4-2.5l-0.1-0.6l4,0l6.3-0.1l1.7,0l0.1,3.8l-1,0.1c-0.2-2.4-0.6-2.6-4.3-2.6H50
			l-0.3,0v7c0.5,0,0.9,0,1.1,0c0.4,0,0.8,0,1.2,0c2,0,2.5-0.4,2.5-2.4h0.9c-0.1,1.5-0.1,2.3-0.1,3.1c0,0.6,0,1.5,0,2.7h-0.8
			c-0.1-1.9-0.5-2.2-2.5-2.3l-1.4,0l-1,0v5.5c0,2.2,0.1,2.3,2.3,2.3c2.9,0,3.8-0.7,4-3.1l1,0.1L56.5,67z M65.9,67.3
			c-3.4,0-5.6-2.7-5.6-6.7c0-4.2,2.3-6.9,6.1-6.9c1,0,2,0.2,3.5,0.6l0,3.1l-1.2,0.1c-0.4-2.3-0.9-2.8-2.4-2.8c-1.9,0-3,1.7-3,5
			c0,3.9,1.2,6.1,3.4,6.1c1.2,0,2.1-0.5,3.1-1.6l0.4,0.9C68.8,66.7,67.6,67.3,65.9,67.3z M79.4,67.3c-3.7,0-6.2-2.5-6.3-6.3v-0.4
			c0-4.4,2.4-6.9,6.4-6.9c3.7,0,6.4,2.8,6.4,6.8C85.8,64.6,83.2,67.3,79.4,67.3z M100.5,66.9c-0.7,0-1.8,0.1-3.2,0.1l0.1-0.6
			c1.3-0.2,1.5-0.5,1.5-2.8l0-1.6v-2.3c0-3.3-0.6-4.3-2.2-4.3c-1,0-1.9,0.5-2.4,1.5c-0.2,0.4-0.4,1-0.4,1.3v5.5
			c0,2.3,0.2,2.6,1.5,2.8l0.1,0.6c-1.5-0.1-2.6-0.1-3.3-0.1c-0.8,0-1.9,0.1-3.3,0.1l0.1-0.6c1.7,0,2-0.3,2-2.8v-6
			c0-2.4-0.3-2.7-2-2.7l-0.1-0.6c2.3-0.1,2.8-0.2,4.8-0.6l0.1,2.3c1.5-1.6,2.6-2.2,4.2-2.2c2.5,0,4,1.6,4,4.5v5.3c0,0.2,0,0.4,0,0.6
			c0,1.7,0.4,2.2,2,2.2L104,67C102.4,67,101.3,66.9,100.5,66.9z M103.5,31.5c-0.1-2.2-0.5-2.5-3.9-2.5h-0.7v12.7
			c0,1.8,0.4,2.2,2.2,2.3l0,0.6c-1.6,0-2.9,0-3.7,0c-0.8,0-2.1,0-3.8,0l0-0.6c1.7,0,2.2-0.5,2.2-2.3V29H95c-3.5,0-3.9,0.3-4,2.5
			l-0.8,0l0.1-3.6c3.2,0,5.6,0,7.1,0c1.5,0,3.8,0,6.9,0l0.1,3.6L103.5,31.5z M112.4,67.3c-3.7,0-6.2-2.5-6.3-6.3v-0.4
			c0-4.4,2.4-6.9,6.4-6.9c3.8,0,6.4,2.8,6.4,6.8C119,64.6,116.4,67.3,112.4,67.3z M116.2,44.6c-0.7,0-1.6,0-2.9,0.1l0.1-0.6
			c1.2-0.2,1.4-0.4,1.4-2.5v-3.5c0-3-0.5-3.9-2.1-3.9c-0.8,0-1.7,0.5-2.1,1.4c-0.1,0.3-0.2,0.6-0.3,0.9c0,0.1,0,0.2,0,0.3v5
			c0,2.1,0.1,2.3,1.4,2.5l0.1,0.6c-1.3,0-2.3-0.1-2.9-0.1c-0.7,0-1.7,0-3.1,0.1l0.1-0.6c1.6,0,1.8-0.3,1.8-2.5V31
			c0-2.2-0.2-2.5-1.8-2.5l-0.1-0.6c2.1-0.1,2.6-0.2,4.6-0.5v7.2c1.2-1.3,2.2-1.9,3.6-1.9c2.3,0,3.6,1.4,3.6,4.1v4.8
			c0,2.2,0.2,2.5,1.8,2.5l0,0.6C117.9,44.6,116.9,44.6,116.2,44.6z M120.3,39c0-3.8,2.3-6.3,5.6-6.3c1.8,0,3,0.7,3.9,2
			c0.6,1,0.8,1.7,0.8,3.4h-7.4c0.1,3.5,1.4,5.5,3.5,5.5c1.3,0,2.3-0.6,3.5-1.9l0.4,0.7l0,0c-1.5,1.8-2.9,2.6-4.7,2.6
			C122.5,44.9,120.3,42.5,120.3,39z M141.3,66.9c-0.7,0-1.8,0.1-3.2,0.1l0.1-0.6c1.4-0.2,1.5-0.5,1.5-2.8v-3.9
			c0-3.2-0.6-4.3-2.2-4.3c-1,0-1.9,0.6-2.4,1.5c-0.1,0.3-0.3,0.6-0.3,1c0,0.1-0.1,0.2-0.1,0.3v5.5c0,2.3,0.2,2.6,1.5,2.8l0.1,0.6
			c-1.4-0.1-2.4-0.1-3.1-0.1c-0.7,0-1.7,0.1-3.1,0.1l0.1-0.6c1.4-0.2,1.5-0.5,1.5-2.8v-3.9c0-3.2-0.6-4.3-2.2-4.3
			c-1,0-1.9,0.5-2.4,1.5c-0.2,0.4-0.4,1-0.4,1.3v5.5c0,2.3,0.1,2.6,1.5,2.8l0.1,0.6c-1.4-0.1-2.5-0.1-3.2-0.1
			c-0.8,0-1.9,0.1-3.4,0.1l0.1-0.6c1.8,0,2-0.3,2-2.8v-6c0-2.4-0.3-2.7-2-2.7l-0.1-0.6c2.3-0.1,2.8-0.2,4.8-0.6l0.1,2.3
			c1.5-1.6,2.6-2.2,4.1-2.2c1.8,0,2.8,0.7,3.6,2.4c1.6-1.8,2.8-2.4,4.4-2.4c2.5,0,3.8,1.7,3.8,4.5v5.3c0,0.2,0,0.4,0,0.6
			c0,1.7,0.5,2.2,2,2.2l0.1,0.6C143.2,67,142,66.9,141.3,66.9z M150.4,66.9c-0.8,0-1.9,0.1-3.5,0.1l0.1-0.6c1.7,0,2-0.3,2-2.8l0-1.6
			v-2.7l0-1.7c0-2.4-0.2-2.7-2-2.7l-0.1-0.6c2.4-0.2,2.9-0.2,5-0.6l0,0V62l0,1.6c0,2.4,0.2,2.8,2,2.8L154,67
			C152.4,67,151.2,66.9,150.4,66.9z M160.7,67.3c-1,0-1.9-0.2-3.5-0.8l0,0l-0.1-2.7l1.3,0c0.6,2,1,2.4,2.4,2.4c1.2,0,2-0.6,2-1.6
			c0-0.9-0.6-1.5-2.2-2.6c-0.8-0.6-1.4-1-1.7-1.2c-0.7-0.5-1.2-1.2-1.4-1.8c-0.2-0.4-0.2-0.9-0.2-1.4c0-2.3,1.6-3.9,4.1-3.9
			c0.9,0,1.4,0.1,3.5,0.6l0.1,2.6l-1.3,0c-0.3-1.7-0.8-2.3-2.1-2.3c-1.2,0-2,0.7-2,1.6c0,0.9,0.4,1.5,1.8,2.3
			c1.2,0.8,2.2,1.5,2.8,2.1c0.7,0.7,1.1,1.6,1.1,2.6C165.1,65.5,163.2,67.3,160.7,67.3z M176.1,66.5c-0.9,0.5-2.1,0.8-3.4,0.8
			c-1.1,0-2.2-0.7-2.7-1.6c-0.4-0.8-0.5-1.6-0.5-3.3v-6.6h-1.7v-1.2c2.1-0.2,2.8-1,3.4-3.8h1.2v3.5h3.3l-0.4,1.4h-2.9V62
			c0,3.2,0.4,3.9,2.2,3.9c0.4,0,0.8-0.1,1.4-0.2L176.1,66.5L176.1,66.5z"/>
		<path class="st0" d="M79,54.7c-1.9,0-2.9,1.6-2.9,4.8c0,0.4,0,0.8,0.1,1.2l0,0c0.3,3.7,1.5,5.7,3.5,5.7c1.9,0,3-1.9,3-5.2
			C82.7,57.4,81.2,54.7,79,54.7z"/>
	</g>
</g>
</svg>
