<?xml version="1.0" encoding="utf-8"?>
<!-- Generator: Adobe Illustrator 26.0.2, SVG Export Plug-In . SVG Version: 6.00 Build 0)  -->
<svg version="1.1" id="Layer_1" xmlns="http://www.w3.org/2000/svg" xmlns:xlink="http://www.w3.org/1999/xlink" x="0px" y="0px"
	 viewBox="0 0 220 100" style="enable-background:new 0 0 220 100;" xml:space="preserve">
<style type="text/css">
	.st0{fill:#07222D;}
	.st1{filter:url(#Adobe_OpacityMaskFilter);}
	.st2{fill-rule:evenodd;clip-rule:evenodd;fill:#FFFFFF;}
	.st3{mask:url(#mask-2_00000172419927635028950350000016990595500894708871_);fill-rule:evenodd;clip-rule:evenodd;fill:#07222D;}
	.st4{filter:url(#Adobe_OpacityMaskFilter_00000029739385404399819030000002563357765262548664_);}
	.st5{mask:url(#mask-4_00000031179769895205708410000007030728210091176124_);fill-rule:evenodd;clip-rule:evenodd;fill:#07222D;}
</style>
<g>
	<g>
		<path class="st0" d="M112.15,54.73c-1.87,0-2.84,1.6-2.84,4.85c0,0.39,0,0.78,0.05,1.17l0,0c0.26,3.68,1.48,5.68,3.45,5.68
			c1.88,0,3-1.95,3-5.18C115.81,57.4,114.27,54.73,112.15,54.73z"/>
		<path class="st0" d="M125.42,33.5c-1.41,0-2.14,1.12-2.37,3.69c2.16-0.05,2.81-0.1,4.96-0.33
			C127.73,34.59,126.87,33.5,125.42,33.5z"/>
		<path class="st0" d="M35,12.32v75.37h150V12.32H35z M150.33,47.6C150.34,47.6,150.34,47.6,150.33,47.6c0.97,0,1.75,0.8,1.75,1.73
			c0,0.98-0.75,1.77-1.74,1.77c-0.99,0-1.72-0.76-1.72-1.77C148.62,48.37,149.38,47.6,150.33,47.6z M56.5,67.03l-2.01,0.03
			l-6.34-0.05l-4.28,0.02l0.08-0.68h0c1.91-0.05,2.4-0.57,2.4-2.52V51.61c0-1.95-0.49-2.47-2.4-2.52l-0.08-0.63l3.99,0.05l6.32-0.08
			l1.66,0.03l0.1,3.78l-1.04,0.08c-0.18-2.37-0.62-2.63-4.33-2.63h-0.58l-0.26,0.02v7.03c0.49,0,0.89,0.03,1.12,0.03
			c0.4,0.03,0.8,0.04,1.2,0.05c2.04,0,2.51-0.44,2.53-2.37h0.89c-0.08,1.55-0.08,2.35-0.08,3.13c0,0.63,0,1.51,0.03,2.68H54.6
			c-0.1-1.87-0.52-2.23-2.48-2.26l-1.41-0.03l-0.99,0.05v5.45c0,2.21,0.13,2.32,2.32,2.32c2.9,0,3.76-0.65,4.02-3.13l1.04,0.06
			L56.5,67.03z M65.88,67.32c-3.44,0-5.64-2.68-5.64-6.72c0-4.22,2.32-6.86,6.08-6.86c0.99,0,1.99,0.18,3.53,0.6l0.04,3.08
			l-1.17,0.08c-0.44-2.3-0.89-2.84-2.4-2.84c-1.95,0-2.97,1.7-2.97,5.05c0,3.92,1.22,6.13,3.44,6.13c1.15,0,2.06-0.5,3.08-1.59
			l0.39,0.94C68.78,66.72,67.59,67.32,65.88,67.32z M79.36,67.32c-3.71,0-6.18-2.5-6.31-6.28v-0.4c0-4.39,2.37-6.9,6.39-6.9
			c3.73,0,6.39,2.77,6.39,6.8C85.82,64.58,83.24,67.32,79.36,67.32z M100.53,66.93c-0.73,0-1.82,0.05-3.21,0.1l0.05-0.62
			c1.34-0.21,1.5-0.47,1.5-2.78l0.03-1.6v-2.32c0-3.27-0.6-4.32-2.25-4.32c-1.02,0-1.88,0.52-2.4,1.46
			c-0.21,0.39-0.39,1.01-0.39,1.27v5.5c0.03,2.32,0.16,2.57,1.54,2.78l0.08,0.62c-1.46-0.05-2.55-0.1-3.28-0.1
			c-0.76,0-1.87,0.05-3.34,0.1l0.05-0.62c1.7,0,1.96-0.34,1.96-2.78v-6c0-2.37-0.26-2.71-1.96-2.74l-0.05-0.6
			c2.27-0.13,2.8-0.21,4.77-0.63l0.13,2.31c1.48-1.63,2.63-2.23,4.17-2.23c2.53,0,3.96,1.64,3.96,4.54v5.34
			c-0.02,0.2-0.02,0.41-0.02,0.62c0,1.67,0.44,2.16,2.03,2.16l0.05,0.62C102.43,66.98,101.29,66.93,100.53,66.93z M103.54,31.55
			c-0.07-2.23-0.54-2.53-3.92-2.53h-0.72v12.75c0,1.76,0.45,2.23,2.18,2.28l0.04,0.61c-1.64-0.02-2.89-0.02-3.68-0.02
			c-0.83,0-2.12,0-3.81,0.02l0.04-0.61c1.74-0.05,2.19-0.52,2.19-2.28V29.02h-0.85c-3.48,0-3.95,0.3-3.99,2.53l-0.84-0.04l0.08-3.64
			c3.17,0.02,5.55,0.05,7.14,0.05c1.49,0,3.81-0.03,6.89-0.05l0.09,3.64L103.54,31.55z M112.45,67.32c-3.68,0-6.18-2.5-6.32-6.28
			v-0.4c0-4.39,2.37-6.9,6.39-6.9c3.78,0,6.43,2.77,6.43,6.8C118.96,64.58,116.38,67.32,112.45,67.32z M116.2,44.56
			c-0.66,0-1.62,0.05-2.92,0.09l0.05-0.56c1.24-0.19,1.36-0.42,1.38-2.51v-3.52c0-2.96-0.51-3.94-2.07-3.94
			c-0.83,0-1.72,0.54-2.09,1.36c-0.14,0.28-0.24,0.58-0.33,0.89c-0.02,0.12-0.02,0.21-0.02,0.26v4.96c0,2.09,0.14,2.32,1.38,2.51
			l0.05,0.56c-1.31-0.04-2.28-0.09-2.94-0.09c-0.68,0-1.72,0.05-3.05,0.09l0.05-0.56c1.57,0,1.79-0.3,1.81-2.51V30.95
			c-0.02-2.21-0.24-2.52-1.81-2.52l-0.05-0.56c2.14-0.12,2.63-0.19,4.56-0.54v7.23c1.24-1.34,2.25-1.88,3.64-1.88
			c2.3,0,3.57,1.41,3.57,4.09v4.81c0.02,2.2,0.24,2.51,1.81,2.51l0.04,0.56C117.92,44.61,116.88,44.56,116.2,44.56z M120.3,39.02
			c0-3.77,2.28-6.34,5.56-6.34c1.77,0,3.04,0.65,3.9,2.04c0.59,0.99,0.75,1.67,0.77,3.36h-7.42c0.1,3.52,1.39,5.54,3.53,5.54
			c1.26,0,2.34-0.59,3.5-1.92l0.35,0.65h0c-1.46,1.81-2.89,2.56-4.73,2.56C122.51,44.92,120.3,42.52,120.3,39.02z M141.3,66.93
			c-0.71,0-1.78,0.05-3.21,0.1l0.05-0.62c1.38-0.21,1.51-0.47,1.54-2.78v-3.91c0-3.22-0.57-4.32-2.19-4.32
			c-0.96,0-1.95,0.59-2.37,1.46c-0.13,0.31-0.26,0.62-0.34,0.99c-0.03,0.13-0.05,0.23-0.05,0.29v5.5c0,2.32,0.16,2.57,1.54,2.78
			l0.06,0.62c-1.38-0.05-2.4-0.1-3.08-0.1c-0.67,0-1.69,0.05-3.05,0.1l0.05-0.62c1.38-0.21,1.51-0.47,1.53-2.78v-3.91
			c0-3.22-0.57-4.32-2.19-4.32c-0.98,0-1.87,0.54-2.37,1.46c-0.21,0.41-0.38,1.01-0.38,1.27v5.5c0.03,2.32,0.14,2.57,1.52,2.78
			l0.05,0.62c-1.43-0.05-2.49-0.1-3.21-0.1c-0.76,0-1.88,0.05-3.39,0.1l0.05-0.62c1.75,0,2.01-0.34,2.01-2.78v-6
			c0-2.37-0.26-2.71-2.01-2.74l-0.05-0.6c2.32-0.13,2.84-0.21,4.81-0.63l0.12,2.31c1.47-1.6,2.61-2.23,4.15-2.23
			c1.77,0,2.81,0.73,3.55,2.43c1.59-1.78,2.76-2.43,4.35-2.43c2.46,0,3.83,1.67,3.83,4.54v5.34c0,0.2-0.03,0.41-0.03,0.62
			c0,1.67,0.47,2.16,2.03,2.16l0.06,0.62C143.18,66.98,142.03,66.93,141.3,66.93z M150.45,66.93c-0.78,0-1.92,0.05-3.5,0.1L147,66.4
			c1.72,0,1.97-0.34,1.97-2.78l0.02-1.6v-2.73l-0.02-1.67c0-2.37-0.25-2.71-1.97-2.74l-0.05-0.6c2.35-0.15,2.9-0.24,5.01-0.63h0
			v8.36l0.02,1.6c0,2.44,0.24,2.78,2.01,2.78l0.05,0.62C152.42,66.98,151.25,66.93,150.45,66.93z M160.72,67.32
			c-0.96,0-1.87-0.21-3.54-0.76v0l-0.1-2.66l1.33-0.05c0.6,2,0.99,2.39,2.37,2.39c1.2,0,1.98-0.62,1.98-1.56
			c0-0.89-0.55-1.53-2.19-2.64c-0.83-0.57-1.4-0.97-1.71-1.2c-0.68-0.52-1.17-1.15-1.44-1.85c-0.16-0.39-0.24-0.86-0.24-1.41
			c0-2.32,1.62-3.86,4.06-3.86c0.91,0,1.43,0.08,3.5,0.57l0.06,2.59l-1.32,0.05c-0.3-1.7-0.82-2.3-2.05-2.3
			c-1.17,0-2.01,0.68-2.01,1.6c0,0.91,0.42,1.46,1.77,2.31c1.22,0.81,2.16,1.53,2.79,2.11c0.73,0.7,1.15,1.59,1.15,2.57
			C165.13,65.54,163.2,67.32,160.72,67.32z M176.11,66.48c-0.88,0.5-2.11,0.78-3.36,0.78c-1.15,0-2.22-0.65-2.67-1.61
			c-0.39-0.81-0.52-1.61-0.52-3.34V55.7h-1.67v-1.2c2.05-0.16,2.83-1.04,3.42-3.75h1.17v3.51h3.28l-0.37,1.43h-2.92v6.36
			c0,3.16,0.42,3.91,2.19,3.91c0.42,0,0.8-0.05,1.43-0.23V66.48z"/>
		<path class="st0" d="M79.04,54.73c-1.9,0-2.87,1.6-2.87,4.85c0,0.39,0,0.78,0.05,1.17v0c0.26,3.68,1.48,5.68,3.49,5.68
			c1.87,0,3-1.95,3-5.18C82.72,57.4,81.17,54.73,79.04,54.73z"/>
	</g>
</g>
</svg>
