<?xml version="1.0" encoding="utf-8"?>
<!-- Generator: Adobe Illustrator 28.0.0, SVG Export Plug-In . SVG Version: 6.00 Build 0)  -->
<svg version="1.1"
	 id="svg2" xmlns:sketch="http://www.bohemiancoding.com/sketch/ns" xmlns:sodipodi="http://sodipodi.sourceforge.net/DTD/sodipodi-0.dtd" xmlns:inkscape="http://www.inkscape.org/namespaces/inkscape" xmlns:cc="http://creativecommons.org/ns#" xmlns:rdf="http://www.w3.org/1999/02/22-rdf-syntax-ns#" xmlns:svg="http://www.w3.org/2000/svg" xmlns:dc="http://purl.org/dc/elements/1.1/" inkscape:version="0.91 r13725" sodipodi:docname="play.svg"
	 xmlns="http://www.w3.org/2000/svg" xmlns:xlink="http://www.w3.org/1999/xlink" x="0px" y="0px" viewBox="0 0 220 100"
	 style="enable-background:new 0 0 220 100;" xml:space="preserve">
<style type="text/css">
	.st0{fill-rule:evenodd;clip-rule:evenodd;fill:#07222D;}
</style>
<sodipodi:namedview  bordercolor="#666666" borderopacity="1" fit-margin-bottom="20" fit-margin-left="20" fit-margin-right="20" fit-margin-top="20" gridtolerance="10" guidetolerance="10" id="namedview20" inkscape:current-layer="svg2" inkscape:cx="1500" inkscape:cy="613.8854" inkscape:pageopacity="0" inkscape:pageshadow="2" inkscape:showpageshadow="false" inkscape:window-height="715" inkscape:window-maximized="1" inkscape:window-width="1366" inkscape:window-x="-8" inkscape:window-y="-8" inkscape:zoom="0.27297297" objecttolerance="10" pagecolor="#ffffff" showgrid="false">
	</sodipodi:namedview>
<g id="Page-1" transform="matrix(13.466788,0,0,13.466788,20,20)" sketch:type="MSPage">
	<g id="logo" sketch:type="MSLayerGroup">
		<g id="Group" sketch:type="MSShapeGroup">
			<path id="Shape" inkscape:connector-curvature="0" class="st0" d="M0.29133,4.87236h-0.41497v0.08052h2.29782v-1.4493H2.10605
				c0,0,0,0.83613-0.27871,1.10865c-0.23536,0.23536-0.4831,0.25394-0.88568,0.25394V2.19674c0,0,0.27871-0.01858,0.41497,0.11768
				C1.56721,2.525,1.59198,2.79751,1.59198,3.17532h0.07432V1.13144H1.59198c0,0.37781-0.01858,0.65033-0.23536,0.86091
				C1.22037,2.12861,0.94166,2.11003,0.94166,2.11003v-2.53317c0.40258,0,0.59458,0.02477,0.82994,0.25394
				C2.04412,0.1033,2.05031,0.93944,2.05031,0.93944h0.06813l0-1.4431h-2.24208v0.08052h0.41497V4.87236L0.29133,4.87236z"/>
			<path id="path14" inkscape:connector-curvature="0" class="st0" d="M4.78168-0.42315v5.29551
				c0.40258,0,0.65033-0.02477,0.88568-0.25394c0.27252-0.27252,0.27871-1.10865,0.27871-1.10865H6.0142v1.4493H3.71638V4.87856
				h0.41497v-5.3079H3.71638v-0.07432h1.4431v0.08052L4.78168-0.42315L4.78168-0.42315L4.78168-0.42315z"/>
			<path id="path16" inkscape:connector-curvature="0" class="st0" d="M8.47305-0.42315v5.29551
				c0.40258,0,0.65033-0.02477,0.88568-0.25394c0.27252-0.27252,0.27871-1.10865,0.27871-1.10865h0.06813v1.4493H7.40776V4.87856
				h0.41497v-5.3079H7.40776v-0.07432h1.4431v0.08052L8.47305-0.42315L8.47305-0.42315L8.47305-0.42315z"/>
			<path id="path18" inkscape:connector-curvature="0" class="st0" d="M11.60701,4.87236h-0.41497v0.08052h2.29782v-1.4493h-0.06813
				c0,0,0,0.83613-0.27871,1.10865c-0.23536,0.23536-0.4831,0.25394-0.88568,0.25394V2.19674c0,0,0.27871-0.01858,0.41497,0.11768
				c0.21058,0.21058,0.23536,0.4831,0.23536,0.86091h0.07432V1.13144h-0.07432c0,0.37781-0.01858,0.65033-0.23536,0.86091
				c-0.13626,0.13626-0.41497,0.11768-0.41497,0.11768v-2.53317c0.40258,0,0.59458,0.02477,0.82994,0.25394
				c0.27252,0.27252,0.27871,1.10865,0.27871,1.10865h0.06813v-1.4431h-2.24208v0.08052H11.607L11.60701,4.87236L11.60701,4.87236
				L11.60701,4.87236L11.60701,4.87236z"/>
		</g>
	</g>
</g>
</svg>
