<?xml version="1.0" encoding="utf-8"?>
<!-- Generator: Adobe Illustrator 26.0.2, SVG Export Plug-In . SVG Version: 6.00 Build 0)  -->
<svg version="1.1" id="Layer_1" xmlns="http://www.w3.org/2000/svg" xmlns:xlink="http://www.w3.org/1999/xlink" x="0px" y="0px"
	 viewBox="0 0 220 100" style="enable-background:new 0 0 220 100;" xml:space="preserve">
<style type="text/css">
	.st0{fill:#07222D;}
	.st1{filter:url(#Adobe_OpacityMaskFilter);}
	.st2{fill-rule:evenodd;clip-rule:evenodd;fill:#FFFFFF;}
	.st3{mask:url(#mask-2_00000172419927635028950350000016990595500894708871_);fill-rule:evenodd;clip-rule:evenodd;fill:#07222D;}
	.st4{filter:url(#Adobe_OpacityMaskFilter_00000022534734152165071750000011678967056565734787_);}
	.st5{mask:url(#mask-4_00000031179769895205708410000007030728210091176124_);fill-rule:evenodd;clip-rule:evenodd;fill:#07222D;}
</style>
<g id="_x23_72777bff">
	<path class="st0" d="M68.18,26.4c0.81-0.02,1.63-0.01,2.44-0.01c0.15-0.01,0.24,0.12,0.21,0.26c0,3.74,0.01,7.48,0,11.22
		c0.05-0.01,0.16-0.02,0.21-0.03c1.04-1.15,2.48-1.92,4-2.19c0.76-0.18,1.54-0.13,2.32-0.12c1.74,0.1,3.5,0.74,4.72,2.02
		c1.06,1.06,1.65,2.51,1.89,3.98c0.15,1.15,0.08,2.32,0.1,3.48c-0.01,3.73,0.02,7.45-0.01,11.18c-0.88,0.04-1.76,0.03-2.63,0
		c-0.05-4.41,0-8.83-0.03-13.24c-0.09-1.23-0.42-2.51-1.24-3.47c-0.86-1.03-2.22-1.53-3.54-1.58c-1.38-0.09-2.85,0.2-3.94,1.1
		c-1.04,0.84-1.62,2.16-1.76,3.47c-0.11,0.71-0.07,1.43-0.07,2.15c0,3.78,0,7.56,0,11.33c0.04,0.16-0.06,0.25-0.21,0.24
		c-0.69,0.01-1.37,0-2.06,0.01c-0.17,0-0.48,0.02-0.41-0.25c0-9.7,0-19.4,0-29.1C68.15,26.69,68.17,26.55,68.18,26.4z"/>
	<path class="st0" d="M125.46,26.74c0.02-0.12-0.04-0.37,0.16-0.35c0.83-0.01,1.66-0.03,2.49,0.01c0.05,3.84,0,7.68,0.02,11.52
		c0.22-0.1,0.39-0.27,0.56-0.44c1.39-1.33,3.34-2.02,5.26-1.96c2.05-0.06,4.2,0.64,5.6,2.2c1.07,1.17,1.61,2.73,1.78,4.28
		c0.08,0.97,0.03,1.94,0.04,2.9c0,3.75,0,7.51,0,11.26c-0.75,0.08-1.51,0.01-2.27,0.04c-0.13-0.01-0.4,0.05-0.39-0.15
		c-0.02-4.34,0-8.68-0.01-13.02c-0.08-0.99-0.27-1.99-0.77-2.87c-0.58-1.03-1.6-1.8-2.76-2.07c-1.26-0.32-2.64-0.29-3.87,0.15
		c-0.96,0.34-1.79,1.01-2.32,1.88c-0.68,1.12-0.88,2.46-0.86,3.75c0,3.03,0,6.05,0,9.08c-0.01,1.07,0.02,2.15-0.02,3.23
		c-0.87,0.03-1.75,0.02-2.63,0.01c-0.05-2.23-0.01-4.47-0.02-6.7C125.46,41.9,125.46,34.32,125.46,26.74z"/>
	<path class="st0" d="M165.44,29.64c-0.03-0.14,0.08-0.26,0.23-0.24c0.8-0.01,1.6-0.01,2.4,0.01c0.07,1.76,0.01,3.53,0.03,5.29
		c0.02,0.36-0.07,0.74,0.07,1.08c0.16,0.14,0.4,0.06,0.6,0.08c1.04,0.01,2.08-0.04,3.11,0.02c0.02,0.03,0.07,0.09,0.09,0.12
		c-0.05,0.62,0.04,1.24-0.04,1.86c-1.26,0.06-2.53-0.06-3.78,0.06c-0.09,1.01-0.02,2.03-0.04,3.04c0,3.21,0,6.43,0,9.64
		c0.04,0.66,0.08,1.35,0.39,1.95c0.35,0.69,1.07,1.18,1.84,1.26c0.68,0.13,1.37,0.04,2.05,0.09c0.04,0.58,0.01,1.17,0.03,1.75
		c-0.01,0.17,0.02,0.36-0.06,0.52c-0.63,0.05-1.27,0.01-1.9,0.02c-1,0.02-2.01-0.23-2.85-0.78c-1.16-0.76-1.87-2.08-2.06-3.44
		c-0.15-0.66-0.09-1.34-0.1-2.02c0-3.96,0.01-7.92,0-11.88c0.04-0.19-0.2-0.18-0.32-0.19c-0.77-0.02-1.54,0.01-2.32-0.01
		c-0.04-0.67-0.04-1.34,0-2.01c0.85,0,1.7-0.01,2.54,0.01c0.14-0.28,0.09-0.59,0.1-0.88C165.44,33.2,165.44,31.42,165.44,29.64z"/>
	<path class="st0" d="M175.91,29.42c0.8-0.04,1.6-0.02,2.4-0.02c0.14-0.03,0.25,0.1,0.23,0.24c0.02,2.03-0.03,4.06,0.02,6.08
		c0.03,0.03,0.09,0.09,0.12,0.12c1.23,0.05,2.46-0.02,3.69,0.03c0.03,0.65,0.02,1.31,0.01,1.97c-1.14,0.08-2.28,0-3.43,0.03
		c-0.14,0.01-0.27,0.04-0.4,0.07c0,4.03,0,8.07,0,12.1c-0.01,0.92-0.02,1.91,0.5,2.71c0.38,0.61,1.06,0.99,1.76,1.06
		c0.67,0.13,1.36,0.03,2.04,0.1c0.01,0.7,0.02,1.41,0,2.11c0,0.22-0.28,0.15-0.43,0.17c-0.81-0.02-1.63,0.04-2.44-0.06
		c-1-0.16-1.99-0.6-2.69-1.35c-0.96-0.98-1.37-2.37-1.42-3.71c0-3.96,0-7.92,0-11.89c0-0.43,0.02-0.86-0.03-1.29
		c-0.86-0.08-1.73,0.01-2.6-0.05c-0.1-0.42-0.03-0.85-0.05-1.28c0.02-0.23-0.06-0.49,0.07-0.71c0.84-0.02,1.68-0.01,2.53,0
		c0.15-0.44,0.06-0.9,0.08-1.35C175.9,32.81,175.84,31.11,175.91,29.42z"/>
	<path class="st0" d="M90.11,36.7c1.18-0.77,2.6-1.06,3.99-1.16c1.5-0.05,3.02-0.07,4.47,0.32c1.26,0.3,2.48,0.9,3.35,1.88
		c1.12,1.22,1.51,2.93,1.5,4.55c-0.01,4.63,0.02,9.26-0.02,13.89c-0.82,0.04-1.65,0.02-2.47,0.02c-0.03-0.01-0.09-0.04-0.12-0.06
		c-0.05-0.59,0-1.19-0.02-1.78c-0.13,0.06-0.27,0.12-0.37,0.23c-0.67,0.61-1.45,1.13-2.31,1.43c-1.01,0.36-2.1,0.44-3.16,0.45
		c-1.42,0.01-2.89-0.06-4.22-0.6c-1.35-0.54-2.45-1.66-2.94-3.03c-0.55-1.49-0.57-3.2,0.01-4.69c0.49-1.27,1.54-2.27,2.77-2.81
		c1.42-0.65,3.02-0.79,4.57-0.75c0.99,0.01,1.97-0.02,2.96,0.01c0.03,0.69,0.04,1.39,0,2.08c-1.55,0.04-3.1-0.04-4.64,0.12
		c-0.89,0.15-1.82,0.43-2.48,1.08c-0.73,0.71-1.01,1.77-0.96,2.77c0,0.96,0.36,1.97,1.14,2.58c0.81,0.65,1.86,0.82,2.86,0.94
		c1.19,0.06,2.4,0.05,3.56-0.25c0.94-0.27,1.84-0.79,2.43-1.58c0.63-0.9,0.69-2.03,0.77-3.09c0-2.22-0.01-4.43,0-6.65
		c0-0.34-0.06-0.68-0.1-1.02c-0.09-1.02-0.56-2.04-1.38-2.67c-0.65-0.53-1.48-0.77-2.3-0.91c-1.02-0.13-2.06-0.14-3.09-0.04
		c-1.36,0.13-2.69,0.76-3.52,1.87c-0.15,0.15-0.24,0.43-0.49,0.4c-0.59-0.51-1.16-1.04-1.74-1.56
		C88.64,37.85,89.35,37.21,90.11,36.7z"/>
	<path class="st0" d="M110.6,37.45c1.61-1.37,3.76-2,5.86-1.93c1.15-0.03,2.3,0.15,3.37,0.58c1.11,0.46,2.05,1.23,2.89,2.07
		c0.13,0.13,0.24,0.29,0.32,0.45c-0.54,0.51-1.07,1.03-1.62,1.52c-0.1,0.1-0.28,0.1-0.36-0.03c-0.88-0.98-1.98-1.86-3.3-2.11
		c-1.35-0.25-2.79-0.16-4.06,0.4c-1.35,0.58-2.39,1.74-2.99,3.06c-0.62,1.4-0.72,2.95-0.69,4.45c-0.03,1.62,0.07,3.31,0.8,4.78
		c0.69,1.43,1.94,2.6,3.48,3.07c0.51,0.19,1.06,0.23,1.6,0.3c0.63,0.08,1.26-0.05,1.88-0.13c1.36-0.28,2.52-1.19,3.39-2.24
		c0.25,0.05,0.42,0.25,0.6,0.42c0.39,0.36,0.78,0.72,1.16,1.09c0.09,0.08,0.12,0.23,0.02,0.31c-0.92,0.98-1.98,1.87-3.24,2.37
		c-1.32,0.53-2.77,0.6-4.18,0.52c-1.61-0.09-3.21-0.62-4.51-1.59c-1.32-0.96-2.29-2.36-2.86-3.88c-0.62-1.6-0.81-3.32-0.84-5.03
		c0.04-1.48,0.18-2.97,0.65-4.38C108.47,39.98,109.34,38.51,110.6,37.45z"/>
	<path class="st0" d="M147.41,38.06c1.41-1.69,3.63-2.59,5.81-2.54c1.87-0.06,3.8,0.49,5.25,1.71c1.16,0.95,1.97,2.27,2.45,3.67
		c0.45,1.32,0.67,2.71,0.68,4.11c0.01,0.57,0.06,1.14-0.03,1.71c-3.73,0-7.46-0.01-11.19,0.01c-0.11-0.71-0.06-1.44-0.03-2.15
		c2.48-0.01,4.97,0,7.45-0.01c0.34-0.01,0.69,0.02,1.03-0.02c0.19-0.07,0.09-0.32,0.1-0.48c-0.09-1.73-0.58-3.56-1.88-4.78
		c-1.5-1.45-3.85-1.82-5.78-1.08c-1.21,0.46-2.21,1.41-2.78,2.56c-0.44,0.84-0.67,1.79-0.75,2.73c-0.07,1.22-0.13,2.44-0.04,3.66
		c0.06,1.66,0.45,3.37,1.42,4.75c0.53,0.71,1.23,1.31,2.05,1.66c0.88,0.4,1.85,0.51,2.8,0.55c0.92-0.05,1.87-0.13,2.73-0.48
		c0.91-0.36,1.71-0.96,2.4-1.63c0.1-0.11,0.23-0.19,0.37-0.26c0.56,0.53,1.17,1.01,1.77,1.51c-0.18,0.38-0.54,0.61-0.84,0.89
		c-1.06,0.94-2.33,1.68-3.72,2.01c-1.19,0.31-2.43,0.33-3.64,0.29c-1.87-0.09-3.75-0.72-5.14-2c-1.54-1.42-2.34-3.47-2.66-5.51
		c-0.29-1.89-0.29-3.83-0.02-5.72C145.53,41.35,146.17,39.5,147.41,38.06z"/>
	<path class="st0" d="M187.86,36.39c1.6-0.86,3.49-1.03,5.27-0.79c1.42,0.21,2.79,0.78,3.86,1.74c1.43,1.24,2.27,3.03,2.68,4.85
		c0.33,1.47,0.35,2.98,0.3,4.48c-1.08,0.08-2.16,0.01-3.24,0.03c-1.9,0-3.81,0-5.71,0c-0.77-0.02-1.55,0.04-2.31-0.04
		c-0.02-0.7-0.04-1.4,0.01-2.1c2.45-0.04,4.91,0,7.36-0.02c0.42-0.01,0.85,0.04,1.26-0.06c-0.04-1.06-0.13-2.13-0.54-3.12
		c-0.49-1.44-1.64-2.65-3.08-3.19c-1.72-0.65-3.79-0.44-5.27,0.68c-1.21,0.89-1.93,2.33-2.2,3.79c-0.26,1.42-0.19,2.87-0.18,4.31
		c0.07,1.65,0.4,3.36,1.32,4.76c0.59,0.88,1.46,1.58,2.46,1.95c0.79,0.31,1.64,0.38,2.48,0.43c0.82-0.05,1.65-0.09,2.43-0.37
		c1.17-0.38,2.15-1.15,3.01-2.01c0.65,0.47,1.25,1,1.84,1.54c-0.03,0.15-0.16,0.24-0.25,0.34c-0.85,0.83-1.81,1.57-2.9,2.06
		c-1.63,0.75-3.47,0.86-5.24,0.75c-1.86-0.13-3.74-0.8-5.08-2.13c-1.4-1.36-2.14-3.26-2.48-5.16c-0.07-0.6-0.2-1.18-0.21-1.79
		c-0.13-2.36,0.03-4.81,0.96-7.01C185.09,38.69,186.28,37.23,187.86,36.39z"/>
	<path class="st0" d="M20,35.82c0.25,0.02,0.5,0.02,0.75,0.02c4.5-0.01,8.99,0.01,13.49-0.01c0.08,0.46,0.05,0.93,0.05,1.4
		c0,3.09,0,6.17,0,9.26c0.01,0.33-0.03,0.66,0.05,0.98c0.15,0.03,0.29,0.03,0.44,0.03c3.56-0.01,7.11,0,10.67-0.01
		c0.14,0,0.29,0.01,0.43,0.05c0.07,0.42,0.02,0.86,0.03,1.28c-0.01,0.43,0.03,0.86-0.02,1.29c-0.07,0.12-0.22,0.09-0.34,0.11
		c-4.52,0-9.05,0-13.57,0c-0.14,0-0.29-0.01-0.43-0.04c-0.07-0.35-0.03-0.72-0.04-1.08c0-3.31,0-6.61,0-9.92
		c0-0.2-0.04-0.39-0.07-0.59c-2.78,0.01-5.57,0-8.35,0c-0.13,0.01-0.28,0-0.4,0.08c-0.06,0.35-0.03,0.71-0.03,1.07
		c0,9.76,0,19.52,0,29.28c0,0.57-0.01,1.14,0.03,1.71c3.75,0.03,7.51,0.01,11.26,0.01c0.1,0,0.2,0.01,0.29,0.04
		c0.08,0.28,0.04,0.57,0.05,0.86c-0.02,0.62,0.04,1.25-0.05,1.87c-4.75,0-9.5,0.01-14.24-0.01V35.82z"/>
	<path class="st0" d="M43.18,35.89c0.13-0.03,0.26-0.04,0.4-0.04c4.64,0.01,9.27-0.01,13.91,0.01c0.01,0.14,0.03,0.29,0.03,0.43
		c0,11.94,0,23.89,0,35.83c0,0.46,0.02,0.92-0.03,1.37c-4.14,0.04-8.28,0.01-12.42,0.02c-0.64-0.01-1.28,0.03-1.92-0.03
		c-0.03-3.76,0-7.52-0.01-11.28c-0.01-0.11-0.04-0.23-0.07-0.34c-3.73,0.01-7.46,0-11.2,0.01c-0.16,0.02-0.3-0.05-0.4-0.18
		c0.09-0.79,0.02-1.59,0.03-2.39c0.01-0.2,0.23-0.14,0.37-0.16c4.4,0,8.79,0,13.19,0c0.26,0.01,0.53-0.02,0.78,0.04
		c0.06,0.12,0.04,0.27,0.04,0.4c-0.01,3.06,0,6.11,0,9.17c0.02,0.67-0.05,1.35,0.05,2.02c2.8,0.01,5.6,0,8.4,0.01
		c0.13-0.01,0.27,0.02,0.38-0.05c0.06-0.34,0.02-0.69,0.03-1.04c0-10.23,0-20.45,0-30.68c0-0.15-0.04-0.29-0.09-0.43
		c-3.6,0.02-7.21,0-10.81,0.01c-0.22,0-0.45,0.02-0.67-0.04c-0.1-0.37-0.02-0.76-0.04-1.13C43.17,36.91,43.09,36.39,43.18,35.89z"/>
	<path class="st0" d="M80.68,62.85c0.97-0.18,2.01-0.04,2.85,0.48c0.94,0.54,1.62,1.53,1.69,2.62c0.1,1.44,0.1,2.9,0.01,4.34
		c-0.04,0.84-0.38,1.67-1,2.24c-0.71,0.68-1.68,1.08-2.67,1.07C80.1,73.69,78.6,72.84,78,71.5c-0.45-1.11-0.31-2.33-0.34-3.5
		c0.01-1.14-0.09-2.37,0.49-3.4C78.7,63.7,79.63,63.04,80.68,62.85 M80.95,64.33c-0.76,0.15-1.38,0.77-1.54,1.53
		c-0.18,1.02-0.12,2.06-0.13,3.09c0,0.44,0.04,0.88,0.09,1.32c0.06,0.66,0.44,1.3,1.04,1.6c0.49,0.25,1.08,0.38,1.61,0.19
		c0.8-0.17,1.42-0.87,1.53-1.67c0.13-1.01,0.07-2.03,0.09-3.04c-0.03-0.75,0.01-1.56-0.42-2.21C82.74,64.43,81.78,64.11,80.95,64.33
		z"/>
	<path class="st0" d="M90.24,62.86c0.9-0.18,1.87-0.08,2.7,0.34c0.87,0.45,1.59,1.24,1.81,2.21c0.18,0.79,0.16,1.6,0.16,2.4
		c-0.01,1.02,0.04,2.04-0.13,3.05c-0.16,0.79-0.63,1.5-1.28,1.97c-1.17,0.89-2.84,1.02-4.16,0.39c-0.8-0.41-1.51-1.07-1.8-1.94
		c-0.26-0.72-0.22-1.5-0.29-2.25c-0.03-1.15-0.02-2.31,0.15-3.45C87.66,64.19,88.88,63.13,90.24,62.86 M90.58,64.32
		c-0.83,0.16-1.49,0.88-1.58,1.72c-0.16,1.4-0.14,2.82-0.01,4.22c0.07,0.84,0.69,1.62,1.52,1.79c0.69,0.22,1.48,0.01,2.02-0.46
		c0.44-0.38,0.64-0.96,0.68-1.52c0.08-1.25,0.08-2.51,0-3.76c-0.04-0.67-0.35-1.37-0.95-1.72C91.77,64.3,91.15,64.16,90.58,64.32z"
		/>
	<path class="st0" d="M112.47,63.08c1.08-0.43,2.34-0.39,3.39,0.11c0.77,0.37,1.39,1.05,1.72,1.84c0.14,0.35,0.3,0.71,0.27,1.09
		c-0.51,0-1.03,0.03-1.54-0.01c-0.22-0.35-0.29-0.79-0.59-1.09c-0.83-1.03-2.62-0.99-3.39,0.09c-0.56,0.79-0.45,1.81-0.49,2.73
		c0.03,1.08-0.12,2.23,0.33,3.25c0.64,1.25,2.53,1.42,3.47,0.42c0.61-0.59,0.73-1.51,0.6-2.32c-0.72,0-1.43-0.01-2.15,0
		c-0.07-0.45-0.12-0.95,0-1.39c1.27-0.02,2.54-0.04,3.81,0.01c-0.03,1.2,0.16,2.46-0.29,3.61c-0.59,1.46-2.22,2.33-3.77,2.21
		c-1.35-0.02-2.68-0.83-3.26-2.06c-0.48-1.09-0.32-2.3-0.35-3.45c0.01-1.18-0.12-2.45,0.49-3.51
		C111.12,63.92,111.75,63.38,112.47,63.08z"/>
	<path class="st0" d="M132.68,62.84c1.08-0.18,2.24,0.03,3.13,0.7c0.47,0.37,0.91,0.83,1.12,1.4c0.29,0.64,0.25,1.35,0.33,2.03
		c0.02,0.85,0.03,1.69,0,2.54c-0.09,0.66-0.04,1.35-0.33,1.97c-0.21,0.54-0.62,0.98-1.07,1.34c-1.49,1.17-3.86,1.06-5.19-0.31
		c-0.65-0.59-0.98-1.48-1-2.35c-0.1-1-0.04-2-0.06-3c0.04-0.81,0.04-1.66,0.42-2.41C130.55,63.74,131.58,63.05,132.68,62.84
		 M132.88,64.33c-0.84,0.18-1.47,0.96-1.55,1.8c-0.09,0.93-0.07,1.88-0.07,2.81c0.03,0.63-0.02,1.28,0.21,1.88
		c0.32,0.94,1.43,1.49,2.38,1.26c0.64-0.1,1.21-0.53,1.48-1.12c0.31-0.66,0.21-1.41,0.29-2.12c0.09-0.78-0.03-1.56-0.06-2.35
		c-0.02-0.49-0.12-1-0.42-1.4C134.65,64.42,133.7,64.1,132.88,64.33z"/>
	<path class="st0" d="M68.15,63.23c0-0.15,0-0.39,0.21-0.34c1.34-0.01,2.69,0,4.03,0c0.84,0,1.71,0.24,2.32,0.83
		c0.99,0.99,1.11,2.79,0.11,3.82c-0.19,0.2-0.45,0.32-0.59,0.56c0.73,0.35,1.29,1.06,1.38,1.88c0.08,0.74,0.04,1.55-0.37,2.19
		c-0.42,0.68-1.15,1.13-1.93,1.26c-0.68,0.12-1.38,0.07-2.06,0.08c-1.03-0.01-2.06,0.01-3.09-0.01c-0.07-1.55-0.01-3.1-0.03-4.65
		C68.15,66.98,68.16,65.1,68.15,63.23 M69.81,64.4c-0.01,0.98-0.01,1.95,0,2.93c0.67,0.1,1.35,0.03,2.02,0.05
		c0.49,0.02,1-0.03,1.42-0.3c0.86-0.53,0.83-2.01-0.06-2.49c-0.46-0.3-1.02-0.22-1.54-0.23C71.03,64.38,70.42,64.33,69.81,64.4
		 M69.8,68.88c-0.01,1.04-0.01,2.08,0,3.11c0.58,0.1,1.16,0.03,1.75,0.05c0.6-0.01,1.27,0.09,1.8-0.27c0.91-0.56,0.91-2.1,0-2.66
		c-0.6-0.36-1.32-0.29-1.99-0.29C70.84,68.83,70.32,68.77,69.8,68.88z"/>
	<path class="st0" d="M97.31,62.89c0.5,0,1.01-0.03,1.51,0.01c0.06,0.1,0.08,0.21,0.08,0.33c0,1.6-0.01,3.2,0,4.8
		c0.09-0.06,0.21-0.09,0.28-0.18c1.18-1.47,2.38-2.92,3.56-4.39c0.19-0.2,0.32-0.54,0.63-0.57c0.59-0.01,1.18-0.01,1.76,0.01
		c-0.07,0.13-0.13,0.27-0.22,0.38c-0.97,1.15-1.92,2.33-2.89,3.48c-0.1,0.14-0.29,0.31-0.13,0.48c1.07,1.83,2.15,3.66,3.22,5.49
		c0.14,0.25,0.34,0.49,0.37,0.79c-0.59,0.01-1.18-0.01-1.77,0.01c-0.17-0.18-0.3-0.38-0.41-0.59c-0.84-1.52-1.74-3.01-2.56-4.54
		c-0.11,0.04-0.22,0.08-0.29,0.18c-0.44,0.53-0.87,1.06-1.32,1.58c-0.11,0.14-0.25,0.28-0.25,0.46c-0.01,0.85,0,1.7,0,2.54
		c-0.02,0.12,0.04,0.31-0.13,0.34c-0.49,0.03-0.99,0.01-1.48-0.01c-0.06-0.52-0.03-1.04-0.04-1.56c0-2.65,0-5.3,0-7.95
		C97.25,63.62,97.22,63.25,97.31,62.89z"/>
	<path class="st0" d="M120.32,62.9c1.3-0.03,2.6,0,3.9-0.01c0.73-0.02,1.48,0.1,2.1,0.5c1.58,0.94,1.84,3.44,0.53,4.72
		c-0.33,0.34-0.78,0.54-1.21,0.73c0.32,0.83,0.8,1.58,1.19,2.38c0.36,0.77,0.84,1.48,1.13,2.28c-0.56,0.04-1.12,0.02-1.67,0.02
		c-0.2,0.01-0.28-0.21-0.37-0.36c-0.57-1.17-1.17-2.33-1.74-3.5c-0.12-0.2-0.19-0.49-0.41-0.59c-0.61-0.03-1.22-0.02-1.84,0.01
		c-0.09,1.47,0.03,2.95-0.06,4.43c-0.52,0.01-1.04,0.04-1.56,0c-0.09-0.23-0.05-0.48-0.05-0.72c0-3.15,0-6.3,0-9.45
		C120.25,63.18,120.23,63.03,120.32,62.9 M121.91,64.39c-0.04,1.07-0.02,2.15-0.01,3.22c0.55,0.08,1.11,0.03,1.67,0.04
		c0.6-0.01,1.26,0.06,1.78-0.29c0.83-0.52,0.92-1.82,0.25-2.5c-0.33-0.34-0.81-0.51-1.29-0.49
		C123.51,64.37,122.71,64.34,121.91,64.39z"/>
	<path class="st0" d="M139.53,62.9c0.51-0.04,1.03-0.01,1.54-0.01c0.06,0.36,0.04,0.73,0.04,1.1c0,1.87,0,3.74,0,5.61
		c-0.02,0.54,0.01,1.12,0.32,1.59c0.75,1.25,2.83,1.27,3.63,0.06c0.49-0.73,0.41-1.66,0.42-2.5c0.02-1.95-0.03-3.9,0.03-5.85
		c0.48-0.02,0.96-0.04,1.45,0c0.17,0,0.15,0.21,0.16,0.33c0,2.12,0,4.24,0,6.36c0.02,0.95-0.2,1.95-0.83,2.7
		c-1.01,1.21-2.8,1.59-4.28,1.14c-0.99-0.28-1.86-1.01-2.25-1.97c-0.31-0.7-0.31-1.48-0.31-2.24c0-2,0-3.99,0-5.99
		C139.43,63.11,139.46,63,139.53,62.9z"/>
	<path class="st0" d="M149.72,62.9c1.36-0.03,2.72,0,4.07-0.01c0.94,0,1.92,0.35,2.55,1.07c0.89,1.03,1.01,2.61,0.37,3.79
		c-0.42,0.78-1.21,1.32-2.06,1.49c-1.09,0.24-2.21,0.07-3.32,0.15c-0.02,1.36,0.02,2.73-0.02,4.09c-0.53,0.05-1.06,0.04-1.59,0.01
		c-0.04-2.86-0.01-5.72-0.02-8.58C149.71,64.25,149.66,63.57,149.72,62.9 M151.32,64.41c0.01,1.01,0.01,2.02,0,3.03
		c0.01,0.14-0.03,0.31,0.12,0.39c0.53,0.04,1.06,0,1.6,0.02c0.55,0,1.16,0.05,1.65-0.26c1.06-0.6,1.04-2.39-0.02-2.98
		c-0.54-0.34-1.21-0.22-1.82-0.24C152.34,64.38,151.82,64.32,151.32,64.41z"/>
</g>
</svg>
