<?xml version="1.0" encoding="utf-8"?>
<!-- Generator: Adobe Illustrator 28.0.0, SVG Export Plug-In . SVG Version: 6.00 Build 0)  -->
<svg version="1.1" id="Layer_1" xmlns="http://www.w3.org/2000/svg" xmlns:xlink="http://www.w3.org/1999/xlink" x="0px" y="0px"
	 viewBox="0 0 220 100" style="enable-background:new 0 0 220 100;" xml:space="preserve">
<style type="text/css">
	.st0{fill:#07222D;}
</style>
<g id="_x23_72777bff">
	<path class="st0" d="M68.2,26.4c0.8,0,1.6,0,2.4,0c0.2,0,0.2,0.1,0.2,0.3c0,3.7,0,7.5,0,11.2c0.1,0,0.2,0,0.2,0
		c1-1.2,2.5-1.9,4-2.2c0.8-0.2,1.5-0.1,2.3-0.1c1.7,0.1,3.5,0.7,4.7,2c1.1,1.1,1.7,2.5,1.9,4c0.2,1.2,0.1,2.3,0.1,3.5
		c0,3.7,0,7.5,0,11.2c-0.9,0-1.8,0-2.6,0c-0.1-4.4,0-8.8,0-13.2c-0.1-1.2-0.4-2.5-1.2-3.5c-0.9-1-2.2-1.5-3.5-1.6
		c-1.4-0.1-2.8,0.2-3.9,1.1c-1,0.8-1.6,2.2-1.8,3.5c-0.1,0.7-0.1,1.4-0.1,2.2c0,3.8,0,7.6,0,11.3c0,0.2-0.1,0.2-0.2,0.2
		c-0.7,0-1.4,0-2.1,0c-0.2,0-0.5,0-0.4-0.2c0-9.7,0-19.4,0-29.1C68.2,26.7,68.2,26.5,68.2,26.4z"/>
	<path class="st0" d="M125.5,26.7c0-0.1,0-0.4,0.2-0.4c0.8,0,1.7,0,2.5,0c0.1,3.8,0,7.7,0,11.5c0.2-0.1,0.4-0.3,0.6-0.4
		c1.4-1.3,3.3-2,5.3-2c2.1-0.1,4.2,0.6,5.6,2.2c1.1,1.2,1.6,2.7,1.8,4.3c0.1,1,0,1.9,0,2.9c0,3.8,0,7.5,0,11.3c-0.8,0.1-1.5,0-2.3,0
		c-0.1,0-0.4,0-0.4-0.2c0-4.3,0-8.7,0-13c-0.1-1-0.3-2-0.8-2.9c-0.6-1-1.6-1.8-2.8-2.1c-1.3-0.3-2.6-0.3-3.9,0.2
		c-1,0.3-1.8,1-2.3,1.9c-0.7,1.1-0.9,2.5-0.9,3.8c0,3,0,6,0,9.1c0,1.1,0,2.2,0,3.2c-0.9,0-1.8,0-2.6,0c-0.1-2.2,0-4.5,0-6.7
		C125.5,41.9,125.5,34.3,125.5,26.7z"/>
	<path class="st0" d="M165.4,29.6c0-0.1,0.1-0.3,0.2-0.2c0.8,0,1.6,0,2.4,0c0.1,1.8,0,3.5,0,5.3c0,0.4-0.1,0.7,0.1,1.1
		c0.2,0.1,0.4,0.1,0.6,0.1c1,0,2.1,0,3.1,0c0,0,0.1,0.1,0.1,0.1c-0.1,0.6,0,1.2,0,1.9c-1.3,0.1-2.5-0.1-3.8,0.1c-0.1,1,0,2,0,3
		c0,3.2,0,6.4,0,9.6c0,0.7,0.1,1.3,0.4,2c0.4,0.7,1.1,1.2,1.8,1.3c0.7,0.1,1.4,0,2.1,0.1c0,0.6,0,1.2,0,1.8c0,0.2,0,0.4-0.1,0.5
		c-0.6,0-1.3,0-1.9,0c-1,0-2-0.2-2.9-0.8c-1.2-0.8-1.9-2.1-2.1-3.4c-0.1-0.7-0.1-1.3-0.1-2c0-4,0-7.9,0-11.9c0-0.2-0.2-0.2-0.3-0.2
		c-0.8,0-1.5,0-2.3,0c0-0.7,0-1.3,0-2c0.9,0,1.7,0,2.5,0c0.1-0.3,0.1-0.6,0.1-0.9C165.4,33.2,165.4,31.4,165.4,29.6z"/>
	<path class="st0" d="M175.9,29.4c0.8,0,1.6,0,2.4,0c0.1,0,0.2,0.1,0.2,0.2c0,2,0,4.1,0,6.1c0,0,0.1,0.1,0.1,0.1c1.2,0,2.5,0,3.7,0
		c0,0.7,0,1.3,0,2c-1.1,0.1-2.3,0-3.4,0c-0.1,0-0.3,0-0.4,0.1c0,4,0,8.1,0,12.1c0,0.9,0,1.9,0.5,2.7c0.4,0.6,1.1,1,1.8,1.1
		c0.7,0.1,1.4,0,2,0.1c0,0.7,0,1.4,0,2.1c0,0.2-0.3,0.2-0.4,0.2c-0.8,0-1.6,0-2.4-0.1c-1-0.2-2-0.6-2.7-1.3c-1-1-1.4-2.4-1.4-3.7
		c0-4,0-7.9,0-11.9c0-0.4,0-0.9,0-1.3c-0.9-0.1-1.7,0-2.6,0c-0.1-0.4,0-0.8-0.1-1.3c0-0.2-0.1-0.5,0.1-0.7c0.8,0,1.7,0,2.5,0
		c0.1-0.4,0.1-0.9,0.1-1.3C175.9,32.8,175.8,31.1,175.9,29.4z"/>
	<path class="st0" d="M90.1,36.7c1.2-0.8,2.6-1.1,4-1.2c1.5,0,3-0.1,4.5,0.3c1.3,0.3,2.5,0.9,3.3,1.9c1.1,1.2,1.5,2.9,1.5,4.5
		c0,4.6,0,9.3,0,13.9c-0.8,0-1.7,0-2.5,0c0,0-0.1,0-0.1-0.1c-0.1-0.6,0-1.2,0-1.8c-0.1,0.1-0.3,0.1-0.4,0.2
		c-0.7,0.6-1.4,1.1-2.3,1.4c-1,0.4-2.1,0.4-3.2,0.5c-1.4,0-2.9-0.1-4.2-0.6c-1.3-0.5-2.4-1.7-2.9-3c-0.6-1.5-0.6-3.2,0-4.7
		c0.5-1.3,1.5-2.3,2.8-2.8c1.4-0.7,3-0.8,4.6-0.8c1,0,2,0,3,0c0,0.7,0,1.4,0,2.1c-1.6,0-3.1,0-4.6,0.1c-0.9,0.2-1.8,0.4-2.5,1.1
		c-0.7,0.7-1,1.8-1,2.8c0,1,0.4,2,1.1,2.6c0.8,0.7,1.9,0.8,2.9,0.9c1.2,0.1,2.4,0,3.6-0.2c0.9-0.3,1.8-0.8,2.4-1.6
		c0.6-0.9,0.7-2,0.8-3.1c0-2.2,0-4.4,0-6.7c0-0.3-0.1-0.7-0.1-1c-0.1-1-0.6-2-1.4-2.7c-0.7-0.5-1.5-0.8-2.3-0.9
		c-1-0.1-2.1-0.1-3.1,0c-1.4,0.1-2.7,0.8-3.5,1.9c-0.2,0.2-0.2,0.4-0.5,0.4c-0.6-0.5-1.2-1-1.7-1.6C88.6,37.8,89.3,37.2,90.1,36.7z"
		/>
	<path class="st0" d="M110.6,37.5c1.6-1.4,3.8-2,5.9-1.9c1.2,0,2.3,0.2,3.4,0.6c1.1,0.5,2.1,1.2,2.9,2.1c0.1,0.1,0.2,0.3,0.3,0.5
		c-0.5,0.5-1.1,1-1.6,1.5c-0.1,0.1-0.3,0.1-0.4,0c-0.9-1-2-1.9-3.3-2.1c-1.3-0.2-2.8-0.2-4.1,0.4c-1.3,0.6-2.4,1.7-3,3.1
		c-0.6,1.4-0.7,3-0.7,4.5c0,1.6,0.1,3.3,0.8,4.8c0.7,1.4,1.9,2.6,3.5,3.1c0.5,0.2,1.1,0.2,1.6,0.3c0.6,0.1,1.3,0,1.9-0.1
		c1.4-0.3,2.5-1.2,3.4-2.2c0.2,0,0.4,0.2,0.6,0.4c0.4,0.4,0.8,0.7,1.2,1.1c0.1,0.1,0.1,0.2,0,0.3c-0.9,1-2,1.9-3.2,2.4
		c-1.3,0.5-2.8,0.6-4.2,0.5c-1.6-0.1-3.2-0.6-4.5-1.6c-1.3-1-2.3-2.4-2.9-3.9c-0.6-1.6-0.8-3.3-0.8-5c0-1.5,0.2-3,0.7-4.4
		C108.5,40,109.3,38.5,110.6,37.5z"/>
	<path class="st0" d="M147.4,38.1c1.4-1.7,3.6-2.6,5.8-2.5c1.9-0.1,3.8,0.5,5.2,1.7c1.2,1,2,2.3,2.4,3.7c0.4,1.3,0.7,2.7,0.7,4.1
		c0,0.6,0.1,1.1,0,1.7c-3.7,0-7.5,0-11.2,0c-0.1-0.7-0.1-1.4,0-2.2c2.5,0,5,0,7.4,0c0.3,0,0.7,0,1,0c0.2-0.1,0.1-0.3,0.1-0.5
		c-0.1-1.7-0.6-3.6-1.9-4.8c-1.5-1.5-3.9-1.8-5.8-1.1c-1.2,0.5-2.2,1.4-2.8,2.6c-0.4,0.8-0.7,1.8-0.8,2.7c-0.1,1.2-0.1,2.4,0,3.7
		c0.1,1.7,0.4,3.4,1.4,4.8c0.5,0.7,1.2,1.3,2.1,1.7c0.9,0.4,1.9,0.5,2.8,0.5c0.9,0,1.9-0.1,2.7-0.5c0.9-0.4,1.7-1,2.4-1.6
		c0.1-0.1,0.2-0.2,0.4-0.3c0.6,0.5,1.2,1,1.8,1.5c-0.2,0.4-0.5,0.6-0.8,0.9c-1.1,0.9-2.3,1.7-3.7,2c-1.2,0.3-2.4,0.3-3.6,0.3
		c-1.9-0.1-3.8-0.7-5.1-2c-1.5-1.4-2.3-3.5-2.7-5.5c-0.3-1.9-0.3-3.8,0-5.7C145.5,41.3,146.2,39.5,147.4,38.1z"/>
	<path class="st0" d="M187.9,36.4c1.6-0.9,3.5-1,5.3-0.8c1.4,0.2,2.8,0.8,3.9,1.7c1.4,1.2,2.3,3,2.7,4.8c0.3,1.5,0.4,3,0.3,4.5
		c-1.1,0.1-2.2,0-3.2,0c-1.9,0-3.8,0-5.7,0c-0.8,0-1.6,0-2.3,0c0-0.7,0-1.4,0-2.1c2.4,0,4.9,0,7.4,0c0.4,0,0.9,0,1.3-0.1
		c0-1.1-0.1-2.1-0.5-3.1c-0.5-1.4-1.6-2.7-3.1-3.2c-1.7-0.7-3.8-0.4-5.3,0.7c-1.2,0.9-1.9,2.3-2.2,3.8c-0.3,1.4-0.2,2.9-0.2,4.3
		c0.1,1.7,0.4,3.4,1.3,4.8c0.6,0.9,1.5,1.6,2.5,2c0.8,0.3,1.6,0.4,2.5,0.4c0.8,0,1.6-0.1,2.4-0.4c1.2-0.4,2.1-1.2,3-2
		c0.6,0.5,1.2,1,1.8,1.5c0,0.2-0.2,0.2-0.2,0.3c-0.9,0.8-1.8,1.6-2.9,2.1c-1.6,0.8-3.5,0.9-5.2,0.8c-1.9-0.1-3.7-0.8-5.1-2.1
		c-1.4-1.4-2.1-3.3-2.5-5.2c-0.1-0.6-0.2-1.2-0.2-1.8c-0.1-2.4,0-4.8,1-7C185.1,38.7,186.3,37.2,187.9,36.4z"/>
	<path class="st0" d="M20,35.8c0.2,0,0.5,0,0.8,0c4.5,0,9,0,13.5,0c0.1,0.5,0,0.9,0,1.4c0,3.1,0,6.2,0,9.3c0,0.3,0,0.7,0,1
		c0.2,0,0.3,0,0.4,0c3.6,0,7.1,0,10.7,0c0.1,0,0.3,0,0.4,0c0.1,0.4,0,0.9,0,1.3c0,0.4,0,0.9,0,1.3c-0.1,0.1-0.2,0.1-0.3,0.1
		c-4.5,0-9,0-13.6,0c-0.1,0-0.3,0-0.4,0c-0.1-0.3,0-0.7,0-1.1c0-3.3,0-6.6,0-9.9c0-0.2,0-0.4-0.1-0.6c-2.8,0-5.6,0-8.4,0
		c-0.1,0-0.3,0-0.4,0.1c-0.1,0.3,0,0.7,0,1.1c0,9.8,0,19.5,0,29.3c0,0.6,0,1.1,0,1.7c3.8,0,7.5,0,11.3,0c0.1,0,0.2,0,0.3,0
		c0.1,0.3,0,0.6,0,0.9c0,0.6,0,1.2,0,1.9c-4.8,0-9.5,0-14.2,0C20,73.5,20,35.8,20,35.8z"/>
	<path class="st0" d="M43.2,35.9c0.1,0,0.3,0,0.4,0c4.6,0,9.3,0,13.9,0c0,0.1,0,0.3,0,0.4c0,11.9,0,23.9,0,35.8c0,0.5,0,0.9,0,1.4
		c-4.1,0-8.3,0-12.4,0c-0.6,0-1.3,0-1.9,0c0-3.8,0-7.5,0-11.3c0-0.1,0-0.2-0.1-0.3c-3.7,0-7.5,0-11.2,0c-0.2,0-0.3,0-0.4-0.2
		c0.1-0.8,0-1.6,0-2.4c0-0.2,0.2-0.1,0.4-0.2c4.4,0,8.8,0,13.2,0c0.3,0,0.5,0,0.8,0c0.1,0.1,0,0.3,0,0.4c0,3.1,0,6.1,0,9.2
		c0,0.7,0,1.3,0,2c2.8,0,5.6,0,8.4,0c0.1,0,0.3,0,0.4-0.1c0.1-0.3,0-0.7,0-1c0-10.2,0-20.5,0-30.7c0-0.2,0-0.3-0.1-0.4
		c-3.6,0-7.2,0-10.8,0c-0.2,0-0.5,0-0.7,0c-0.1-0.4,0-0.8,0-1.1C43.2,36.9,43.1,36.4,43.2,35.9z"/>
	<path class="st0" d="M80.7,62.8c1-0.2,2,0,2.8,0.5c0.9,0.5,1.6,1.5,1.7,2.6c0.1,1.4,0.1,2.9,0,4.3c0,0.8-0.4,1.7-1,2.2
		c-0.7,0.7-1.7,1.1-2.7,1.1c-1.5,0.1-3-0.8-3.6-2.1c-0.4-1.1-0.3-2.3-0.3-3.5c0-1.1-0.1-2.4,0.5-3.4C78.7,63.7,79.6,63,80.7,62.8
		 M80.9,64.3c-0.8,0.2-1.4,0.8-1.5,1.5c-0.2,1-0.1,2.1-0.1,3.1c0,0.4,0,0.9,0.1,1.3c0.1,0.7,0.4,1.3,1,1.6c0.5,0.2,1.1,0.4,1.6,0.2
		c0.8-0.2,1.4-0.9,1.5-1.7c0.1-1,0.1-2,0.1-3c0-0.8,0-1.6-0.4-2.2C82.7,64.4,81.8,64.1,80.9,64.3z"/>
	<path class="st0" d="M90.2,62.9c0.9-0.2,1.9-0.1,2.7,0.3c0.9,0.5,1.6,1.2,1.8,2.2c0.2,0.8,0.2,1.6,0.2,2.4c0,1,0,2-0.1,3.1
		c-0.2,0.8-0.6,1.5-1.3,2c-1.2,0.9-2.8,1-4.2,0.4c-0.8-0.4-1.5-1.1-1.8-1.9c-0.3-0.7-0.2-1.5-0.3-2.2c0-1.2,0-2.3,0.2-3.4
		C87.7,64.2,88.9,63.1,90.2,62.9 M90.6,64.3c-0.8,0.2-1.5,0.9-1.6,1.7c-0.2,1.4-0.1,2.8,0,4.2c0.1,0.8,0.7,1.6,1.5,1.8
		c0.7,0.2,1.5,0,2-0.5c0.4-0.4,0.6-1,0.7-1.5c0.1-1.2,0.1-2.5,0-3.8c0-0.7-0.3-1.4-0.9-1.7C91.8,64.3,91.2,64.2,90.6,64.3z"/>
	<path class="st0" d="M112.5,63.1c1.1-0.4,2.3-0.4,3.4,0.1c0.8,0.4,1.4,1.1,1.7,1.8c0.1,0.3,0.3,0.7,0.3,1.1c-0.5,0-1,0-1.5,0
		c-0.2-0.3-0.3-0.8-0.6-1.1c-0.8-1-2.6-1-3.4,0.1c-0.6,0.8-0.4,1.8-0.5,2.7c0,1.1-0.1,2.2,0.3,3.2c0.6,1.2,2.5,1.4,3.5,0.4
		c0.6-0.6,0.7-1.5,0.6-2.3c-0.7,0-1.4,0-2.2,0c-0.1-0.4-0.1-0.9,0-1.4c1.3,0,2.5,0,3.8,0c0,1.2,0.2,2.5-0.3,3.6
		c-0.6,1.5-2.2,2.3-3.8,2.2c-1.3,0-2.7-0.8-3.3-2.1c-0.5-1.1-0.3-2.3-0.3-3.4c0-1.2-0.1-2.4,0.5-3.5
		C111.1,63.9,111.8,63.4,112.5,63.1z"/>
	<path class="st0" d="M132.7,62.8c1.1-0.2,2.2,0,3.1,0.7c0.5,0.4,0.9,0.8,1.1,1.4c0.3,0.6,0.2,1.3,0.3,2c0,0.8,0,1.7,0,2.5
		c-0.1,0.7,0,1.3-0.3,2c-0.2,0.5-0.6,1-1.1,1.3c-1.5,1.2-3.9,1.1-5.2-0.3c-0.6-0.6-1-1.5-1-2.3c-0.1-1,0-2-0.1-3
		c0-0.8,0-1.7,0.4-2.4C130.6,63.7,131.6,63,132.7,62.8 M132.9,64.3c-0.8,0.2-1.5,1-1.6,1.8c-0.1,0.9-0.1,1.9-0.1,2.8
		c0,0.6,0,1.3,0.2,1.9c0.3,0.9,1.4,1.5,2.4,1.3c0.6-0.1,1.2-0.5,1.5-1.1c0.3-0.7,0.2-1.4,0.3-2.1c0.1-0.8,0-1.6-0.1-2.3
		c0-0.5-0.1-1-0.4-1.4C134.6,64.4,133.7,64.1,132.9,64.3z"/>
	<path class="st0" d="M68.2,63.2c0-0.2,0-0.4,0.2-0.3c1.3,0,2.7,0,4,0c0.8,0,1.7,0.2,2.3,0.8c1,1,1.1,2.8,0.1,3.8
		c-0.2,0.2-0.4,0.3-0.6,0.6c0.7,0.3,1.3,1.1,1.4,1.9c0.1,0.7,0,1.6-0.4,2.2c-0.4,0.7-1.2,1.1-1.9,1.3c-0.7,0.1-1.4,0.1-2.1,0.1
		c-1,0-2.1,0-3.1,0c-0.1-1.6,0-3.1,0-4.7C68.2,67,68.2,65.1,68.2,63.2 M69.8,64.4c0,1,0,1.9,0,2.9c0.7,0.1,1.3,0,2,0.1
		c0.5,0,1,0,1.4-0.3c0.9-0.5,0.8-2-0.1-2.5c-0.5-0.3-1-0.2-1.5-0.2C71,64.4,70.4,64.3,69.8,64.4 M69.8,68.9c0,1,0,2.1,0,3.1
		c0.6,0.1,1.2,0,1.8,0.1c0.6,0,1.3,0.1,1.8-0.3c0.9-0.6,0.9-2.1,0-2.7c-0.6-0.4-1.3-0.3-2-0.3C70.8,68.8,70.3,68.8,69.8,68.9z"/>
	<path class="st0" d="M97.3,62.9c0.5,0,1,0,1.5,0c0.1,0.1,0.1,0.2,0.1,0.3c0,1.6,0,3.2,0,4.8c0.1-0.1,0.2-0.1,0.3-0.2
		c1.2-1.5,2.4-2.9,3.6-4.4c0.2-0.2,0.3-0.5,0.6-0.6c0.6,0,1.2,0,1.8,0c-0.1,0.1-0.1,0.3-0.2,0.4c-1,1.2-1.9,2.3-2.9,3.5
		c-0.1,0.1-0.3,0.3-0.1,0.5c1.1,1.8,2.2,3.7,3.2,5.5c0.1,0.2,0.3,0.5,0.4,0.8c-0.6,0-1.2,0-1.8,0c-0.2-0.2-0.3-0.4-0.4-0.6
		c-0.8-1.5-1.7-3-2.6-4.5c-0.1,0-0.2,0.1-0.3,0.2c-0.4,0.5-0.9,1.1-1.3,1.6c-0.1,0.1-0.2,0.3-0.2,0.5c0,0.8,0,1.7,0,2.5
		c0,0.1,0,0.3-0.1,0.3c-0.5,0-1,0-1.5,0c-0.1-0.5,0-1,0-1.6c0-2.7,0-5.3,0-8C97.2,63.6,97.2,63.2,97.3,62.9z"/>
	<path class="st0" d="M120.3,62.9c1.3,0,2.6,0,3.9,0c0.7,0,1.5,0.1,2.1,0.5c1.6,0.9,1.8,3.4,0.5,4.7c-0.3,0.3-0.8,0.5-1.2,0.7
		c0.3,0.8,0.8,1.6,1.2,2.4c0.4,0.8,0.8,1.5,1.1,2.3c-0.6,0-1.1,0-1.7,0c-0.2,0-0.3-0.2-0.4-0.4c-0.6-1.2-1.2-2.3-1.7-3.5
		c-0.1-0.2-0.2-0.5-0.4-0.6c-0.6,0-1.2,0-1.8,0c-0.1,1.5,0,2.9-0.1,4.4c-0.5,0-1,0-1.6,0c-0.1-0.2-0.1-0.5-0.1-0.7
		c0-3.2,0-6.3,0-9.5C120.2,63.2,120.2,63,120.3,62.9 M121.9,64.4c0,1.1,0,2.2,0,3.2c0.6,0.1,1.1,0,1.7,0c0.6,0,1.3,0.1,1.8-0.3
		c0.8-0.5,0.9-1.8,0.2-2.5c-0.3-0.3-0.8-0.5-1.3-0.5C123.5,64.4,122.7,64.3,121.9,64.4z"/>
	<path class="st0" d="M139.5,62.9c0.5,0,1,0,1.5,0c0.1,0.4,0,0.7,0,1.1c0,1.9,0,3.7,0,5.6c0,0.5,0,1.1,0.3,1.6
		c0.8,1.2,2.8,1.3,3.6,0.1c0.5-0.7,0.4-1.7,0.4-2.5c0-1.9,0-3.9,0-5.8c0.5,0,1,0,1.4,0c0.2,0,0.1,0.2,0.2,0.3c0,2.1,0,4.2,0,6.4
		c0,0.9-0.2,1.9-0.8,2.7c-1,1.2-2.8,1.6-4.3,1.1c-1-0.3-1.9-1-2.2-2c-0.3-0.7-0.3-1.5-0.3-2.2c0-2,0-4,0-6
		C139.4,63.1,139.5,63,139.5,62.9z"/>
	<path class="st0" d="M149.7,62.9c1.4,0,2.7,0,4.1,0c0.9,0,1.9,0.3,2.6,1.1c0.9,1,1,2.6,0.4,3.8c-0.4,0.8-1.2,1.3-2.1,1.5
		c-1.1,0.2-2.2,0.1-3.3,0.2c0,1.4,0,2.7,0,4.1c-0.5,0.1-1.1,0-1.6,0c0-2.9,0-5.7,0-8.6C149.7,64.2,149.7,63.6,149.7,62.9
		 M151.3,64.4c0,1,0,2,0,3c0,0.1,0,0.3,0.1,0.4c0.5,0,1.1,0,1.6,0c0.6,0,1.2,0.1,1.6-0.3c1.1-0.6,1-2.4,0-3
		c-0.5-0.3-1.2-0.2-1.8-0.2C152.3,64.4,151.8,64.3,151.3,64.4z"/>
</g>
</svg>
