<?xml version="1.0" encoding="utf-8"?>
<!-- Generator: Adobe Illustrator 26.0.2, SVG Export Plug-In . SVG Version: 6.00 Build 0)  -->
<svg version="1.1" id="Layer_1" xmlns="http://www.w3.org/2000/svg" xmlns:xlink="http://www.w3.org/1999/xlink" x="0px" y="0px"
	 viewBox="0 0 220 100" style="enable-background:new 0 0 220 100;" xml:space="preserve">
<style type="text/css">
	.st0{fill:#07222D;}
	.st1{filter:url(#Adobe_OpacityMaskFilter);}
	.st2{fill-rule:evenodd;clip-rule:evenodd;fill:#FFFFFF;}
	.st3{mask:url(#mask-2_00000172419927635028950350000016990595500894708871_);fill-rule:evenodd;clip-rule:evenodd;fill:#07222D;}
	.st4{filter:url(#Adobe_OpacityMaskFilter_00000084511846879842119110000012824029687579053440_);}
	.st5{mask:url(#mask-4_00000031179769895205708410000007030728210091176124_);fill-rule:evenodd;clip-rule:evenodd;fill:#07222D;}
</style>
<g id="layer1" transform="translate(-99.605768,-185.61492)">
	<g id="g14902" transform="matrix(2.2746041,0,0,2.2746041,-126.45792,-260.61676)">
		<path id="path3596" class="st0" d="M108.18,213.43h3.56v3.19h1.66v-3.19h3.56v9.44h-3.56v-3.53h-1.66v3.53h-3.56"/>
		<path id="path3602" class="st0" d="M123.52,213.43h7.07v2.42h-3.5v1.02h3.25v2.43h-3.25v1.11h3.62v2.45h-7.19"/>
		<path id="path3608" class="st0" d="M142,219.08h-1.68l0.87-3.73L142,219.08z M135.84,222.89h3.58l0.35-1.51h2.74l0.33,1.51h3.9
			l-2.98-9.46h-4.8"/>
		<path id="path3614" class="st0" d="M155.46,217.33v-1.78c0.15-0.01,0.29-0.01,0.4-0.01c0.8,0,1.15,0.25,1.15,0.84
			c0,0.6-0.44,0.97-1.3,0.97C155.64,217.34,155.55,217.34,155.46,217.33 M151.9,222.88h3.56v-3.42c0.11-0.01,0.23-0.01,0.33-0.01
			c0.85,0,0.97,0.4,1.11,1.42l0.09,0.7c0.05,0.42,0.16,0.85,0.28,1.31h3.61c-0.16-0.7-0.28-1.26-0.33-1.68l-0.12-1.01
			c-0.17-1.36-0.47-1.94-1.74-2.15c1.23-0.33,1.86-1.06,1.86-2.2c0-1.89-1.22-2.4-3.82-2.4h-4.83"/>
		<path id="path3620" class="st0" d="M169.46,219.85v0.08c0,0.65,0.29,0.94,0.9,0.94c0.55,0,0.88-0.27,0.88-0.68
			c0-0.3-0.13-0.53-0.37-0.65c-0.48-0.24-1.34-0.37-2.45-0.72c-1.52-0.48-2.23-1.23-2.23-2.55c0-1.85,1.5-2.96,4.25-2.96
			c2.5,0,3.83,0.93,3.83,2.6v0.2h-3.13c-0.04-0.56-0.3-0.84-0.82-0.84c-0.48,0-0.79,0.27-0.79,0.63c0,0.66,0.66,0.63,1.85,0.96
			c2.19,0.58,3.24,1.19,3.24,2.9c0,2-1.6,3.3-4.33,3.3c-2.77,0-4.24-1.04-4.24-2.85c0-0.1,0-0.22,0.02-0.34"/>
		<path id="path3626" class="st0" d="M187.31,215.95h-2.27v6.92h-3.64v-6.92h-2.29v-2.52h8.2"/>
	</g>
</g>
</svg>
