<?xml version="1.0" encoding="utf-8"?>
<!-- Generator: Adobe Illustrator 26.0.2, SVG Export Plug-In . SVG Version: 6.00 Build 0)  -->
<svg version="1.1" id="Layer_1" xmlns="http://www.w3.org/2000/svg" xmlns:xlink="http://www.w3.org/1999/xlink" x="0px" y="0px"
	 viewBox="0 0 220 100" style="enable-background:new 0 0 220 100;" xml:space="preserve">
<style type="text/css">
	.st0{fill:#07222D;}
	.st1{filter:url(#Adobe_OpacityMaskFilter);}
	.st2{fill-rule:evenodd;clip-rule:evenodd;fill:#FFFFFF;}
	.st3{mask:url(#mask-2_00000172419927635028950350000016990595500894708871_);fill-rule:evenodd;clip-rule:evenodd;fill:#07222D;}
	.st4{filter:url(#Adobe_OpacityMaskFilter_00000147210973841560896540000008747910036726164881_);}
	.st5{mask:url(#mask-4_00000031179769895205708410000007030728210091176124_);fill-rule:evenodd;clip-rule:evenodd;fill:#07222D;}
</style>
<g>
	<path class="st0" d="M98.13,0h5.59v15.51h-5.59V0 M107.23,0h5.59v15.51h-5.59V0 M116.37,0h5.59v15.51h-5.59V0 M98.13,19.32h5.59
		v15.51h-5.59V19.32 M107.23,19.32h5.59v15.51h-5.59V19.32 M116.37,19.32h5.59v15.51h-5.59V19.32"/>
	<path class="st0" d="M141.53,44.08c1.23-0.06,2.41-0.47,3.61-0.65c-0.15,3.89-0.16,7.78-0.13,11.67c0.04,0.62-0.01,1.25,0.14,1.85
		c0.37,0.43,1.04,0.29,1.54,0.41c0,0.23-0.01,0.46-0.01,0.69c-1.19-0.1-2.38-0.1-3.57,0c0.02-0.58,0.02-1.16,0.02-1.74
		c-0.66,0.55-1.29,1.14-1.96,1.68c-1.41,0.45-3.1,0.19-4.17-0.88c-1.01-1.02-1.35-2.53-1.25-3.92c0.08-1.02,0.4-2.08,1.11-2.83
		c0.75-0.61,1.6-1.08,2.46-1.51c1.21-0.62,2.66-0.4,3.84,0.18c-0.05-1.33,0.11-2.69-0.14-4.01c-0.37-0.34-1.02-0.16-1.51-0.22
		C141.53,44.55,141.53,44.31,141.53,44.08 M139.62,49.65c-1.37,0.38-1.96,1.89-1.96,3.19c-0.12,1.51,0.54,3.26,2.07,3.79
		c1.46,0.6,3.18-0.55,3.36-2.08c0.1-1.2,0.12-2.41,0.07-3.62C142.39,49.89,140.91,49.25,139.62,49.65L139.62,49.65z"/>
	<path class="st0" d="M73.26,44.01c1.97,0.08,3.93,0.1,5.89,0v0.79c-0.57,0.12-1.45-0.17-1.79,0.44c-0.22,1.59-0.08,3.22-0.11,4.82
		c2.62,0.07,5.25,0.1,7.87,0.01c0.03-1.44,0.01-2.89-0.06-4.33c-0.04-0.28-0.02-0.67-0.34-0.79c-0.5-0.17-1.03-0.1-1.55-0.16
		c0-0.26,0-0.53,0.01-0.79c1.96,0.11,3.93,0.09,5.89,0c0,0.26,0,0.53-0.01,0.8c-0.58,0.1-1.33-0.14-1.76,0.34
		c-0.19,0.58-0.13,1.21-0.14,1.81c-0.07,2.48-0.04,4.97-0.03,7.45c0.07,0.84-0.05,1.71,0.18,2.54c0.47,0.41,1.18,0.23,1.75,0.3
		c0.01,0.27,0.01,0.53,0.01,0.8c-1.96-0.1-3.93-0.13-5.89,0c0-0.27,0-0.53,0-0.79c0.51-0.05,1.05,0.02,1.54-0.15
		c0.33-0.09,0.3-0.49,0.34-0.76c0.05-1.73,0.08-3.46,0.07-5.19c-2.63-0.08-5.26-0.1-7.89,0c0.03,1.77-0.06,3.55,0.05,5.32
		c0.01,0.97,1.22,0.67,1.86,0.76c0,0.27,0,0.53,0,0.79c-1.96-0.12-3.93-0.1-5.9,0c0-0.27,0-0.53,0-0.8
		c0.58-0.07,1.24,0.07,1.75-0.28c0.21-0.6,0.14-1.25,0.16-1.88c0.08-2.6,0.03-5.21,0.04-7.81c-0.07-0.73,0.05-1.5-0.18-2.2
		c-0.48-0.4-1.19-0.21-1.77-0.31C73.26,44.53,73.26,44.27,73.26,44.01L73.26,44.01z"/>
	<path class="st0" d="M90.64,49.8c0.92-0.56,1.87-1.21,2.98-1.29c1.16-0.12,2.49,0.14,3.25,1.1c0.47,0.56,0.6,1.32,0.59,2.03
		c-0.03,1.61-0.12,3.23-0.05,4.84c0.03,0.24-0.01,0.53,0.2,0.7c0.36,0.1,0.74,0.11,1.12,0.15v0.73c-1.05-0.12-2.11-0.09-3.17,0
		c0.05-0.54,0.06-1.08,0.05-1.61c-0.77,0.55-1.5,1.18-2.34,1.63c-1.18,0.42-2.8,0.01-3.28-1.25c-0.47-1.35,0.05-3.16,1.45-3.73
		c1.34-0.5,2.76-0.76,4.17-0.95c-0.02-0.63-0.06-1.34-0.55-1.79c-0.7-0.74-1.85-0.79-2.77-0.5c-0.69,0.18-0.74,1.02-1.03,1.55
		c-0.22-0.07-0.44-0.13-0.66-0.2C90.63,50.73,90.63,50.27,90.64,49.8 M92.74,53.68c-0.91,0.35-1.21,1.53-0.91,2.39
		c0.23,0.64,0.99,0.88,1.61,0.77c0.89-0.12,1.58-0.78,2.17-1.41c-0.01-0.84,0-1.68-0.01-2.52C94.64,53.1,93.65,53.27,92.74,53.68z"
		/>
	<path class="st0" d="M99.7,49.31c1.12-0.14,2.22-0.4,3.26-0.84c0.28,0.11,0.16,0.45,0.18,0.67c-0.02,0.47-0.06,0.94-0.07,1.41
		c0.63-0.69,1.06-1.66,2.02-1.95c0.55-0.21,1.13-0.11,1.67,0.08c-0.04,0.86-0.13,1.72-0.18,2.59c-0.18-0.01-0.36-0.01-0.53-0.02
		c-0.24-0.37-0.5-0.81-0.98-0.88c-0.9-0.18-1.73,0.59-1.88,1.44c-0.23,1.26-0.06,2.55-0.07,3.83c-0.01,0.49,0.03,0.98,0.13,1.47
		c0.6,0.14,1.21,0.19,1.82,0.23v0.73c-1.83-0.1-3.67-0.14-5.5-0.01c0-0.24,0-0.49,0-0.73c0.5-0.02,1.03,0.06,1.51-0.12
		c0.16-0.32,0.18-0.69,0.18-1.04c0.02-2.02,0.14-4.04-0.06-6.05c-0.5-0.07-1-0.07-1.5-0.06C99.69,49.79,99.69,49.55,99.7,49.31
		L99.7,49.31z"/>
	<path class="st0" d="M119.05,49.8c0.93-0.56,1.88-1.22,3-1.29c1.26-0.14,2.73,0.24,3.42,1.4c0.63,1.11,0.3,2.44,0.34,3.65
		c0.05,1.21-0.1,2.43,0.1,3.62c0.4,0.08,0.8,0.12,1.2,0.16c0,0.24,0,0.48,0,0.72c-1.04-0.12-2.08-0.09-3.12,0
		c0-0.55,0.01-1.09,0.05-1.64c-0.77,0.55-1.49,1.18-2.33,1.64c-1.18,0.44-2.8,0.02-3.3-1.23c-0.52-1.4,0.09-3.29,1.58-3.79
		c1.31-0.46,2.69-0.71,4.07-0.9c-0.07-0.62-0.09-1.31-0.56-1.78c-0.83-0.85-2.22-0.83-3.23-0.31c-0.2,0.44-0.4,0.89-0.58,1.34
		c-0.21-0.06-0.43-0.11-0.64-0.17C119.05,50.74,119.05,50.27,119.05,49.8 M121.01,53.74c-0.79,0.38-1,1.41-0.82,2.2
		c0.16,0.65,0.87,1,1.51,0.91c0.97-0.06,1.71-0.76,2.34-1.43c0-0.84,0-1.68,0-2.52C123.01,53.1,121.96,53.29,121.01,53.74
		L121.01,53.74z"/>
	<path class="st0" d="M128.06,49.32c1.15-0.17,2.3-0.4,3.37-0.9c0.2,0.68-0.01,1.39,0.06,2.08c0.6-0.64,0.99-1.57,1.88-1.87
		c0.57-0.26,1.2-0.16,1.77,0.04c-0.04,0.86-0.16,1.72-0.15,2.58c-0.19,0-0.37-0.01-0.56-0.01c-0.23-0.3-0.4-0.7-0.79-0.82
		c-0.74-0.29-1.56,0.2-1.89,0.87c-0.35,0.7-0.25,1.5-0.26,2.25c0.02,1.14-0.06,2.3,0.12,3.43c0.5,0.42,1.26,0.24,1.88,0.36
		c0,0.24,0,0.49,0,0.73c-1.85-0.1-3.7-0.13-5.55-0.01c0-0.25,0-0.49,0-0.74c0.5-0.04,1.08,0.11,1.53-0.16
		c0.2-0.36,0.15-0.79,0.19-1.18c0.01-1.9,0.11-3.81-0.05-5.7c-0.32-0.45-1.05-0.15-1.54-0.23
		C128.06,49.79,128.06,49.56,128.06,49.32L128.06,49.32z"/>
	<path class="st0" d="M107.44,48.69c1.6,0.1,3.21,0.12,4.81,0v0.77c-0.47,0.03-0.97-0.04-1.4,0.18c-0.09,0.32,0.08,0.63,0.17,0.93
		c0.72,1.82,1.44,3.63,2.22,5.43c0.88-2,1.82-4,2.43-6.11c0.16-0.37-0.35-0.36-0.57-0.39c-0.27-0.03-0.54-0.03-0.81-0.04
		c0-0.26,0-0.52,0-0.77c1.3,0.1,2.6,0.1,3.9,0c0,0.25,0,0.5,0,0.76c-0.42,0.04-0.93,0.05-1.13,0.49c-1.42,2.65-2.6,5.42-3.75,8.2
		c-0.38,0-0.76,0-1.14,0c-1.1-2.76-2.31-5.47-3.49-8.19c-0.18-0.53-0.78-0.48-1.23-0.49L107.44,48.69L107.44,48.69z"/>
	<path class="st0" d="M64.51,64.89c1.95,0.06,3.9,0.07,5.85,0c0,0.26,0,0.52,0,0.78c-0.48,0.02-0.97,0-1.45,0.11
		c-0.51,0.12-0.38,0.75-0.45,1.14c-0.02,2.71-0.16,5.43,0.04,8.14c0.03,0.97,0.62,1.91,1.53,2.28c1.37,0.55,2.95,0.57,4.35,0.13
		c0.81-0.24,1.56-0.8,1.82-1.63c0.4-1.27,0.28-2.61,0.3-3.92c-0.02-1.85,0.06-3.71-0.07-5.56c-0.04-0.9-1.23-0.59-1.84-0.68
		c0-0.26,0-0.52,0-0.78c1.64,0.06,3.29,0.06,4.94,0c0,0.26,0,0.52,0,0.78c-0.58,0.05-1.24-0.09-1.75,0.25
		c-0.25,0.64-0.12,1.34-0.17,2.01c-0.12,2.49,0.12,4.99-0.16,7.47c-0.13,1.52-1.28,2.81-2.69,3.31c-1.72,0.61-3.63,0.63-5.39,0.17
		c-1.17-0.3-2.29-1.08-2.69-2.26c-0.25-0.85-0.23-1.74-0.27-2.61c-0.01-2.32,0.01-4.63-0.01-6.95c-0.05-0.38,0.01-0.81-0.2-1.14
		c-0.5-0.32-1.14-0.19-1.7-0.24C64.51,65.67,64.51,64.89,64.51,64.89z"/>
	<path class="st0" d="M93.15,65.07c0.81-0.38,1.82,0.41,1.63,1.29c-0.1,0.91-1.37,1.35-1.99,0.67
		C92.16,66.49,92.37,65.36,93.15,65.07z"/>
	<path class="st0" d="M134.75,65.06c0.74-0.31,1.65,0.32,1.59,1.14c0.06,0.94-1.19,1.53-1.9,0.94
		C133.7,66.62,133.88,65.31,134.75,65.06z"/>
	<path class="st0" d="M139.45,67.09c0.63-0.25,1.24-0.52,1.84-0.84c0.16,0.18,0.22,0.39,0.19,0.63c-0.1,1.06-0.14,2.12-0.2,3.17
		c0.93,0,1.86,0.01,2.79-0.03c-0.06,0.37-0.14,0.75-0.21,1.12c-0.86-0.01-1.71-0.01-2.57-0.01c-0.02,1.82-0.07,3.64-0.04,5.46
		c-0.02,0.52,0.38,1,0.9,1.07c0.55,0.15,1.12-0.02,1.65-0.16c0.04,0.12,0.11,0.38,0.15,0.5c-0.46,0.34-0.82,0.88-1.43,0.95
		c-0.83,0.1-1.81,0.21-2.47-0.42c-0.63-0.51-0.64-1.39-0.62-2.12c0.08-1.73,0.03-3.47,0.05-5.2c-0.49,0-0.98,0-1.47,0.04
		c0-0.14,0-0.43,0-0.57c0.5-0.2,0.99-0.41,1.47-0.65C139.45,69.05,139.46,68.07,139.45,67.09L139.45,67.09z"/>
	<path class="st0" d="M79.11,70.17c1.18-0.12,2.31-0.48,3.43-0.86c0.04,0.59,0,1.18-0.05,1.77c0.81-0.59,1.44-1.55,2.51-1.68
		c1-0.17,2.08,0,2.9,0.62c0.57,0.4,0.87,1.07,0.96,1.74c0.15,1.84,0.05,3.69,0.1,5.53c0.04,0.28,0,0.68,0.32,0.82
		c0.41,0.05,0.82,0.04,1.22,0.07c0,0.23,0,0.47,0.01,0.71c-1.19-0.08-2.38-0.06-3.56,0c0.09-2.16,0.25-4.33,0.06-6.48
		c-0.09-1.14-1.34-1.8-2.39-1.65c-0.9,0.1-1.9,0.69-2.04,1.65c-0.21,1.44,0.01,2.89-0.04,4.33c0.04,0.43-0.07,0.97,0.24,1.32
		c0.42,0.14,0.89,0.07,1.32,0.12c0,0.23,0,0.47,0,0.7c-1.66-0.09-3.32-0.05-4.98,0c0-0.17-0.01-0.52-0.01-0.69
		c0.43-0.03,0.87-0.02,1.3-0.11c0.22-0.12,0.22-0.42,0.25-0.63c0.07-1.68,0.06-3.35,0.06-5.03c-0.03-0.48,0.05-1.01-0.17-1.45
		c-0.46-0.16-0.96-0.09-1.44-0.11C79.11,70.63,79.11,70.4,79.11,70.17L79.11,70.17z"/>
	<path class="st0" d="M91.15,70.16c1.15-0.13,2.28-0.39,3.34-0.86c0.32,0.27,0.2,0.69,0.2,1.06c-0.05,1.67-0.12,3.35-0.03,5.02
		c0.04,0.87-0.08,1.78,0.16,2.62c0.38,0.3,0.95,0.12,1.4,0.21c0,0.23,0,0.47,0,0.7c-1.69-0.08-3.38-0.06-5.07,0
		c0-0.17,0-0.52,0-0.69c0.53-0.1,1.49,0.2,1.53-0.59c0.08-1.61,0.08-3.22,0.08-4.84c-0.01-0.62,0.05-1.26-0.18-1.85
		c-0.47-0.04-0.95-0.06-1.42-0.06V70.16L91.15,70.16z"/>
	<path class="st0" d="M108.33,70.67c0.9-0.73,1.97-1.31,3.15-1.38c1.43-0.12,3.03,0.52,3.66,1.87c0.39,0.84,0.55,1.86,0.31,2.74
		c-2.11,0.41-4.28,0.2-6.42,0.26c0.01,0.9,0.18,1.84,0.75,2.57c0.7,0.94,1.96,1.33,3.09,1.18c0.82-0.1,1.53-0.54,2.24-0.91
		c0.3,0.35-0.01,0.77-0.21,1.08c-1.94,1.42-4.98,1.49-6.73-0.28c-1.16-1.25-1.37-3.1-1.07-4.71
		C107.28,72.21,107.6,71.26,108.33,70.67 M109.64,70.94c-0.5,0.66-0.59,1.51-0.61,2.31c1.52,0.05,3.05,0.17,4.58,0.04
		c0-0.83-0.02-1.74-0.56-2.42C112.23,69.81,110.42,69.88,109.64,70.94z"/>
	<path class="st0" d="M116.67,70.17c1.18-0.12,2.31-0.49,3.43-0.85c0.04,0.69-0.03,1.38-0.05,2.07c0.6-0.63,0.98-1.54,1.84-1.87
		c0.57-0.27,1.22-0.18,1.81-0.03c0.02,0.87-0.12,1.73-0.15,2.6c-0.19,0-0.37-0.01-0.55-0.01c-0.25-0.41-0.57-0.9-1.12-0.87
		c-1.05-0.1-1.77,0.96-1.79,1.92c-0.07,1.55-0.03,3.11,0.09,4.65c0.41,0.51,1.26,0.27,1.85,0.4c0.01,0.24,0.01,0.48,0.02,0.72
		c-1.83-0.05-3.67-0.09-5.5,0.01c0-0.17-0.01-0.52-0.01-0.7c0.54-0.15,1.56,0.25,1.66-0.55c0.12-1.85,0.07-3.71,0.08-5.56
		c-0.04-0.37,0.03-0.78-0.16-1.11c-0.46-0.16-0.96-0.09-1.44-0.11V70.17z"/>
	<path class="st0" d="M125.99,69.96c1.57-1.05,3.61-0.76,5.28-0.11c-0.02,0.8-0.07,1.6-0.1,2.41c-0.24,0-0.47,0-0.71,0
		c-0.05-0.57-0.03-1.26-0.52-1.66c-0.89-0.74-2.46-0.89-3.24,0.08c-0.54,0.62-0.43,1.75,0.39,2.08c1.26,0.49,2.64,0.59,3.88,1.15
		c0.72,0.36,1.07,1.2,1.01,1.98c0,1.6-1.4,2.89-2.91,3.17c-1.46,0.24-2.96,0-4.37-0.37c0.17-0.97,0.17-1.94,0.22-2.92
		c0.24,0,0.47,0,0.71,0c0.05,0.84,0.05,1.93,0.92,2.36c0.9,0.41,2.02,0.41,2.91-0.02c0.92-0.45,1.3-1.94,0.4-2.58
		c-1.3-0.7-2.92-0.56-4.17-1.37C124.33,73.13,124.58,70.81,125.99,69.96L125.99,69.96z"/>
	<path class="st0" d="M132.7,70.16c1.15-0.13,2.3-0.38,3.35-0.88c0.17,0.2,0.24,0.46,0.2,0.72c-0.11,2.54-0.11,5.09,0.02,7.63
		c0.04,0.78,1.03,0.45,1.54,0.56c0,0.23,0,0.46,0,0.69c-1.7-0.07-3.41-0.06-5.11,0c0-0.17,0-0.52-0.01-0.69
		c0.52-0.11,1.5,0.2,1.53-0.6c0.1-1.84,0.07-3.69,0.07-5.53c0.01-0.39-0.05-0.77-0.17-1.14c-0.48-0.05-0.96-0.07-1.44-0.07
		C132.7,70.63,132.7,70.39,132.7,70.16L132.7,70.16z"/>
	<path class="st0" d="M103.03,69.56c1.3,0.07,2.59,0.06,3.89,0c0,0.18,0.01,0.53,0.01,0.71c-0.32,0.07-0.69,0.05-0.96,0.24
		c-0.49,0.62-0.76,1.38-1.12,2.07c-1.06,2.09-1.94,4.27-2.86,6.43c-0.37-0.01-0.75-0.01-1.12-0.01c-0.9-2.34-1.96-4.63-2.93-6.95
		c-0.26-0.54-0.41-1.13-0.8-1.6c-0.29-0.16-0.65-0.13-0.97-0.19c0-0.18,0-0.54,0-0.72c1.59,0.07,3.18,0.07,4.76,0
		c0,0.18,0,0.55,0,0.73c-0.5,0.03-1,0.05-1.47,0.22c0.16,0.86,0.56,1.65,0.87,2.47c0.51,1.3,1.06,2.6,1.6,3.89
		c0.78-1.72,1.51-3.46,2.17-5.23c0.14-0.37,0.23-0.75,0.3-1.14c-0.45-0.14-0.93-0.18-1.39-0.21
		C103.02,70.05,103.02,69.81,103.03,69.56z"/>
	<path class="st0" d="M144.79,69.56c1.59,0.07,3.18,0.08,4.77,0c0,0.18-0.01,0.54-0.02,0.72c-0.45,0.06-0.97-0.02-1.37,0.23
		c-0.04,0.31,0.11,0.62,0.19,0.91c0.61,1.85,1.38,3.65,2.15,5.44c0.84-1.85,1.58-3.74,2.29-5.64c0.04-0.22,0.22-0.47,0.07-0.69
		c-0.4-0.2-0.86-0.18-1.28-0.25c0-0.18,0.01-0.55,0.01-0.73c1.3,0.07,2.6,0.09,3.9,0c-0.02,0.23-0.05,0.47-0.07,0.7
		c-0.48,0.07-0.99,0.25-1.19,0.74c-1.67,3.22-3.06,6.57-4.49,9.9c-0.43,0.96-0.77,2.02-1.53,2.78c-0.81,0.83-2.19,1-3.19,0.41
		c0.24-0.57,0.29-1.25,0.72-1.73c0.38,0.25,0.77,0.61,1.27,0.51c0.6-0.02,1.02-0.53,1.3-1.01c0.46-0.81,0.81-1.68,1.16-2.54
		c-0.68-1.84-1.44-3.64-2.17-5.45c-0.45-1.06-0.84-2.14-1.38-3.16c-0.21-0.41-0.75-0.35-1.13-0.45
		C144.78,70.03,144.79,69.8,144.79,69.56L144.79,69.56z"/>
	<path class="st0" d="M87.69,85.72c0.94,0.06,1.88,0.04,2.82,0.09c1.61,0.02,3.22-0.14,4.84-0.07c1,0.06,2.08,0.3,2.78,1.08
		c0.9,0.95,0.98,2.43,0.49,3.6c-0.49,1.22-1.6,2.08-2.81,2.52c-0.96,0.34-2,0.27-2.99,0.1c-0.08-0.31-0.17-0.61-0.25-0.92
		c0.8,0.18,1.67,0.38,2.46,0.05c2.06-0.73,2.35-4.05,0.47-5.14c-1.16-0.64-2.54-0.46-3.76-0.14c-0.18,2.33-0.06,4.68-0.1,7.02
		c0.03,1.55-0.09,3.11,0.14,4.65c0.36,0.58,1.21,0.31,1.79,0.38c0.01,0.27,0.03,0.55,0.04,0.82c-1.97-0.12-3.94-0.08-5.9,0
		c0-0.27,0-0.54,0-0.81c0.59-0.02,1.2-0.01,1.77-0.21c0.21-0.9,0.1-1.84,0.17-2.75c0.01-2.43,0.01-4.86,0-7.29
		c-0.05-0.63,0.02-1.27-0.16-1.88c-0.48-0.43-1.2-0.22-1.78-0.32C87.69,86.25,87.69,85.98,87.69,85.72L87.69,85.72z"/>
	<path class="st0" d="M108.27,91.6c0.94-0.79,2.1-1.43,3.36-1.45c1.26-0.07,2.61,0.44,3.33,1.52c0.59,0.91,0.69,2.04,0.59,3.1
		c-2.15,0.38-4.35,0.25-6.52,0.29c0.08,0.82,0.17,1.68,0.66,2.38c0.6,0.94,1.75,1.39,2.83,1.38c0.94-0.03,1.79-0.48,2.59-0.95
		c0.35,0.31,0.03,0.77-0.17,1.06c-1.83,1.35-4.61,1.49-6.42,0.04c-1.44-1.23-1.72-3.31-1.38-5.08
		C107.32,93.06,107.6,92.17,108.27,91.6 M109.68,91.77c-0.51,0.66-0.59,1.52-0.65,2.32c1.54,0.11,3.07,0.09,4.61,0.08
		c-0.01-0.85-0.05-1.8-0.62-2.49C112.2,90.67,110.46,90.75,109.68,91.77L109.68,91.77z"/>
	<path class="st0" d="M117.82,90.9c1.57-1.13,3.69-0.87,5.39-0.19c-0.02,0.8-0.06,1.59-0.1,2.39c-0.24,0-0.47,0-0.71,0
		c-0.06-0.53-0.02-1.14-0.42-1.55c-0.67-0.62-1.67-0.81-2.54-0.57c-0.81,0.25-1.4,1.23-1.03,2.04c0.17,0.43,0.62,0.65,1.04,0.77
		c1.12,0.31,2.28,0.5,3.36,0.94c0.88,0.38,1.24,1.45,1.09,2.34c-0.21,1.58-1.71,2.75-3.24,2.9c-1.32,0.08-2.67-0.03-3.94-0.41
		l-0.07-0.11c0.13-0.93,0.17-1.87,0.2-2.81c0.24,0,0.47,0,0.71,0c0.06,0.83,0.07,1.92,0.94,2.34c0.81,0.38,1.79,0.34,2.63,0.1
		c1.07-0.32,1.66-1.94,0.69-2.69c-1.23-0.67-2.73-0.6-3.98-1.25C116.33,94.28,116.42,91.84,117.82,90.9L117.82,90.9z"/>
	<path class="st0" d="M126.25,90.85c1.4-0.97,3.23-0.83,4.78-0.33c0.17,0.08,0.43,0.08,0.53,0.27c0,0.77-0.09,1.54-0.08,2.31
		c-0.24,0-0.47,0-0.71,0c-0.06-0.62-0.06-1.37-0.65-1.74c-0.91-0.64-2.42-0.75-3.15,0.22c-0.5,0.61-0.4,1.7,0.38,2.03
		c1.25,0.51,2.65,0.58,3.88,1.16c0.71,0.34,1.09,1.16,1.04,1.93c0.02,1.62-1.41,2.96-2.94,3.22c-1.39,0.18-2.81,0.03-4.15-0.32
		c-0.29-0.01-0.14-0.35-0.14-0.52c0.15-0.8,0.12-1.62,0.13-2.43c0.25-0.01,0.5-0.01,0.76-0.01c0.05,0.7,0.02,1.51,0.53,2.05
		c0.63,0.62,1.57,0.59,2.39,0.54c0.8-0.05,1.6-0.59,1.77-1.41c0.17-0.56-0.04-1.24-0.57-1.52c-1.29-0.61-2.83-0.52-4.05-1.29
		C124.64,94.01,124.86,91.71,126.25,90.85L126.25,90.85z"/>
	<path class="st0" d="M99.43,91.02c1.12-0.14,2.22-0.39,3.25-0.85l0.14,0.11c0.14,0.63-0.06,1.31-0.01,1.96
		c0.44-0.5,0.78-1.1,1.28-1.55c0.63-0.51,1.55-0.68,2.29-0.33c0.21,0.18,0.03,0.52,0.06,0.76c-0.07,0.61-0.1,1.22-0.13,1.83
		c-0.14,0-0.41-0.01-0.55-0.01c-0.22-0.35-0.44-0.78-0.89-0.86c-0.9-0.24-1.78,0.51-1.95,1.37c-0.21,1.01-0.09,2.05-0.1,3.07
		c0.08,0.74-0.08,1.52,0.16,2.23c0.56,0.26,1.21,0.19,1.82,0.28c0,0.18,0,0.55,0,0.73c-1.83-0.09-3.67-0.13-5.5,0
		c0-0.18,0-0.55,0-0.73c0.5-0.03,1.04,0.09,1.5-0.15c0.18-0.3,0.17-0.65,0.19-0.98c0.01-2.03,0.15-4.07-0.06-6.09
		c-0.5-0.07-1-0.07-1.5-0.06C99.43,91.51,99.43,91.26,99.43,91.02L99.43,91.02z"/>
</g>
</svg>
