<?xml version="1.0" encoding="utf-8"?>
<!-- Generator: Adobe Illustrator 26.0.2, SVG Export Plug-In . SVG Version: 6.00 Build 0)  -->
<svg version="1.1" id="Layer_1" xmlns="http://www.w3.org/2000/svg" xmlns:xlink="http://www.w3.org/1999/xlink" x="0px" y="0px"
	 viewBox="0 0 220 100" style="enable-background:new 0 0 220 100;" xml:space="preserve">
<style type="text/css">
	.st0{fill:#07222D;}
	.st1{filter:url(#Adobe_OpacityMaskFilter);}
	.st2{fill-rule:evenodd;clip-rule:evenodd;fill:#FFFFFF;}
	.st3{mask:url(#mask-2_00000172419927635028950350000016990595500894708871_);fill-rule:evenodd;clip-rule:evenodd;fill:#07222D;}
	.st4{filter:url(#Adobe_OpacityMaskFilter_00000124874967049094424290000003943056798862349734_);}
	.st5{mask:url(#mask-4_00000031179769895205708410000007030728210091176124_);fill-rule:evenodd;clip-rule:evenodd;fill:#07222D;}
</style>
<g id="layer1_00000084517795931546073200000016734395857038811009_" transform="translate(91.122058,-297.18123)">
	<g id="g15403_00000065796104272582639290000009559594755891164604_" transform="translate(1.0000066,-1.0000049)">
		<polygon id="polygon15342_00000181056803571586166850000001586720462714376884_" class="st0" points="-72.12,363.86 
			-65.89,363.86 -65.89,340.03 -65.82,340.03 -62.27,363.86 -57.47,363.86 -53.92,340.03 -53.85,340.03 -53.85,363.86 
			-47.62,363.86 -47.62,331.88 -57.15,331.88 -59.83,350.83 -59.91,350.83 -62.59,331.88 -72.12,331.88 		"/>
		<path id="path15344_00000031908165021939179790000017830472635598544573_" class="st0" d="M-44.94,338.96
			c0,2.42,1.15,5.06,2.44,7.25c-3.26,2.19-4.8,5.6-4.8,9.27c0,6,3.58,9,7.85,9c2.69,0,4.3-1.12,6.2-2.51l1.11,1.88h7.09l-3.44-6
			c2.04-2.51,2.87-6,3.01-9.58h-5.59c-0.07,1.39-0.32,2.69-0.86,3.76l-2.9-4.88c2.79-2.24,4.44-5.11,4.44-8.2
			c0-3.55-1.83-6.17-4.84-7.08h-4.9C-43.11,332.79-44.94,335.41-44.94,338.96z M-38.31,358.22c-1.4,0-2.76-1.57-2.76-3.63
			c0-0.94,0.54-2.24,1.58-3.22l3.4,5.78C-36.63,357.68-37.56,358.22-38.31,358.22L-38.31,358.22z M-37.67,336.18
			c1.11,0,1.9,0.94,1.9,2.24c0,0.94-0.54,2.15-2.11,3.94c-1.18-1.88-1.68-3-1.68-3.94C-39.57,337.12-38.78,336.18-37.67,336.18z"/>
		<path id="path15346_00000028311780636786342750000010926046984004081587_" class="st0" d="M-25.45,347.87
			c0,11.91,1.65,16.61,9.14,16.61c4.26,0,8.46-2.15,8.46-11.11v-2.37h-6.45c0,6.05-0.36,7.84-2.01,7.84
			c-2.04,0-2.26-2.33-2.26-10.97s0.21-10.97,2.26-10.97c1.29,0,1.83,1.07,1.83,4.7v1.79h6.45v-2.02c0-4.74-1.33-8.17-4.68-9.5h-7.37
			C-24.07,333.46-25.45,338.22-25.45,347.87z"/>
		<path id="path15348_00000068646071621952528830000013168581864631126708_" class="st0" d="M-5.93,341.24
			c0,11.33,10.46,8.2,10.46,14.51c0,1.75-0.79,3.09-2.15,3.09c-1.29,0-2.19-0.99-2.19-3.72v-0.76h-6.45v1.12c0,6.63,3.08,9,8.6,9
			c4.37,0,7.26-1.69,8.45-5.36l-0.92,4.73h7.09l0.68-5.6h5.3l0.68,5.6h5.97h1.12h5.97l0.68-5.6h5.3l0.68,5.6h7.09l-6.23-31.98h-8.38
			l-5.67,29.09l-5.67-29.09H16.1l-4.77,24.45c0.05-0.54,0.07-1.11,0.07-1.7c0-11.69-10.89-8.6-10.89-14.91
			c0-1.43,0.64-2.82,2.08-2.82c1.29,0,1.9,1.57,1.9,3.45v0.76h6.23c0-5.08-1.36-8.04-4.43-9.23h-7.44
			C-4.35,333.15-5.93,336.36-5.93,341.24L-5.93,341.24z M39.99,338.42h0.07l1.83,13.57h-3.73L39.99,338.42z M20.26,338.42h0.07
			l1.83,13.57h-3.73L20.26,338.42z"/>
		<path id="path15350_00000041279845855045295020000009979684168429352077_" class="st0" d="M63.88,338.57v-6.69h-16.7v7.08h5.02
			v24.9h6.66v-24.9h4.94c-0.46,2.34-0.65,5.28-0.65,8.91c0,11.91,1.65,16.61,9.14,16.61c4.26,0,8.45-2.15,8.45-11.11v-2.37h-6.45
			c0,6.05-0.36,7.84-2.01,7.84c-2.04,0-2.26-2.33-2.26-10.97s0.22-10.97,2.26-10.97c1.29,0,1.83,1.07,1.83,4.7v1.79h6.45v-2.02
			c0-4.74-1.33-8.17-4.68-9.5h-7.37C66.12,332.83,64.66,334.94,63.88,338.57L63.88,338.57z"/>
		<polygon id="polygon15352_00000047760104177875282000000013765251373923273140_" class="st0" points="92.56,363.86 99.23,363.86 
			99.23,331.88 92.56,331.88 92.56,343.62 88.48,343.62 88.48,331.88 81.81,331.88 81.81,363.86 88.48,363.86 88.48,350.69 
			92.56,350.69 		"/>
		
			<rect id="rect15354_00000134961409236537042160000006594632068937451654_" x="101.21" y="331.88" class="st0" width="6.66" height="31.98"/>
	</g>
</g>
</svg>
