<?xml version="1.0" encoding="utf-8"?>
<!-- Generator: Adobe Illustrator 26.0.2, SVG Export Plug-In . SVG Version: 6.00 Build 0)  -->
<svg version="1.1" id="Layer_1" xmlns="http://www.w3.org/2000/svg" xmlns:xlink="http://www.w3.org/1999/xlink" x="0px" y="0px"
	 viewBox="0 0 220 100" style="enable-background:new 0 0 220 100;" xml:space="preserve">
<style type="text/css">
	.st0{fill:#07222D;}
	.st1{filter:url(#Adobe_OpacityMaskFilter);}
	.st2{fill-rule:evenodd;clip-rule:evenodd;fill:#FFFFFF;}
	.st3{mask:url(#mask-2_00000172419927635028950350000016990595500894708871_);fill-rule:evenodd;clip-rule:evenodd;fill:#07222D;}
	.st4{filter:url(#Adobe_OpacityMaskFilter_00000044886146092425706740000010628752445016572293_);}
	.st5{mask:url(#mask-4_00000031179769895205708410000007030728210091176124_);fill-rule:evenodd;clip-rule:evenodd;fill:#07222D;}
</style>
<path class="st0" d="M16.49,38.53c0-2.39-2.27-2.99-4.06-2.99v0.36c1.08,0,1.91,0.36,1.91,1.2c0,0.48-0.36,1.2-1.43,1.2
	c-0.84,0-2.63-0.48-3.94-0.96c-1.55-0.6-2.99-1.08-4.18-1.08c-2.39,0-4.06,1.79-4.06,3.82c0,1.79,1.31,2.39,1.79,2.63l0.12-0.24
	c-0.24-0.24-0.6-0.48-0.6-1.19c0-0.48,0.48-1.31,1.67-1.31c1.08,0,2.51,0.48,4.42,1.08c1.67,0.48,3.47,0.84,4.42,0.96v3.7
	l-1.79,1.55v0.12l1.79,1.55v5.14c-0.96,0.6-2.03,0.72-2.99,0.72c-1.79,0-3.35-0.48-4.66-1.91l4.9-2.39v-8.25l-5.98,2.63
	c0.48-1.55,1.79-2.63,3.11-3.35l-0.12-0.36C3.23,42.11,0,45.46,0,49.52c0,4.78,3.94,8.37,8.37,8.37c4.78,0,7.89-3.82,7.89-7.77
	h-0.24c-0.72,1.55-1.79,2.99-3.11,3.7v-4.9l1.91-1.55v-0.12l-1.91-1.55v-3.7C14.7,41.99,16.49,40.8,16.49,38.53z M6.09,51.67
	l-1.43,0.72c-0.84-1.08-1.31-2.51-1.31-4.54c0-0.84,0-1.79,0.24-2.51l2.51-1.08V51.67z M18.76,54.42l-1.55,1.2l0.24,0.24l0.72-0.6
	l2.63,2.39l3.59-2.39l-0.12-0.24l-0.96,0.6l-1.2-1.2V46.3l0.96-0.72l2.03,1.67v7.29c0,4.54-0.96,5.26-2.99,5.98v0.36
	c3.35,0.12,6.45-0.96,6.45-6.81v-7.89l1.08-0.84L29.4,45.1l-0.96,0.72l-2.99-2.51l-3.35,2.51v-9.8h-0.24l-4.18,2.87v0.24
	c0.48,0.24,1.2,0.48,1.2,1.79C18.88,40.92,18.76,54.42,18.76,54.42z M40.63,53.11l-2.99,2.27l-2.99-2.39v-1.43l5.62-3.82v-0.12
	l-2.87-4.3l-6.21,3.35v7.89l-1.2,0.96l0.24,0.24l1.08-0.84l4.06,2.99l5.38-4.3C40.75,53.59,40.63,53.11,40.63,53.11z M34.66,51.08
	v-5.86l0.24-0.12l2.63,4.18C37.52,49.28,34.66,51.08,34.66,51.08z M63.45,37.45c0-0.36-0.12-0.72-0.24-1.08h-0.24
	c-0.36,0.96-0.84,1.43-2.03,1.43c-1.08,0-1.79-0.6-2.27-1.08l-3.47,3.94l0.24,0.24l1.2-1.08c0.72,0.6,1.31,1.08,2.99,1.2v9.92
	l-7.05-12.07c-0.6-0.96-1.43-2.27-3.11-2.27c-1.91,0-3.59,1.67-3.35,4.3h0.36c0.12-0.72,0.48-1.55,1.31-1.55c0.6,0,1.2,0.6,1.55,1.2
	v3.94c-2.15,0-3.59,0.96-3.59,2.75c0,0.96,0.48,2.39,1.91,2.75v-0.24c-0.24-0.24-0.36-0.48-0.36-0.84c0-0.6,0.48-1.08,1.31-1.08h0.6
	v5.02c-2.51,0-4.54,1.43-4.54,3.82c0,2.27,1.91,3.35,4.06,3.23v-0.24c-1.31-0.12-1.91-0.72-1.91-1.55c0-1.08,0.72-1.55,1.67-1.55
	c0.96,0,1.79,0.6,2.39,1.31l3.47-3.82l-0.24-0.24l-0.84,0.96c-1.31-1.2-2.03-1.55-3.59-1.79V41.04l9.56,16.73h0.72V41.04
	C61.78,40.92,63.45,39.48,63.45,37.45z M72.18,53.11l-2.99,2.27l-2.99-2.39v-1.43l5.62-3.82v-0.12l-2.87-4.3l-6.21,3.35v7.89
	l-1.2,0.96l0.24,0.24l1.08-0.84l4.06,2.99l5.38-4.3C72.3,53.59,72.18,53.11,72.18,53.11z M66.2,51.08v-5.86l0.24-0.12l2.63,4.18
	C69.07,49.28,66.2,51.08,66.2,51.08z M91.66,44.62l-0.84,0.6l-2.27-1.91l-2.63,2.39L87,46.77v8.96l-2.87-1.79v-7.41l0.96-0.6
	l-2.75-2.63l-2.63,2.39l1.08,1.08v8.6l-0.36,0.24l-2.51-1.79v-7.17c0-1.67-0.84-2.15-1.79-2.75c-0.84-0.6-1.31-0.96-1.31-1.79
	c0-0.72,0.72-1.08,1.08-1.31v-0.24c-0.96,0-3.47,0.96-3.47,3.23c0,1.2,0.6,1.67,1.2,2.27c0.6,0.6,1.19,1.08,1.19,2.15v6.93
	l-1.31,0.96l0.24,0.24l1.19-0.96l2.75,2.39l2.99-2.03l3.35,2.03l6.33-3.7v-8.01l1.55-1.2L91.66,44.62L91.66,44.62z M113.88,38.05
	l-1.2,1.08l-2.63-2.39l-3.94,2.87v-2.63h-0.36l0.12,19.36c-0.36,0-1.43-0.24-2.27-0.48l-0.24-16.13c0-1.19-0.84-2.87-2.99-2.87
	s-3.59,1.67-3.59,3.35h0.36c0.12-0.72,0.48-1.31,1.2-1.31c0.72,0,1.31,0.48,1.31,2.03v4.66c-2.15,0.12-3.47,1.31-3.47,2.87
	c0,0.96,0.48,2.39,1.91,2.39V50.6c-0.48-0.24-0.6-0.6-0.6-0.84c0-0.72,0.6-0.96,1.55-0.96h0.48v7.41c-1.79,0.6-2.51,1.91-2.51,3.35
	c0,2.03,1.55,3.47,3.94,3.47c1.67,0,3.11-0.24,4.54-0.6c1.2-0.24,2.75-0.6,3.47-0.6c0.96,0,1.31,0.48,1.31,1.08
	c0,0.84-0.36,1.19-0.84,1.31v0.24c1.91-0.36,3.11-1.55,3.11-3.35s-1.79-2.87-3.7-2.87c-0.96,0-2.99,0.36-4.42,0.6
	c-1.67,0.36-3.35,0.6-3.82,0.6c-0.84,0-1.79-0.36-1.79-1.55c0-0.96,0.84-1.79,2.87-1.79c1.08,0,2.39,0.12,3.7,0.48
	c1.43,0.36,2.75,0.72,3.94,0.72c1.79,0,3.35-0.6,3.35-3.11v-14.7l1.43-1.19L113.88,38.05L113.88,38.05z M108.98,45.34
	c-0.36,0.36-0.84,0.72-1.43,0.72s-1.19-0.36-1.43-0.72v-5.26l1.19-0.84l1.67,1.55C108.98,40.8,108.98,45.34,108.98,45.34z
	 M108.98,48.92c-0.24-0.24-0.84-0.6-1.43-0.6s-1.19,0.36-1.43,0.6v-3.11c0.24,0.24,0.84,0.6,1.43,0.6s1.2-0.36,1.43-0.6V48.92z
	 M108.98,54.54c0,0.96-0.6,1.91-1.91,1.91h-0.96V49.4c0.24-0.24,0.84-0.6,1.43-0.6s1.08,0.36,1.43,0.6
	C108.98,49.4,108.98,54.54,108.98,54.54z M125.36,46.06l-3.82-2.75l-5.86,3.35v7.77l-1.2,0.96l0.12,0.24l0.96-0.72l3.82,2.87
	l5.98-3.59C125.36,54.18,125.36,46.06,125.36,46.06z M118.9,53.59v-8.6l2.99,2.15v8.48C121.89,55.62,118.9,53.59,118.9,53.59z
	 M136.71,43.55h-0.24c-0.36,0.24-0.72,0.48-1.08,0.48c-0.48,0-1.08-0.24-1.31-0.6h-0.24l-2.03,2.27l-2.03-2.27l-3.59,2.39l0.12,0.24
	l0.96-0.6l1.2,1.31v7.53l-1.55,1.2l0.24,0.24l0.72-0.6l2.87,2.39l3.7-2.51l-0.12-0.24l-1.08,0.6l-1.43-1.19v-8.37
	c0.6,0.6,1.31,1.2,2.15,1.2C135.63,47.13,136.59,45.46,136.71,43.55L136.71,43.55z M151.05,55.02l-4.06,2.75l-5.5-8.37l3.94-6.09
	h0.24c0.48,0.48,1.2,0.96,2.03,0.96s1.43-0.48,1.79-0.96h0.24c-0.12,2.39-1.79,3.82-2.99,3.82s-1.79-0.6-2.51-0.96l-0.36,0.6
	l5.98,8.84l1.19-0.72V55.02z M137.9,54.42l-1.55,1.2l0.24,0.24l0.72-0.6l2.63,2.39l3.59-2.39l-0.24-0.24l-0.96,0.6l-1.2-1.2v-18.4
	h-0.12l-4.3,2.87v0.24c0.48,0.24,1.2,0.36,1.2,1.79C137.9,40.92,137.9,54.42,137.9,54.42z M170.89,38.53c0-2.39-2.27-2.99-4.06-2.99
	v0.36c1.08,0,1.91,0.36,1.91,1.2c0,0.48-0.36,1.2-1.43,1.2c-0.84,0-2.63-0.48-3.94-0.96c-1.55-0.48-2.99-0.96-4.18-0.96
	c-2.39,0-4.06,1.79-4.06,3.82c0,1.79,1.31,2.39,1.79,2.63l0.12-0.24c-0.36-0.24-0.72-0.48-0.72-1.2c0-0.48,0.48-1.31,1.67-1.31
	c1.08,0,2.51,0.48,4.42,1.08c1.67,0.48,3.47,0.84,4.42,0.96v3.7l-1.79,1.55v0.12l1.79,1.55v5.14c-0.96,0.6-2.03,0.72-2.99,0.72
	c-1.79,0-3.35-0.48-4.66-1.91l4.9-2.39v-8.37l-5.98,2.63c0.6-1.55,1.91-2.63,3.11-3.47l-0.12-0.24c-3.59,0.96-6.81,4.18-6.81,8.25
	c0,4.78,3.94,8.37,8.37,8.37c4.78,0,7.89-3.82,7.89-7.77h-0.24c-0.72,1.55-1.79,2.99-3.11,3.7v-4.9l1.91-1.55v-0.12l-1.79-1.55
	v-3.59C169.09,41.99,170.89,40.8,170.89,38.53z M160.49,51.67l-1.43,0.72c-0.84-1.08-1.31-2.51-1.31-4.54
	c0-0.84,0.12-1.79,0.36-2.51l2.51-1.08L160.49,51.67z M175.07,37.33h-0.12l-2.39,2.03v0.12l2.03,2.27h0.24l2.39-2.03V39.6
	L175.07,37.33L175.07,37.33z M178.65,55.02l-0.96,0.6l-1.2-1.2v-8.25l1.2-0.84l-0.24-0.24l-0.84,0.72l-2.15-2.51L171,45.7l0.24,0.36
	l0.84-0.6l1.08,1.31v7.77l-1.55,1.2l0.12,0.24l0.84-0.6l2.63,2.39l3.59-2.39L178.65,55.02L178.65,55.02z M198.61,54.9l-0.84,0.6
	l-1.31-1.2v-8.13l1.2-0.96l-0.24-0.24l-0.96,0.84l-2.75-2.51l-3.59,2.51l-2.75-2.51l-3.35,2.51l-2.15-2.51l-3.47,2.39l0.12,0.36
	l0.84-0.6l1.2,1.31v7.77l-0.96,0.96l2.75,2.27l2.63-2.39l-1.08-1.08v-8.13l1.08-0.72l1.79,1.67v7.17l-0.96,0.96l2.75,2.27l2.63-2.39
	l-1.08-1.08v-7.89l0.96-0.6l1.91,1.67v7.17l-0.84,0.84l2.75,2.51l3.7-2.51L198.61,54.9L198.61,54.9z M209.01,53.11l-2.99,2.27
	l-2.99-2.39v-1.43l5.62-3.82v-0.12l-2.87-4.3l-6.21,3.35v8.13l4.18,2.99l5.38-4.3C209.13,53.47,209.01,53.11,209.01,53.11z
	 M203.03,51.08v-5.86l0.24-0.12l2.63,4.18C205.9,49.28,203.03,51.08,203.03,51.08z M219.88,50l-2.27-1.79
	c1.55-1.31,2.15-3.11,2.15-4.3v-0.72h-0.24c-0.24,0.6-0.72,1.2-1.67,1.2c-0.96,0-1.55-0.48-2.15-1.2l-5.38,2.99v4.3l2.03,1.55
	c-2.03,1.79-2.39,2.99-2.39,3.94c0,1.2,0.6,2.03,1.55,2.39l0.12-0.24c-0.24-0.24-0.48-0.36-0.48-0.96c0-0.36,0.48-0.96,1.43-0.96
	c1.2,0,1.91,0.84,2.27,1.19L220,54.3V50C220,50,219.88,50,219.88,50z M218.57,46.41c-0.84,1.43-2.63,2.87-3.7,3.59l-1.31-1.08v-4.18
	c0.48,1.2,1.79,2.15,3.11,2.15C217.49,46.89,217.97,46.77,218.57,46.41z M216.53,55.98c-0.6-1.31-2.03-2.27-3.47-2.27
	c-0.36,0-1.31,0-2.27,0.6c0.6-0.96,2.15-2.63,4.18-3.82l1.43,1.2L216.53,55.98L216.53,55.98z"/>
</svg>
