<?xml version="1.0" encoding="utf-8"?>
<!-- Generator: Adobe Illustrator 28.0.0, SVG Export Plug-In . SVG Version: 6.00 Build 0)  -->
<svg version="1.1"
	 id="svg2" xmlns:cc="http://creativecommons.org/ns#" xmlns:rdf="http://www.w3.org/1999/02/22-rdf-syntax-ns#" xmlns:svg="http://www.w3.org/2000/svg" xmlns:dc="http://purl.org/dc/elements/1.1/"
	 xmlns="http://www.w3.org/2000/svg" xmlns:xlink="http://www.w3.org/1999/xlink" x="0px" y="0px" viewBox="0 0 220 100"
	 style="enable-background:new 0 0 220 100;" xml:space="preserve">
<style type="text/css">
	.st0{fill:#07222D;}
</style>
<g id="g10" transform="matrix(1.3333333,0,0,-1.3333333,0,71.767733)">
	<g id="g12">
		<g>
			<g id="g14">
				<g id="g20" transform="translate(10.8953,44.9271)">
					<path id="path22" class="st0" d="M-1.3-13.5c-3.2,1.1-4.9,1.9-4.9,4.1c0,1.7,1.6,2.7,3.2,2.7c3.1,0,4.9-2.2,5.6-5.7h0.6v6H2.8
						L1.8-8.2H1.7C0.9-7.1-0.7-6-2.9-6c-3.3,0-5.9-2.3-5.9-5.3c0-3.7,2.6-5.2,6-6.3c3.1-1,4.5-2.2,4.5-4c0-2.3-1.2-3.4-3.8-3.4
						c-1.6,0-3.1,0.6-4.2,1.9c-1,1.2-1.6,2.8-1.9,4.7h-0.6v-7h0.5l1.2,2.1h0.1c1-1.3,2.8-2.4,5-2.4c4,0,6.5,2.6,6.5,6
						C4.4-16.3,2.1-14.6-1.3-13.5"/>
				</g>
				<g id="g24" transform="translate(192.648,50.7911)">
					<path id="path26" class="st0" d="M-30.3-14.4c-0.9,1.3-2.4,2.6-4.9,2.6c-5.5,0-9.2-4.5-9.2-9.9c0-5.3,3.5-9.9,9.2-9.9
						c3.6,0,6.3,1.9,7.1,6.2l-0.7,0.2c-0.8-3.5-2.6-5.6-6-5.6c-3.4,0-5.2,2.9-5.2,9.1c0,6.2,1.7,9.2,4.9,9.2c3.1,0,5.1-2.3,6-6.9
						h0.7v7.3h-0.4L-30.3-14.4"/>
				</g>
				<g id="g28" transform="translate(37.3281,50.8721)">
					<path id="path30" class="st0" d="M-5.5-14.4c-0.9,1.3-2.4,2.5-4.8,2.5c-5.5,0-9.2-4.5-9.2-9.9c0-5.3,3.5-9.9,9.2-9.9
						c3.6,0,6.3,1.9,7.1,6.2l-0.7,0.1c-0.9-3.5-2.5-5.6-6-5.6c-3.4,0-5.2,2.9-5.2,9.1c0,6.2,1.7,9.2,4.8,9.2c3.1,0,5.1-2.3,6-6.9
						h0.6v7.3h-0.6L-5.5-14.4"/>
				</g>
				<g id="g32" transform="translate(53.37,31.535)">
					<path id="path34" class="st0" d="M-8-11.3h-2.8V6.4H-8v0.7h-9.5V6.4h2.8v-17.7h-2.8V-12H-8"/>
				</g>
				<g id="g36" transform="translate(127.648,31.535)">
					<path id="path38" class="st0" d="M-19.9-11.3V-12h9.5v0.7h-2.8V6.4h2.8v0.7h-9.5V6.4h2.8v-17.7"/>
				</g>
				<g id="g40" transform="translate(162.679,52.655)">
					<path id="path42" class="st0" d="M-25.5-14.7h2.8v-17.7h-2.8v-0.7h9.5v0.7h-2.8v17.7h2.8v0.7h-9.5"/>
				</g>
				<g id="g44" transform="translate(76.733,39.183)">
					<path id="path46" class="st0" d="M-11.8-12.6h-0.4c-0.6-2-1.4-3.7-2.4-4.9c-1.1-1.2-2.1-1.5-4.1-1.5l-3,0v8.6h1.4
						c1.1,0,1.9-0.2,2.4-0.8c0.7-0.6,1.1-1.9,1.1-3.2h0.5v8.6h-0.5c0-1.3-0.6-2.5-1.1-3.2c-0.5-0.6-1.3-0.8-2.4-0.8h-1.4v8.5h3.4
						c1.6,0,2.7-0.4,3.3-1c1.1-0.9,1.8-2.3,2.5-4.8h0.4v6.6h-16.4v-0.7h2.8V-19l-2.8,0v-0.7h16.7"/>
				</g>
				<g id="g48" transform="translate(84.567,50.0181)">
					<path id="path50" class="st0" d="M-13-14.3l11.9-16.2h1.1v16.8c0,1.1,0.5,1.6,1.4,1.6h1.2v0.7h-6.2v-0.7h1.3
						c1,0,1.4-0.6,1.4-1.6v-10.8H-1l-9.4,13.2h-7v-0.7h0.8c1,0,1.6-0.3,2.1-0.8c0.4-0.4,0.6-0.8,0.6-1.2v-14c0-1-0.4-1.7-1.4-1.7
						l-1.4,0v-0.7h6.5v0.7l-1.5,0c-0.9,0-1.4,0.7-1.4,1.7L-13-14.3"/>
				</g>
				<g id="g52" transform="translate(108.372,51.2391)">
					<path id="path54" class="st0" d="M-16.9-14.5c0.7,0.7,1.5,1.1,2.7,1.1h0.7V-31h-2.9v-0.7h9.7v0.7h-2.9v17.7h0.6
						c1.3,0,2.2-0.4,2.8-1.1c1.1-1,1.7-2.6,2.3-5H-3v6.8h-16.8v-6.8h0.6C-18.6-17-17.9-15.5-16.9-14.5"/>
				</g>
				<g id="g56" transform="translate(141.817,31.535)">
					<path id="path58" class="st0" d="M-22.2-11.3V-12h9.6v0.7h-2.8v8.7h1.2c0.9,0,1.7-0.3,2.2-0.8c0.8-0.7,1.2-2.1,1.2-3.2h0.7V2
						h-0.7c0-1.1-0.4-2.4-1.1-3.1c-0.6-0.6-1.4-0.9-2.3-0.9h-1.2v8.4h2.8c1.7,0,2.7-0.4,3.5-1.2c0.8-0.8,1.6-2.3,2.4-4.7h0.6v6.6
						h-15.9V6.4h2.8v-17.7"/>
				</g>
				<g id="g60" transform="translate(135.658,1.002)">
					<path id="path62" class="st0" d="M-21.2-6.4c-1.1,0-2,0.2-3.1,0.7c-1.9,1.2-2.8,4-2.8,8.4c0,4.6,0.9,7.1,2.5,8.3
						c0.8,0.6,2,0.9,3,0.9c3.1,0,6.1-2,7-6.9h0.7v7.3h-0.6l-1.4-2.3H-16c-0.9,1.3-3.3,2.7-5.7,2.7c-5.5,0-9.9-4.5-9.9-9.9
						c0-5.3,4.1-9.9,10.2-9.9c3.6,0,6.8,1.9,7.7,6.2l-0.7,0.2C-15.2-4.3-17.4-6.4-21.2-6.4"/>
				</g>
				<g id="g64" transform="translate(109.087,22.3221)">
					<path id="path66" class="st0" d="M-17-9.9h2.9v-17.7H-17v-0.7h9.7v0.7h-2.9v17.7h2.9v0.7H-17"/>
				</g>
				<g id="g68" transform="translate(186.514,22.3201)">
					<path id="path70" class="st0" d="M-29.4-9.9h1.6c1,0,1.4-0.6,1.4-1.6v-11h-0.1L-36.6-9.2h-6.9v-0.7l0.8,0c1,0,1.5-0.3,2-0.8
						c0.4-0.4,0.6-0.9,0.6-1.3v-14c0-1-0.4-1.7-1.4-1.7h-1.6v-0.7h6.8v0.7h-1.6c-0.9,0-1.4,0.7-1.4,1.7v13.8h0l12.6-16.4h1.1v16.9
						c0,1.1,0.5,1.6,1.4,1.6h1.5v0.7h-6.8"/>
				</g>
				<g id="g72" transform="translate(73.88,3.18)">
					<path id="path74" class="st0" d="M-11.3-6.8c-1.1-1.2-2.3-1.6-4.3-1.6l-3.3,0v8.6h1.4c1.1,0,1.9-0.2,2.4-0.8
						c0.7-0.6,1.1-1.9,1.1-3.2h0.7v8.7h-0.7c0-1.3-0.6-2.6-1.1-3.2c-0.5-0.6-1.3-0.8-2.4-0.8h-1.4v8.5h3.5c1.6,0,2.7-0.4,3.4-1.1
						c1.1-0.9,1.9-2.3,2.6-4.8h0.6V10h-17V9.3h2.9V-8.4l-2.9,0v-0.7h17.4V-2h-0.4C-9.4-4-10.3-5.6-11.3-6.8"/>
				</g>
				<g id="g76" transform="translate(39.6703,7.484)">
					<path id="path78" class="st0" d="M-5.9-7.5H-6l-5.3,13.1h-7.5V5h3.1v-15.9c0-1.1-0.5-1.8-1.4-1.8h-1.6v-0.7h6.9v0.7h-1.6
						c-0.9,0-1.4,0.7-1.4,1.8V4.1h0.1l7-17.6h0.7l6.3,17.6h0.1v-16.9h-2.8v-0.7H6v0.7H3.1V5H6v0.7h-7.1"/>
				</g>
				<g id="g80" transform="translate(104.001,1.553)">
					<path id="path82" class="st0" d="M-16.2-6.5c-0.7,0-1.1,0.2-1.4,1.1c-0.2,0.6-0.3,1.8-0.4,2.9c-0.3,2.9-2.2,4.2-4.9,4.6v0.1
						c3.3,0.3,5.5,2,5.5,4.7c0,2.9-2.2,4.7-7,4.7h-10.6v-0.7l2.9,0V-6.8h-2.9v-0.7h9.6v0.7H-28V2h3c1.8,0,2.9-0.8,3-2.9
						c0-0.2,0.1-2.3,0.1-2.5c0.1-3.1,1.8-4.4,4.1-4.4c2.9,0,4,1.3,4.1,4.2l-0.7,0C-14.5-5.6-15.1-6.5-16.2-6.5 M-28,10.9l2.9,0
						c0.9,0,1.8-0.2,2.2-0.5c1.1-0.6,1.5-1.9,1.5-3.6c0-1.6-0.4-3-1.4-3.7c-0.5-0.4-1.3-0.5-2.2-0.5H-28"/>
				</g>
				<g id="g84" transform="translate(19.7313,2.954)">
					<path id="path86" class="st0" d="M-2.7-6.8l-6.3,17h-1.3l-6.1-16.3c-0.5-1.3-0.9-2.1-2.1-2.1h-0.9v-0.7h5.9v0.7h-1.3
						c-1.2,0-1.2,0.9-0.8,2.2l1.2,3.2h6l1.4-4c0.3-0.8,0.4-1.3-0.6-1.3h-1.5v-0.7h8.9v0.7l-1.2,0C-2-8.2-2.3-7.7-2.7-6.8 M-14-2.2
						l2.7,7.5h0.1l2.7-7.5"/>
				</g>
				<g id="g88" transform="translate(165.209,2.954)">
					<path id="path90" class="st0" d="M-25.9-6.8l-6.3,17h-1.3l-6.1-16.3c-0.5-1.3-0.9-2.1-2.1-2.1h-0.9v-0.7h5.9v0.7h-1.3
						c-1.2,0-1.2,0.9-0.8,2.2l1.2,3.2h6l1.4-4c0.3-0.8,0.4-1.3-0.6-1.3h-1.5v-0.7h8.9v0.7h-1.2C-25.3-8.2-25.6-7.7-25.9-6.8
						 M-37.3-2.2l2.7,7.5h0.1l2.7-7.5"/>
				</g>
			</g>
		</g>
	</g>
</g>
</svg>
