<?xml version="1.0" encoding="utf-8"?>
<!-- Generator: Adobe Illustrator 26.0.2, SVG Export Plug-In . SVG Version: 6.00 Build 0)  -->
<svg version="1.1" id="Layer_1" xmlns="http://www.w3.org/2000/svg" xmlns:xlink="http://www.w3.org/1999/xlink" x="0px" y="0px"
	 viewBox="0 0 220 100" style="enable-background:new 0 0 220 100;" xml:space="preserve">
<style type="text/css">
	.st0{fill:#07222D;}
	.st1{filter:url(#Adobe_OpacityMaskFilter);}
	.st2{fill-rule:evenodd;clip-rule:evenodd;fill:#FFFFFF;}
	.st3{mask:url(#mask-2_00000172419927635028950350000016990595500894708871_);fill-rule:evenodd;clip-rule:evenodd;fill:#07222D;}
	.st4{filter:url(#Adobe_OpacityMaskFilter_00000176746011977936974610000005787448003465325971_);}
	.st5{mask:url(#mask-4_00000031179769895205708410000007030728210091176124_);fill-rule:evenodd;clip-rule:evenodd;fill:#07222D;}
</style>
<g>
	<g>
		<path class="st0" d="M51.13,30.21c0.03,0.01,0.06,0.02,0.1,0.03C51.2,30.23,51.17,30.22,51.13,30.21z"/>
		<path class="st0" d="M51.05,74.8l0-44.6c-0.26-0.04-0.54,0-0.69,0.04c0,0-0.56,0.17-1.51,0.47c-0.16-0.51-0.39-1.14-0.72-1.77
			c-1.07-2.04-2.63-3.12-4.53-3.12c0,0,0,0-0.01,0c-0.13,0-0.26,0.01-0.39,0.02c-0.06-0.07-0.11-0.13-0.17-0.2
			c-0.82-0.88-1.88-1.31-3.15-1.27c-2.44,0.07-4.88,1.83-6.85,4.97c-1.39,2.21-2.44,4.98-2.74,7.12c-2.81,0.87-4.77,1.48-4.81,1.49
			c-1.42,0.44-1.46,0.49-1.65,1.82C23.71,40.78,20,69.43,20,69.43L51.05,74.8l7.67-1.91L51.05,74.8z M43.27,32.44
			c-1.63,0.5-3.4,1.05-5.18,1.6c0.5-1.92,1.45-3.83,2.62-5.08c0.43-0.47,1.04-0.99,1.76-1.28C43.14,29.09,43.29,31.09,43.27,32.44z
			 M39.94,25.99c0.57-0.01,1.06,0.11,1.47,0.38c-0.66,0.34-1.3,0.84-1.9,1.48c-1.55,1.67-2.74,4.25-3.22,6.74
			c-1.48,0.46-2.93,0.91-4.26,1.32C32.88,31.99,36.17,26.1,39.94,25.99z M35.19,48.35c0.17,2.62,7.05,3.19,7.43,9.31
			c0.3,4.82-2.56,8.12-6.68,8.38c-4.95,0.31-7.67-2.61-7.67-2.61l1.05-4.46c0,0,2.74,2.07,4.94,1.93c1.43-0.09,1.94-1.26,1.89-2.08
			c-0.22-3.41-5.82-3.21-6.17-8.82c-0.3-4.72,2.8-9.5,9.64-9.93c2.63-0.17,3.98,0.5,3.98,0.5l-1.56,5.85c0,0-1.74-0.79-3.81-0.66
			C35.19,45.96,35.16,47.87,35.19,48.35z M44.89,31.93c-0.02-1.24-0.17-2.96-0.74-4.45c1.85,0.35,2.77,2.45,3.15,3.7
			C46.59,31.41,45.78,31.66,44.89,31.93z"/>
		<path class="st0" d="M54.77,33.59c0,0,3.59,0.05,3.77,0.07c0.13,0.01,0.29,0.09,0.38,0.23c-0.09-0.14-0.24-0.22-0.38-0.23
			C58.36,33.65,54.77,33.59,54.77,33.59c0,0-3-2.92-3.3-3.21c0,0,0,0-0.01,0c0,0,0.01,0,0.01,0C51.77,30.68,54.77,33.59,54.77,33.59
			z"/>
		<path class="st0" d="M58.73,72.89l5.79-1.44c0,0-5.49-37.12-5.53-37.38c-0.01-0.07-0.03-0.13-0.07-0.18
			c-0.09-0.14-0.24-0.22-0.38-0.23c-0.18-0.02-3.77-0.07-3.77-0.07s-3-2.92-3.3-3.21c0,0,0,0-0.01,0c-0.07-0.06-0.15-0.11-0.23-0.14
			c-0.03-0.01-0.06-0.02-0.1-0.03c-0.03-0.01-0.05-0.02-0.08-0.02v0.01l0,44.6L58.73,72.89z"/>
	</g>
	<path class="st0" d="M82.23,52.83c-1.55-0.84-2.34-1.55-2.34-2.52c0-1.24,1.1-2.03,2.83-2.03c2.01,0,3.8,0.84,3.8,0.84l1.41-4.33
		c0,0-1.3-1.02-5.13-1.02c-5.33,0-9.02,3.05-9.02,7.34c0,2.43,1.72,4.29,4.02,5.61c1.86,1.06,2.52,1.81,2.52,2.92
		c0,1.15-0.93,2.08-2.65,2.08c-2.57,0-4.99-1.33-4.99-1.33l-1.5,4.33c0,0,2.24,1.5,6.01,1.5c5.48,0,9.42-2.7,9.42-7.56
		C86.61,56.05,84.62,54.2,82.23,52.83z"/>
	<path class="st0" d="M104.07,43.72c-2.7,0-4.82,1.28-6.45,3.23l-0.09-0.04l2.34-12.25h-6.1l-5.92,31.17h6.1l2.03-10.65
		c0.8-4.02,2.87-6.5,4.82-6.5c1.37,0,1.9,0.93,1.9,2.26c0,0.84-0.09,1.86-0.27,2.7l-2.3,12.2h6.1l2.39-12.6
		c0.27-1.33,0.44-2.92,0.44-3.98C109.07,45.8,107.25,43.72,104.07,43.72z"/>
	<path class="st0" d="M122.86,43.72c-7.34,0-12.2,6.63-12.2,14.01c0,4.73,2.92,8.53,8.4,8.53c7.21,0,12.07-6.45,12.07-14.01
		C131.13,47.88,128.56,43.72,122.86,43.72z M119.85,61.58c-2.08,0-2.96-1.77-2.96-3.98c0-3.49,1.81-9.19,5.13-9.19
		c2.17,0,2.87,1.86,2.87,3.67C124.89,55.83,123.08,61.58,119.85,61.58z"/>
	<path class="st0" d="M146.73,43.72c-4.12,0-6.45,3.63-6.45,3.63h-0.09l0.35-3.27h-5.39c-0.26,2.21-0.75,5.57-1.24,8.09l-4.24,22.32
		h6.1l1.68-9.02h0.13c0,0,1.25,0.8,3.58,0.8c7.16,0,11.85-7.34,11.85-14.77C153.01,47.39,151.2,43.72,146.73,43.72z M140.9,61.67
		c-1.58,0-2.52-0.88-2.52-0.88l1.02-5.7c0.71-3.8,2.7-6.32,4.82-6.32c1.86,0,2.43,1.72,2.43,3.36
		C146.64,56.05,144.3,61.67,140.9,61.67z"/>
	<path class="st0" d="M161.72,34.97c-1.94,0-3.49,1.55-3.49,3.54c0,1.81,1.15,3.05,2.87,3.05h0.09c1.9,0,3.54-1.28,3.58-3.54
		C164.77,36.25,163.57,34.97,161.72,34.97z"/>
	<path class="st0" d="M153.19,65.82h6.1l4.16-21.62h-6.15L153.19,65.82z"/>
	<path class="st0" d="M178.96,44.16h-4.24l0.22-1.02c0.35-2.08,1.59-3.93,3.63-3.93c1.09,0,1.94,0.31,1.94,0.31l1.19-4.77
		c0,0-1.06-0.53-3.32-0.53c-2.17,0-4.33,0.62-5.97,2.03c-2.08,1.77-3.05,4.33-3.54,6.9l-0.18,1.02h-2.83l-0.88,4.6h2.83l-3.23,17.06
		h6.1l3.23-17.06h4.2L178.96,44.16z"/>
	<path class="st0" d="M193.63,44.21c0,0-3.81,9.61-5.53,14.85h-0.09c-0.12-1.69-1.5-14.85-1.5-14.85h-6.41l3.67,19.85
		c0.09,0.44,0.04,0.71-0.13,1.02c-0.71,1.37-1.9,2.7-3.32,3.67c-1.15,0.84-2.43,1.37-3.45,1.72l1.68,5.17
		c1.24-0.27,3.8-1.28,5.97-3.32c2.79-2.61,5.35-6.63,8-12.11l7.47-16L193.63,44.21L193.63,44.21z"/>
</g>
</svg>
