<svg id="Layer_1" data-name="Layer 1" xmlns="http://www.w3.org/2000/svg" viewBox="0 0 350.24 12"><defs><style>.cls-1{fill:none;stroke:#f14c0b;stroke-miterlimit:10;stroke-width:4px;}</style></defs><path class="cls-1" d="M0,2c8.34,0,8.34,8,16.68,8S25,2,33.35,2,41.69,10,50,10,58.37,2,66.7,2,75,10,83.38,10s8.34-8,16.68-8,8.34,8,16.68,8,8.34-8,16.67-8,8.34,8,16.68,8,8.34-8,16.67-8,8.34,8,16.68,8,8.34-8,16.68-8,8.34,8,16.68,8,8.34-8,16.67-8,8.34,8,16.68,8,8.34-8,16.68-8,8.34,8,16.68,8,8.34-8,16.68-8,8.34,8,16.68,8,8.35-8,16.69-8,8.34,8,16.68,8"/></svg>