<?xml version="1.0" encoding="utf-8"?>
<!-- Generator: Adobe Illustrator 26.0.2, SVG Export Plug-In . SVG Version: 6.00 Build 0)  -->
<svg version="1.1" id="Layer_1" xmlns="http://www.w3.org/2000/svg" xmlns:xlink="http://www.w3.org/1999/xlink" x="0px" y="0px"
	 viewBox="0 0 220 100" style="enable-background:new 0 0 220 100;" xml:space="preserve">
<style type="text/css">
	.st0{fill:#07222D;}
	.st1{filter:url(#Adobe_OpacityMaskFilter);}
	.st2{fill-rule:evenodd;clip-rule:evenodd;fill:#FFFFFF;}
	.st3{mask:url(#mask-2_00000172419927635028950350000016990595500894708871_);fill-rule:evenodd;clip-rule:evenodd;fill:#07222D;}
	.st4{filter:url(#Adobe_OpacityMaskFilter_00000066477105672918250720000012108597629553150092_);}
	.st5{mask:url(#mask-4_00000031179769895205708410000007030728210091176124_);fill-rule:evenodd;clip-rule:evenodd;fill:#07222D;}
</style>
<path class="st0" d="M70.09,41.13H60v-9.25h31.35v9.25H81.26v27H70.09C70.09,68.12,70.09,41.13,70.09,41.13z M93.08,31.87h30.48
	v9.25h-19.31v4.46h19.31v8.71h-19.31v4.57h19.31v9.25H93.08C93.08,68.12,93.08,31.88,93.08,31.87z M125.4,31.87h18.33
	c12.04,0,16.27,8.93,16.27,18.07c0,11.1-5.86,18.18-18.44,18.18H125.4V31.87L125.4,31.87z M136.57,58.87h4.34
	c6.94,0,7.92-5.66,7.92-9.03c0-2.29-0.76-8.6-8.79-8.6h-3.58L136.57,58.87z"/>
</svg>
