<?xml version="1.0" encoding="utf-8"?>
<!-- Generator: Adobe Illustrator 28.0.0, SVG Export Plug-In . SVG Version: 6.00 Build 0)  -->
<svg version="1.1" id="Layer_1" xmlns="http://www.w3.org/2000/svg" xmlns:xlink="http://www.w3.org/1999/xlink" x="0px" y="0px"
	 viewBox="0 0 220 100" style="enable-background:new 0 0 220 100;" xml:space="preserve">
<style type="text/css">
	.st0{fill:#07222D;}
</style>
<g>
	<path class="st0" d="M196.1,50.7c1.2,1.2,1.2,3.2,0,4.4c-1.2,1.2-3.2,1.2-4.4,0c-0.9-0.9-1.1-2.2-0.7-3.3c0.5-1.1,1.6-1.9,2.8-1.9
		C194.7,49.8,195.5,50.1,196.1,50.7L196.1,50.7z"/>
	<path class="st0" d="M172.8,52.2c0-1,0.3-2,0.7-3c0.4-1.1,1.1-2,1.9-2.8c0.2,0,0.4,0,0.5-0.1c0.3,0,0.6-0.1,0.9-0.1
		c1.2,0,2.3,0.3,3.3,0.9c1,0.6,1.7,1.5,2.2,2.5c0.4,0.8,0.6,1.6,0.7,2.5H172.8z M177.9,44c-10.1,0-10.1,11.2-10.1,11.2H188
		C188,55.1,188,44,177.9,44z"/>
	<polygon class="st0" points="31,67.2 36.1,64.9 36.1,33.9 29.4,33.9 23.8,40.1 23.1,39.9 24.8,31.5 53,31.5 54.6,40.1 54,40.3 
		48.3,33.9 41.3,33.9 41.3,65 46.3,67.2 46.3,68 31,68 	"/>
	<polygon class="st0" points="30.9,67.2 36,64.9 36,33.9 29.3,33.9 23.6,40.1 23,39.9 24.7,31.5 53,31.5 54.5,40.1 54,40.3 
		48.3,33.9 41.2,33.9 41.2,65 46.2,67.2 46.2,68 30.9,68 	"/>
	<path class="st0" d="M57.6,46.7c-2.3,2.2-3.5,5.3-3.5,9c0,6,3.1,10.4,7.4,10.4c3.8,0,6.4-3.7,6.4-9.3c0-6.3-3.3-10.3-8.4-10.3
		C58.9,46.6,58.3,46.6,57.6,46.7z M72.8,55.6c0,7.4-5.2,12.9-12.1,12.9c-6.6,0-11.4-5-11.4-11.9c0-7.1,5.2-12.6,12-12.6
		C68.2,44,72.8,48.6,72.8,55.6z"/>
	<path class="st0" d="M73.7,67.5l3.6-1.8V48.2l-3-1.7V46l7.3-2l0.3,0.3l-0.2,5c1.6-2.6,3.6-5.2,6.5-5.2c1.9,0,3.2,1.2,3.2,2.9
		c0,1.8-1.2,3-2.8,3c-1.4,0-2.2-0.9-2.7-2.2c-2.3,0.5-3.9,2.3-3.9,4.7v13.1l4.2,1.8V68H73.7V67.5z"/>
	<path class="st0" d="M101.2,39.3v5.4h8.2v3h-8.2v13c0,2.8,1.4,4.4,3.8,4.4c1.3,0,2.6-0.4,3.8-1.1l0.2,0.5l-3,3.6
		c-0.9,0.2-1.8,0.4-2.7,0.4c-4.4,0-6.7-2.3-6.7-6.8v-14H94l-0.1-0.5l6.8-8.2L101.2,39.3z"/>
	<path class="st0" d="M119.4,46.7c-2.3,2.2-3.5,5.3-3.5,9c0,6,3.1,10.4,7.4,10.4c3.8,0,6.4-3.7,6.4-9.3c0-6.3-3.3-10.3-8.4-10.3
		C120.7,46.6,120.1,46.6,119.4,46.7z M134.6,55.6c0,7.4-5.2,12.9-12.1,12.9c-6.6,0-11.5-5-11.5-11.9c0-7.1,5.2-12.6,12-12.6
		C130,44,134.6,48.6,134.6,55.6z"/>
	<path class="st0" d="M144.6,44.4c-0.6,1.9-1,3.8-1,5.8l0,15.5l3.8,1.8V68h-12.1v-0.5l3.8-1.8V48.9l-3-1.8v-0.5l8.3-2.5L144.6,44.4z
		"/>
	<path class="st0" d="M164.8,44.7l0.1,6.6l-0.3,0.1c-2.7-4.4-4.7-5.3-6.8-5.3c-2.2,0-3.7,1.4-3.7,3.2c0,4.6,10.9,4.8,10.9,11.7
		c0,4.3-3.7,7.5-8.8,7.5c-2,0-4.5-0.6-5.8-1.4l-0.9-6.9l0.4-0.1c2.8,4.5,4.7,6.3,7.2,6.3c2.3,0,3.7-1.6,3.7-3.7
		c0-5.6-10.4-4.3-10.4-11.7c0-4.2,3.2-6.9,8.1-6.9C160.6,44,162.7,44.2,164.8,44.7z"/>
</g>
</svg>
