<?xml version="1.0" encoding="utf-8"?>
<!-- Generator: Adobe Illustrator 28.0.0, SVG Export Plug-In . SVG Version: 6.00 Build 0)  -->
<svg version="1.1" id="Layer_1" xmlns="http://www.w3.org/2000/svg" xmlns:xlink="http://www.w3.org/1999/xlink" x="0px" y="0px"
	 viewBox="0 0 220 100" style="enable-background:new 0 0 220 100;" xml:space="preserve">
<style type="text/css">
	.st0{fill-rule:evenodd;clip-rule:evenodd;fill:#07222D;}
	.st1{fill:#07222D;}
</style>
<g>
	<path class="st0" d="M137.7,47.9c-3.7,11.3-14,20-27.1,20c-13.9,0-23.2-8.7-27-19.8c3.9,10.4,14.5,17.8,27,17.8
		C123.2,66,133.9,58.4,137.7,47.9 M83.6,30.7c3.7-11.2,12.4-19.9,27-19.9c13.6,0,23.5,8.8,27.2,20.2c-3.8-10.6-14.5-18.2-27.1-18.2
		C98.1,12.7,87.4,20.2,83.6,30.7"/>
	<path class="st0" d="M111.2,27.9c0.2-0.3,0.7-0.1,1.1-0.1c0.5,0,0.4,0.7,1.1,0.6c0.7-0.1,0.7,0.6,1.7,0.6c1,0-0.2,0.3-0.2,0.3
		s-0.6-0.3-1-0.1c-0.2,0.1,0.1-0.1-0.3-0.3c-0.5-0.4-0.5,0.1-1.4-0.7C111.5,27.7,110.9,28.3,111.2,27.9 M116.1,47.9
		c0.4,0.2,0.9,0.5,1.1,1.1c0.5,1.4-0.3,0.3-0.3,2.4c0,1.9-0.6,1.6-0.6,1.6s-0.1,2.3-1.3,3.7c-0.8,0.8-0.2,1.4-0.2,1.4
		s-0.3,0.1-0.6,1.8c-0.1,0.5,0.6,1.4,1.2,1.2c0.5-0.2-1.1-0.3,0.6-1c0.7-0.3,0.1-0.8,0.1-0.8s1.1-0.1,1.7-1.7c1.1,0.2,0.7-0.5,2.9-1
		c0.6-0.1,0.7-0.3,0.6-0.9c-0.1-0.5,0.7,0.1,3-2.2c1.8-1.8,1.1-2.2,2.3-2.8c1.3-0.7,1.4,0.1,1.8-0.5c1-1.3,0.6-1.2,1-2l0.3-0.4
		L116.1,47.9z M103.8,29.3c-0.4-0.9-0.3-2.3,0.4-3.6c0.5-0.8,1.8-1.2,2.9-0.8c1.3-1,1.6,0.1,2.7-0.4c1.5-0.6,0.7,1.7,2.1,2.3
		c0.6-1.6-1.4-2.7-0.1-3.5c0.9-0.5,1.5-0.8,1.9-1.5c0.5-1,0.7-1.7,1.1-1.9c0.9-0.3,0.7-1.1,0.7-1.1s1,0.3,1.7-0.4
		c-0.6-0.3-1.4-0.6-1.2-1.2c0.3-0.7,2.2,0.7,2.8-0.4c-1.1-0.5-2.3-1.6-3-1.8c-0.5,0.5-0.8,0.3-1.4-0.2c-1.1-0.8-1.1,0-1.8-0.6
		c-0.5,1,0.3,1,0.5,1.2c0.7,0.7-0.7-0.7-0.6,1.2c0,0.5-0.7,0.6-1.2-0.5c-0.3-0.5-2.5-0.4-2.9-1c0.3-0.6,2.9-2.8,7-2.2
		c-5.9-2.3-13.8,0.2-13.9,1.1c-0.8,0.5-0.5,1-0.9,1.2c-0.7,0.2-1.4,2.3-1.4,2.3s0.4,0.3-0.9,1.7c-1.1,1.2-1.4,3-1.4,3
		s0.7,1.3,0.6,2.8c-0.1,1.1-0.2,0.3,0.4,1.1c0.3,0.5,0.6,2.2,0.8,1.5c0.4-1.3-0.7-2.4-0.5-3.7c0,0.2,0.4-0.5,0.4,0.1
		c0,1.5,1.9,4.5,1.9,4.5s-0.7,0.7,0,0.7L103.8,29.3z"/>
	<path class="st1" d="M61.8,33.5h-4.5l0.7,0.8V40c0,1.3-0.9,1.8-2.2,1.8c-1.3,0-2.2-0.5-2.2-1.8v-5.8l0.7-0.8h-4.5l0.7,0.8v5.9
		c0,2.9,1.6,4,5.3,4c3.7,0,5.3-1.1,5.3-4v-5.9L61.8,33.5z"/>
	<polygon class="st1" points="77.2,33.5 73.5,33.5 74.2,34.3 74.2,39.5 68.8,33.5 65.4,33.5 66.1,34.3 66.1,43.1 65.4,43.9 
		69.1,43.9 68.5,43.1 68.5,37.8 74.2,43.9 76.6,43.9 76.6,34.3 	"/>
	<polygon class="st1" points="85.9,43.9 85.2,43.1 85.2,34.3 85.9,33.5 81.4,33.5 82.1,34.3 82.1,43.1 81.4,43.9 	"/>
	<polygon class="st1" points="100.7,33.5 96.9,33.5 97.6,34.3 94.9,40 92.3,34.3 93,33.5 88.6,33.5 93.5,43.9 95.7,43.9 	"/>
	<polygon class="st1" points="113.3,43.9 113.3,41.1 112.5,41.7 107.1,41.7 107.1,39.7 110.5,39.7 111.3,40.4 111.3,37 110.5,37.7 
		107.1,37.7 107.1,35.7 112.5,35.7 113.3,36.3 113.3,33.5 103.3,33.5 104,34.3 104,43.1 103.3,43.9 	"/>
	<path class="st0" d="M128.4,43.9l-2.9-4.1c1.4-0.6,2.4-1.6,2.4-3.2c0-1.7-1.1-3.2-4.1-3.2h-6.6l0.7,0.8v8.9l-0.7,0.8h4.4l-0.7-0.8
		v-3h1.3l2,3l-0.7,0.8L128.4,43.9L128.4,43.9z M124.8,36.9c0,0.7-0.7,1.4-1.7,1.4h-2v-2.6h2.4C124.1,35.7,124.8,36,124.8,36.9"/>
	<path class="st1" d="M141.8,40.9c0-1.7-1.3-2.6-3.3-3.2c-1.3-0.4-3.1-0.7-3.1-1.5c0-0.4,0.5-0.7,1.3-0.7c1.1,0,3,0.5,4.5,1.2v-3.5
		l-0.8,0.8c-0.9-0.4-2.4-0.7-3.5-0.7c-3.6,0-4.8,1.6-4.8,3c0,1.9,1.3,2.8,3.3,3.5c1.5,0.5,2.9,0.6,2.9,1.4c0,0.7-0.9,0.8-1.3,0.8
		c-1.1,0-3.1-0.4-4.9-1.5v3.9l0.8-0.9c0.8,0.3,2.7,0.8,4.2,0.8C140.4,44.2,141.8,42.8,141.8,40.9"/>
	<path class="st0" d="M157.6,43.9l-5.2-10.4h-3.6l0.4,0.8l-4.7,9.6h3.9l-0.7-0.8l0.5-1.1h5l0.5,1.1l-0.7,0.8H157.6z M152.5,40.2H149
		l1.7-3.7L152.5,40.2z"/>
	<polygon class="st1" points="170.1,43.9 170.1,41.1 169.3,41.7 164.2,41.7 164.2,34.3 164.9,33.5 160.5,33.5 161.2,34.3 
		161.2,43.1 160.5,43.9 	"/>
	<path class="st1" d="M167.3,34.9c0,0.7,0.6,1.3,1.3,1.3c0.7,0,1.3-0.6,1.3-1.3c0-0.7-0.6-1.3-1.3-1.3
		C167.9,33.6,167.3,34.2,167.3,34.9 M167.2,34.9c0-0.8,0.7-1.5,1.5-1.5c0.8,0,1.5,0.7,1.5,1.5c0,0.8-0.7,1.5-1.5,1.5
		C167.8,36.4,167.2,35.7,167.2,34.9"/>
	<path class="st0" d="M169.2,34.4c-0.1-0.1-0.3-0.2-0.5-0.2c-0.4,0-0.8,0.3-0.8,0.7c0,0.4,0.3,0.8,0.8,0.8c0.2,0,0.4-0.1,0.5-0.2
		v-0.2c-0.1,0.2-0.3,0.3-0.5,0.3c-0.3,0-0.6-0.3-0.6-0.6c0-0.3,0.3-0.6,0.6-0.6c0.2,0,0.4,0.1,0.5,0.2L169.2,34.4L169.2,34.4z"/>
	<g>
		<path class="st1" d="M12.3,82l-0.5,0.5v4c0,0.5-0.1,0.9-0.2,1.2c-0.1,0.3-0.4,0.6-0.7,0.8c-0.3,0.2-0.7,0.4-1.1,0.5
			c-0.5,0.1-1,0.2-1.7,0.2c-0.6,0-1.2-0.1-1.6-0.2c-0.5-0.1-0.8-0.3-1.1-0.5c-0.3-0.2-0.5-0.5-0.7-0.8c-0.1-0.3-0.2-0.8-0.2-1.2v-4
			L4.1,82h3.1l-0.5,0.5v3.9c0,0.4,0.1,0.7,0.4,0.9c0.3,0.2,0.6,0.3,1.1,0.3c0.5,0,0.8-0.1,1.1-0.3c0.3-0.2,0.4-0.5,0.4-0.9v-3.9
			L9.2,82L12.3,82L12.3,82z"/>
		<path class="st1" d="M24.1,82l-0.5,0.5V89H22l-3.9-4.1v3.6l0.5,0.5h-2.6l0.5-0.5v-6L15.9,82h2.3L22,86v-3.6L21.5,82H24.1z"/>
		<path class="st1" d="M31.2,89h-3.1l0.5-0.5v-6L28.1,82h3.1l-0.5,0.5v6L31.2,89z"/>
		<path class="st1" d="M42.6,82l-3.4,7h-1.5l-3.4-7h3.1l-0.5,0.5l1.8,3.9l1.8-3.9L40,82H42.6z"/>
		<path class="st1" d="M52.4,89h-6.9l0.5-0.5v-6L45.5,82h6.9v1.9l-0.6-0.4h-3.7v1.4h2.4l0.5-0.4v2.3l-0.5-0.4h-2.4v1.4h3.7l0.6-0.4
			L52.4,89L52.4,89z"/>
		<path class="st1" d="M64,89h-3.2l0.5-0.5l-1.4-2h-0.9v2l0.5,0.5h-3l0.5-0.5v-6L56.3,82h4.5c1,0,1.7,0.2,2.1,0.6
			c0.4,0.4,0.7,0.9,0.7,1.5c0,0.5-0.1,0.9-0.4,1.3c-0.3,0.4-0.7,0.6-1.2,0.8L64,89z M61.4,84.2c0-0.2,0-0.3-0.1-0.5
			c-0.1-0.1-0.2-0.2-0.3-0.3c-0.1-0.1-0.3-0.1-0.5-0.1h-1.7v1.7h1.4c0.3,0,0.6-0.1,0.9-0.3C61.3,84.7,61.4,84.5,61.4,84.2z"/>
		<path class="st1" d="M74.3,87c0,0.3-0.1,0.6-0.2,0.9c-0.1,0.3-0.3,0.5-0.6,0.7c-0.3,0.2-0.6,0.4-1,0.5c-0.4,0.1-0.9,0.2-1.4,0.2
			c-0.3,0-0.7,0-1-0.1c-0.4-0.1-0.7-0.1-1.1-0.2c-0.3-0.1-0.6-0.2-0.8-0.2l-0.6,0.6v-2.6c0.6,0.4,1.1,0.6,1.8,0.8
			c0.6,0.2,1.2,0.3,1.6,0.3c0.2,0,0.4,0,0.6-0.1c0.2-0.1,0.3-0.2,0.3-0.4c0-0.2-0.1-0.3-0.2-0.4c-0.2-0.1-0.5-0.2-0.9-0.3
			c-0.4-0.1-0.7-0.2-0.9-0.2c-0.8-0.3-1.4-0.6-1.7-0.9c-0.4-0.3-0.6-0.8-0.6-1.4c0-0.3,0.1-0.7,0.3-1c0.2-0.3,0.6-0.6,1.1-0.7
			c0.5-0.2,1.1-0.3,1.9-0.3c0.2,0,0.4,0,0.6,0c0.2,0,0.4,0.1,0.7,0.1c0.2,0.1,0.5,0.1,0.7,0.2c0.2,0.1,0.4,0.1,0.5,0.2l0.6-0.5v2.4
			c-0.3-0.2-0.7-0.3-1.1-0.4c-0.4-0.1-0.7-0.2-1.1-0.3c-0.3-0.1-0.7-0.1-0.9-0.1c-0.3,0-0.5,0-0.7,0.1c-0.2,0.1-0.2,0.2-0.2,0.3
			c0,0.1,0.1,0.2,0.2,0.3c0.1,0.1,0.3,0.2,0.5,0.2c0.2,0.1,0.4,0.1,0.8,0.2c0.3,0.1,0.5,0.1,0.7,0.2c0.7,0.2,1.3,0.5,1.7,0.9
			C74.1,86,74.3,86.4,74.3,87z"/>
		<path class="st1" d="M86.4,89h-3.1l0.5-0.5l-0.3-0.7h-3.5l-0.4,0.7L80,89h-2.7l3.2-6.5L80.3,82h2.5L86.4,89z M82.8,86.5l-1.2-2.5
			l-1.2,2.5H82.8z"/>
		<path class="st1" d="M96.1,89h-6.6l0.5-0.5v-6L89.5,82h3l-0.5,0.5v5h3.5l0.6-0.4L96.1,89L96.1,89z"/>
		<path class="st1" d="M114.4,89h-3l0.5-0.5v-3.4L110,89h-1l-2.2-4v3.4l0.5,0.5h-2.5l0.5-0.5v-6l-0.5-0.5h2.6l2.4,4.3l2.2-4.3h2.6
			l-0.5,0.5v6L114.4,89z"/>
		<path class="st1" d="M126.2,82l-0.5,0.5v4c0,0.5-0.1,0.9-0.2,1.2c-0.1,0.3-0.4,0.6-0.7,0.8c-0.3,0.2-0.7,0.4-1.1,0.5
			c-0.5,0.1-1,0.2-1.7,0.2c-0.6,0-1.2-0.1-1.6-0.2c-0.5-0.1-0.8-0.3-1.1-0.5c-0.3-0.2-0.5-0.5-0.7-0.8c-0.1-0.3-0.2-0.8-0.2-1.2v-4
			L118,82h3.1l-0.5,0.5v3.9c0,0.4,0.1,0.7,0.4,0.9c0.3,0.2,0.6,0.3,1.1,0.3c0.5,0,0.8-0.1,1.1-0.3c0.3-0.2,0.4-0.5,0.4-0.9v-3.9
			l-0.5-0.5L126.2,82L126.2,82z"/>
		<path class="st1" d="M136.4,87c0,0.3-0.1,0.6-0.2,0.9c-0.1,0.3-0.3,0.5-0.6,0.7c-0.3,0.2-0.6,0.4-1,0.5c-0.4,0.1-0.9,0.2-1.4,0.2
			c-0.3,0-0.7,0-1-0.1c-0.4-0.1-0.7-0.1-1.1-0.2c-0.3-0.1-0.6-0.2-0.8-0.2l-0.6,0.6v-2.6c0.6,0.4,1.1,0.6,1.8,0.8
			c0.6,0.2,1.2,0.3,1.6,0.3c0.2,0,0.4,0,0.6-0.1c0.2-0.1,0.3-0.2,0.3-0.4c0-0.2-0.1-0.3-0.2-0.4c-0.2-0.1-0.5-0.2-0.9-0.3
			c-0.4-0.1-0.7-0.2-0.9-0.2c-0.8-0.3-1.4-0.6-1.7-0.9c-0.4-0.3-0.6-0.8-0.6-1.4c0-0.3,0.1-0.7,0.3-1c0.2-0.3,0.6-0.6,1.1-0.7
			c0.5-0.2,1.1-0.3,1.9-0.3c0.2,0,0.4,0,0.6,0c0.2,0,0.4,0.1,0.7,0.1c0.2,0.1,0.5,0.1,0.7,0.2c0.2,0.1,0.4,0.1,0.5,0.2l0.6-0.5v2.4
			c-0.3-0.2-0.7-0.3-1.1-0.4c-0.4-0.1-0.7-0.2-1.1-0.3c-0.3-0.1-0.7-0.1-0.9-0.1c-0.3,0-0.5,0-0.7,0.1c-0.2,0.1-0.2,0.2-0.2,0.3
			c0,0.1,0.1,0.2,0.2,0.3c0.1,0.1,0.3,0.2,0.5,0.2c0.2,0.1,0.4,0.1,0.8,0.2c0.3,0.1,0.5,0.1,0.7,0.2c0.7,0.2,1.3,0.5,1.7,0.9
			C136.2,86,136.4,86.4,136.4,87z"/>
		<path class="st1" d="M143.4,89h-3.1l0.5-0.5v-6l-0.5-0.5h3.1l-0.5,0.5v6L143.4,89z"/>
		<path class="st1" d="M154.1,88.5c-0.1,0.1-0.3,0.2-0.5,0.2c-0.2,0.1-0.4,0.1-0.7,0.2c-0.3,0.1-0.5,0.1-0.8,0.2
			c-0.3,0-0.6,0.1-0.8,0.1c-0.6,0-1.1-0.1-1.6-0.2c-0.5-0.1-1-0.4-1.3-0.7c-0.4-0.3-0.7-0.7-0.9-1.2c-0.2-0.5-0.3-1-0.3-1.6
			c0-0.5,0.1-1,0.3-1.4c0.2-0.4,0.5-0.8,0.8-1.2c0.4-0.3,0.8-0.6,1.4-0.8c0.5-0.2,1.1-0.3,1.8-0.3c0.3,0,0.5,0,0.8,0.1
			c0.3,0,0.5,0.1,0.8,0.1c0.2,0.1,0.5,0.1,0.7,0.2l0.5-0.5v2.3c-0.3-0.2-0.5-0.3-0.8-0.4c-0.3-0.1-0.6-0.2-0.9-0.2
			c-0.3-0.1-0.6-0.1-1-0.1c-0.7,0-1.3,0.2-1.6,0.6c-0.4,0.4-0.5,0.9-0.5,1.5c0,0.4,0.1,0.8,0.3,1.1s0.4,0.6,0.8,0.8
			c0.3,0.2,0.7,0.3,1.2,0.3c0.4,0,0.8,0,1.1-0.1c0.3-0.1,0.6-0.2,0.8-0.3c0.2-0.1,0.4-0.2,0.7-0.4L154.1,88.5L154.1,88.5z"/>
		<path class="st1" d="M168.3,86.1l-0.5-0.5h2.6v2.8c-0.2,0.1-0.4,0.2-0.6,0.3c-0.2,0.1-0.5,0.2-0.8,0.3c-0.3,0.1-0.6,0.1-0.9,0.2
			c-0.3,0-0.6,0.1-0.9,0.1c-0.8,0-1.5-0.1-2.1-0.4c-0.7-0.3-1.2-0.7-1.6-1.2c-0.4-0.5-0.6-1.2-0.6-2.1c0-0.8,0.2-1.5,0.6-2.1
			c0.4-0.5,1-1,1.6-1.2c0.7-0.3,1.4-0.4,2.1-0.4c0.5,0,0.9,0,1.3,0.1c0.3,0.1,0.7,0.2,1.1,0.3l0.6-0.5v2.4c-0.5-0.3-0.9-0.5-1.4-0.6
			c-0.5-0.1-1-0.2-1.5-0.2c-0.3,0-0.6,0.1-0.9,0.2c-0.3,0.1-0.5,0.2-0.7,0.4c-0.2,0.2-0.3,0.4-0.4,0.7c-0.1,0.3-0.1,0.6-0.1,0.9
			c0,0.6,0.2,1.2,0.6,1.6c0.4,0.4,0.9,0.6,1.6,0.6c0.3,0,0.6,0,1.1-0.1V86.1z"/>
		<path class="st1" d="M181.7,89h-3.2l0.5-0.5l-1.4-2h-0.9v2L177,89h-3l0.5-0.5v-6L174,82h4.5c1,0,1.7,0.2,2.1,0.6
			c0.4,0.4,0.7,0.9,0.7,1.5c0,0.5-0.1,0.9-0.4,1.3c-0.3,0.4-0.7,0.6-1.2,0.8L181.7,89z M179.2,84.2c0-0.2,0-0.3-0.1-0.5
			c-0.1-0.1-0.2-0.2-0.3-0.3c-0.1-0.1-0.3-0.1-0.5-0.1h-1.6v1.7h1.4c0.3,0,0.6-0.1,0.9-0.3C179,84.7,179.2,84.5,179.2,84.2z"/>
		<path class="st1" d="M193.5,85.5c0,0.8-0.2,1.5-0.6,2.1c-0.4,0.6-0.9,1-1.6,1.2c-0.6,0.3-1.3,0.4-2.1,0.4c-0.7,0-1.4-0.1-2.1-0.4
			c-0.6-0.3-1.2-0.7-1.6-1.2c-0.4-0.6-0.6-1.3-0.6-2.1c0-0.6,0.1-1.2,0.4-1.7c0.2-0.5,0.6-0.9,1-1.2c0.4-0.3,0.9-0.5,1.3-0.7
			c0.5-0.1,1-0.2,1.6-0.2c0.5,0,1.1,0.1,1.6,0.2c0.5,0.1,0.9,0.4,1.3,0.7c0.4,0.3,0.7,0.7,0.9,1.2C193.4,84.3,193.5,84.8,193.5,85.5
			z M191.2,85.5c0-0.7-0.2-1.2-0.5-1.6c-0.3-0.4-0.8-0.6-1.5-0.6c-0.4,0-0.8,0.1-1.1,0.3c-0.3,0.2-0.5,0.4-0.6,0.8
			c-0.1,0.3-0.2,0.7-0.2,1.2c0,0.3,0,0.6,0.1,0.9c0.1,0.3,0.2,0.5,0.3,0.7c0.2,0.2,0.4,0.3,0.6,0.4c0.2,0.1,0.5,0.2,0.9,0.2
			c0.3,0,0.6-0.1,0.9-0.2c0.2-0.1,0.4-0.3,0.6-0.4c0.2-0.2,0.3-0.4,0.3-0.7C191.2,86.1,191.2,85.8,191.2,85.5z"/>
		<path class="st1" d="M204.9,82l-0.5,0.5v4c0,0.5-0.1,0.9-0.2,1.2c-0.1,0.3-0.4,0.6-0.7,0.8c-0.3,0.2-0.7,0.4-1.1,0.5
			c-0.5,0.1-1,0.2-1.7,0.2c-0.6,0-1.2-0.1-1.6-0.2c-0.5-0.1-0.8-0.3-1.1-0.5c-0.3-0.2-0.5-0.5-0.7-0.8c-0.1-0.3-0.2-0.8-0.2-1.2v-4
			l-0.5-0.5h3.1l-0.5,0.5v3.9c0,0.4,0.1,0.7,0.4,0.9c0.3,0.2,0.6,0.3,1.1,0.3c0.5,0,0.8-0.1,1.1-0.3c0.3-0.2,0.4-0.5,0.4-0.9v-3.9
			l-0.5-0.5L204.9,82L204.9,82z"/>
		<path class="st1" d="M215.9,84.3c0,1-0.3,1.7-1,2.1c-0.6,0.4-1.5,0.6-2.5,0.6h-1.3v1.5l0.5,0.5h-3l0.5-0.5v-6l-0.5-0.5h3.9
			c0.6,0,1.1,0.1,1.6,0.2c0.5,0.1,0.9,0.4,1.3,0.7C215.7,83.2,215.9,83.7,215.9,84.3z M213.7,84.4c0-0.4-0.1-0.6-0.3-0.8
			c-0.2-0.1-0.6-0.2-1-0.2h-1.2v2.1h1c0.5,0,0.9-0.1,1.2-0.2C213.6,85.2,213.7,84.9,213.7,84.4z"/>
	</g>
</g>
</svg>
