<?xml version="1.0" encoding="utf-8"?>
<!-- Generator: Adobe Illustrator 26.0.2, SVG Export Plug-In . SVG Version: 6.00 Build 0)  -->
<svg version="1.1" id="Layer_1" xmlns="http://www.w3.org/2000/svg" xmlns:xlink="http://www.w3.org/1999/xlink" x="0px" y="0px"
	 viewBox="0 0 220 100" style="enable-background:new 0 0 220 100;" xml:space="preserve">
<style type="text/css">
	.st0{fill:#07222D;}
	.st1{filter:url(#Adobe_OpacityMaskFilter);}
	.st2{fill-rule:evenodd;clip-rule:evenodd;fill:#FFFFFF;}
	.st3{mask:url(#mask-2_00000172419927635028950350000016990595500894708871_);fill-rule:evenodd;clip-rule:evenodd;fill:#07222D;}
	.st4{filter:url(#Adobe_OpacityMaskFilter_00000072253293585298517690000004725348041641847712_);}
	.st5{mask:url(#mask-4_00000031179769895205708410000007030728210091176124_);fill-rule:evenodd;clip-rule:evenodd;fill:#07222D;}
</style>
<g id="layer1_00000000205755156415481740000000259453496237059261_" transform="translate(-1687.849,1694.3458)">
	<g id="g3846" transform="matrix(1.5770358,0,0,1.5770358,-1570.7398,-1303.8993)">
		<g id="g3863">
			<path id="path3064" class="st0" d="M2112.25-230.35c-6.65,0.05-12.09,7.44-12.09,13.89c0,6.79,3.99,15.06,12.09,15.04
				s12.31-8.94,12.31-15.04C2124.56-223.2,2118.9-230.4,2112.25-230.35z M2112.25-230.1c5.57,0,7.07,6.15,7.07,13.64
				c0,9.88-1.81,14.75-7.07,14.75c-5.26-0.01-6.97-4-6.97-14.75C2105.28-223.19,2106.68-230.1,2112.25-230.1z"/>
			<path id="path3060" class="st0" d="M2126.75-216.28c-0.03-7.34,5.84-13.84,10.81-14.16c1.8-0.13,4.1,0.7,5.45,1.28
				c0.98,0.43,2.98-0.19,3.33-1.32h0.19v10h-0.19c0-0.43-1.85-9.71-8.78-9.71c-5.12,0-5.61,9-5.61,13.91s0.15,14.62,6.12,14.62
				c2.89,0,5.04-1.27,5.59-3.83v-7.79h-2.43v-0.33h9.42v0.33h-2.32v11.39h-0.19c0,0-0.38-1.64-2.29-1.64
				c-2.45,0.01-4.76,2.13-7.57,2.11C2130.83-201.48,2126.78-208.94,2126.75-216.28L2126.75-216.28z"/>
			<path id="path3058" class="st0" d="M2081.89-229.36h-2.93v-0.33h10.27v0.33h-2.58l7.34,19.93c2.29-7.07,4.07-12.29,6.47-19.93
				h-2.55v-0.33h5.42v0.33h-2.47l-8.92,27.81L2081.89-229.36z"/>
			<path id="path3054" class="st0" d="M2152.09-208.37l-0.05-21.03h-2.79v-0.32h10.28v0.32h-2.79l0.06,23.06
				c0.62,2.64,1.72,4.64,5.47,4.67c3.75,0.03,6.3-2.22,7.25-5.29v-22.44h-3.19v-0.31h26.13l0.05,10.1h-0.25
				c-0.48-6.52-3-8.98-7.4-9.7c-1.51-0.25-3.1-0.06-5.11-0.08v12.88c1.75,0.14,3.61,0.02,4.86-1.05c1.14-0.98,1.46-3.24,1.55-4.16
				h0.22v11.22h-0.24c-0.07,0-0.16-2.82-1.53-4.15c-1.38-1.34-3.13-1.67-4.86-1.35v13.76c2.45,0,4.4,0.21,6.09-0.26
				c5.15-1.41,6.97-5.76,6.95-10.12h0.29v10.7h-20.5v-0.33h2.32v-27.15h-5.01v22.44c-0.57,2.15-2.64,5.7-7.96,5.68
				C2157.01-201.3,2152.11-203.53,2152.09-208.37L2152.09-208.37z"/>
		</g>
	</g>
</g>
</svg>
