<?xml version="1.0" encoding="utf-8"?>
<!-- Generator: Adobe Illustrator 26.0.2, SVG Export Plug-In . SVG Version: 6.00 Build 0)  -->
<svg version="1.1" id="Layer_1" xmlns="http://www.w3.org/2000/svg" xmlns:xlink="http://www.w3.org/1999/xlink" x="0px" y="0px"
	 viewBox="0 0 220 100" style="enable-background:new 0 0 220 100;" xml:space="preserve">
<style type="text/css">
	.st0{fill:#07222D;}
	.st1{filter:url(#Adobe_OpacityMaskFilter);}
	.st2{fill-rule:evenodd;clip-rule:evenodd;fill:#FFFFFF;}
	.st3{mask:url(#mask-2_00000172419927635028950350000016990595500894708871_);fill-rule:evenodd;clip-rule:evenodd;fill:#07222D;}
	.st4{filter:url(#Adobe_OpacityMaskFilter_00000153674345200235359050000016125726682860178058_);}
	.st5{mask:url(#mask-4_00000031179769895205708410000007030728210091176124_);fill-rule:evenodd;clip-rule:evenodd;fill:#07222D;}
</style>
<path class="st0" d="M155,95H65V5h90V95z M127.72,20.42l-6.04,22.86c-2.29-8.72-4.4-16.6-4.75-17.89c-0.92-3.35-3.15-4.96-6.45-4.96
	h-6.16L98.3,43.3l-6.02-22.87L78.78,22c0,0,7.44,28.24,8.77,33.36c0.87,3.28,2.6,5.5,5.92,6.39c3.43,0.93,10.49,3.03,10.49,3.03
	l6.03-22.94c1.83,6.95,3.23,12.06,3.78,14.07c0.82,2.98,2.79,4.91,6.22,5.92c4.64,1.36,9.96,2.95,9.96,2.95l11.28-42.88
	L127.72,20.42z M117.06,74.69c-2.13,0-3.39,1.07-3.89,2.52c-0.42-1.75-2.02-2.52-3.71-2.52c-2.12,0-3.74,1.26-4.1,3.22v-5.94h-2.86
	v10.72h2.86v-2.94c0.36,2.07,1.92,3.14,4.01,3.14c1.79,0,3.26-0.89,3.8-2.48c0.5,1.43,1.76,2.48,3.88,2.48
	c2.86,0,4.14-1.93,4.14-4.1C121.21,76.62,119.92,74.69,117.06,74.69z M110.62,79.59c-0.02,0.65-0.56,1.17-1.22,1.16
	c-0.92,0-1.26-0.72-1.26-1.98c0-0.95,0.23-1.98,1.32-1.98c0.67,0,1.08,0.45,1.08,1.23h2.42c-0.08,0.52-0.08,1.04,0,1.56
	L110.62,79.59z M117.06,80.75c-1.13,0-1.29-1.14-1.29-1.98s0.16-1.98,1.29-1.98s1.29,1.13,1.29,1.98
	C118.35,79.62,118.19,80.75,117.06,80.75z M137.9,81.01c-0.94,0-1.45-0.64-1.52-1.58h5.61c0-3.02-1.32-4.74-4.25-4.74
	c-1.85-0.06-3.49,1.18-3.94,2.98v-0.33c0-1.26-0.66-2.63-2.59-2.63c-0.81-0.04-1.61,0.24-2.21,0.79c-0.04,0.04-0.08,0.09-0.11,0.13
	c-0.14,0.15-0.22,0.26-0.28,0.32c-0.39-0.77-1.18-1.26-2.05-1.25c-0.99-0.06-1.94,0.41-2.48,1.25h-0.04v-1.05h-2.82v7.79h2.86v-4.22
	c0-0.82,0.25-1.44,0.99-1.44c0.92,0,0.99,0.7,0.99,1.44v4.22h2.87v-4.22c0-0.82,0.25-1.44,0.99-1.44c0.91,0,0.99,0.7,0.99,1.44v4.22
	h2.86v-2.66c0.5,1.84,2.04,2.86,4.07,2.86c1.76,0,3.34-0.76,3.94-2.42h-2.66c-0.3,0.37-0.76,0.57-1.24,0.54L137.9,81.01z
	 M137.87,76.54c0.73-0.03,1.35,0.54,1.37,1.27c0,0.04,0,0.07,0,0.11h-2.85c0.12-0.9,0.63-1.38,1.45-1.38L137.87,76.54z M98.84,77.37
	c-0.5-1.73-1.8-2.69-3.97-2.69c-1.51-0.05-2.92,0.77-3.62,2.11l0.6-1.92h-3.04l-1.07,4.85h-0.06l-1.03-4.85h-2.68l-0.99,4.85h-0.04
	l-1.14-4.85h-2.98l2.37,7.79h2.95l1.14-4.82h0.06l1.11,4.82h2.95l1.4-4.49c-0.03,0.21-0.05,0.42-0.05,0.63
	c0,2.59,1.79,4.07,4.22,4.07c1.67,0,3.18-0.69,3.84-2.18v1.98h2.86v-10.7h-2.86L98.84,77.37z M94.99,76.54
	c0.73-0.01,1.34,0.57,1.35,1.3c0,0.03,0,0.06,0,0.09h-2.86c0.15-0.9,0.66-1.38,1.48-1.38L94.99,76.54z M96.25,80.44
	c-0.3,0.38-0.76,0.58-1.25,0.56c-0.93,0-1.44-0.64-1.52-1.58h5.33v1.02H96.25z"/>
</svg>
