<?xml version="1.0" encoding="utf-8"?>
<!-- Generator: Adobe Illustrator 26.0.2, SVG Export Plug-In . SVG Version: 6.00 Build 0)  -->
<svg version="1.1" id="Layer_1" xmlns="http://www.w3.org/2000/svg" xmlns:xlink="http://www.w3.org/1999/xlink" x="0px" y="0px"
	 viewBox="0 0 617.07 12" style="enable-background:new 0 0 617.07 12;" xml:space="preserve">
<style type="text/css">
	.st0{fill:none;stroke:#FFFFFF;stroke-width:4;stroke-miterlimit:10;}
</style>
<g>
	<path class="st0" d="M0,2c8.34,0,8.34,8,16.68,8S25,2,33.35,2s8.34,8,16.65,8s8.37-8,16.7-8s8.3,8,16.68,8s8.34-8,16.68-8
		s8.34,8,16.68,8s8.34-8,16.67-8s8.34,8,16.68,8s8.34-8,16.67-8s8.34,8,16.68,8s8.34-8,16.68-8s8.34,8,16.68,8s8.34-8,16.67-8
		s8.34,8,16.68,8c8.34,0,8.34-8,16.68-8s8.34,8,16.68,8s8.34-8,16.68-8s8.34,8,16.68,8s8.35-8,16.69-8s8.34,8,16.68,8"/>
	<path class="st0" d="M266.83,2c8.34,0,8.34,8,16.68,8s8.32-8,16.67-8c8.35,0,8.34,8,16.65,8s8.37-8,16.7-8c8.33,0,8.3,8,16.68,8
		c8.38,0,8.34-8,16.68-8s8.34,8,16.68,8s8.34-8,16.67-8c8.33,0,8.34,8,16.68,8s8.34-8,16.67-8c8.33,0,8.34,8,16.68,8
		c8.34,0,8.34-8,16.68-8s8.34,8,16.68,8s8.34-8,16.67-8c8.33,0,8.34,8,16.68,8c8.34,0,8.34-8,16.68-8c8.34,0,8.34,8,16.68,8
		c8.34,0,8.34-8,16.68-8c8.34,0,8.34,8,16.68,8c8.34,0,8.35-8,16.69-8c8.34,0,8.34,8,16.68,8"/>
</g>
</svg>
