<?xml version="1.0" encoding="utf-8"?>
<!-- Generator: Adobe Illustrator 28.0.0, SVG Export Plug-In . SVG Version: 6.00 Build 0)  -->
<svg version="1.1"
	 id="svg23413" xmlns:cc="http://creativecommons.org/ns#" xmlns:rdf="http://www.w3.org/1999/02/22-rdf-syntax-ns#" xmlns:svg="http://www.w3.org/2000/svg" xmlns:dc="http://purl.org/dc/elements/1.1/"
	 xmlns="http://www.w3.org/2000/svg" xmlns:xlink="http://www.w3.org/1999/xlink" x="0px" y="0px" viewBox="0 0 220 100"
	 style="enable-background:new 0 0 220 100;" xml:space="preserve">
<style type="text/css">
	.st0{fill:#07222D;}
</style>
<g id="layer1" transform="translate(-67.092411,-701.4412)">
	<path id="path13406" class="st0" d="M284.8,758.1c-0.6,0-1.2,0.5-1.2,1.2c0,0.7,0.5,1.2,1.2,1.2c0.6,0,1.2-0.5,1.2-1.2
		C285.9,758.7,285.4,758.1,284.8,758.1 M242.8,760.5h5.3v-0.5l-0.6-0.1c-0.5-0.1-0.8-0.4-0.8-1.2v-7.2h1.2c0.8,0,1.2,0.2,1.2,1.8
		l0.1,3.4c0.1,3,1,3.9,2.5,3.9c1.5,0,1.9-1,1.9-2.5v-0.6h-0.6v0.4c0,1-0.1,1.7-0.5,1.7c-0.3,0-0.4-0.3-0.4-1.5l-0.2-2.3
		c-0.2-3.1-0.6-4.2-2.9-4.6c2.2-0.6,3.5-2.2,3.5-4.5c0-3-2.3-4.4-4.6-4.4h-9v0.5l0.5,0.1c0.9,0.2,1,0.7,1,2.9v10.5
		c0,2.3-0.7,3.5-2.2,3.5c-1.3,0-2.1-0.7-2.1-3.2v-12.5c0-0.7,0.2-0.9,0.8-1.1l0.7-0.2v-0.5h-5.5v0.5l0.6,0.2
		c0.5,0.2,0.7,0.4,0.7,1.1v12.3c0,2.8,1.6,4.3,4.1,4.3c2.5,0,3.7-1.5,3.7-4.4v-11.5c0-1.4,0.3-1.9,1.5-1.9c0.9,0,1.3,0.3,1.3,1.2
		v14.7c0,0.7-0.2,1-0.8,1.1l-0.6,0.2L242.8,760.5L242.8,760.5z M278.2,744.1c0-0.7,0.2-1,0.8-1.1l0.7-0.2v-0.5h-5.5v0.5l0.6,0.2
		c0.5,0.2,0.8,0.4,0.8,1.1v14.8c0,0.7-0.3,1.1-1.1,1.1c-0.9,0-1.1-0.3-1.4-1.9l-3.4-15.8h-1.1l-3.2,15.3c-0.4,1.7-0.6,2.1-1.3,2.3
		l-0.4,0.1v0.5h3.8v-0.5l-0.6-0.1c-0.8-0.2-1-0.6-0.6-2.6l1.9-9.8l2.1,10.4c0.3,1.5,0.3,1.8-0.8,2l-0.6,0.1v0.5h14v-6h-0.5
		c-0.3,2.8-0.8,5.4-3.1,5.4h-1.1L278.2,744.1L278.2,744.1z M270,755.6v-0.7h-3.6l-0.1,0.7H270z M255.2,744.4V757c0,1.9,0,2.8-0.9,3
		l-0.5,0.1v0.5h3.9v-0.5c-1.7-0.2-1.7-0.8-1.7-2.9v-12l-0.6-0.6l6.5,15.9h1.1v-14.7c0-2.2,0-2.6,1.1-2.9l0.4-0.1v-0.5h-4v0.5
		l0.4,0.1c1.3,0.2,1.3,0.8,1.3,2.8v9.2l0.3-0.1l-4.9-12.5h-3.8v0.5l0.4,0.1C254.5,743.1,254.8,743.5,255.2,744.4 M246.8,743h1.1
		c1.1,0,2,0.7,2,4.1c0,3.5-0.7,3.9-2.2,3.9h-0.9V743z M229.2,751.3c0,7.6-0.6,8.7-2,8.7c-1.4,0-2-1.1-2-8.7c0-7.3,0.7-8.4,2-8.4
		C228.5,742.9,229.2,744,229.2,751.3 M232.1,751.4c0-5-1.6-9.2-4.9-9.2c-3.3,0-4.9,4.2-4.9,9.2c0,5.1,1.6,9.2,4.9,9.2
		C230.5,760.7,232.1,756.5,232.1,751.4 M220.8,744.1c0-0.7,0.2-1,0.7-1.1l0.6-0.2v-0.5h-5.5v0.5l0.7,0.2c0.5,0.1,0.8,0.3,0.8,1.1
		v12.7c0,1.8-0.2,3.2-1.5,3.2c-0.8,0-1.5-0.7-1.5-1.1c0.1-0.8,1.5-0.8,1.6-2.1c0.1-0.9-0.5-1.3-1.1-1.4c-0.8-0.1-1.8,0.6-1.8,2
		c0,1.8,1.1,3.4,3.1,3.4c2.2,0,3.9-1.5,3.9-4.3L220.8,744.1L220.8,744.1z M132.6,744.1c0-0.7,0.2-1,0.8-1.1l0.7-0.2v-0.5h-5.5v0.5
		l0.6,0.2c0.5,0.2,0.8,0.4,0.8,1.1v14.8c0,0.7-0.3,1.1-1.1,1.1c-0.9,0-1.1-0.3-1.5-1.9l-3.4-15.8h-1.1l-3.2,15.3
		c-0.4,1.7-0.6,2.1-1.3,2.3l-0.4,0.1v0.5h3.8v-0.5l-0.6-0.1c-0.8-0.2-1-0.6-0.6-2.6l1.9-9.8l2.1,10.4c0.3,1.5,0.3,1.8-0.8,2
		l-0.6,0.1v0.5h14v-6h-0.5c-0.3,2.8-0.8,5.4-3.1,5.4h-1.1V744.1z M206.1,743h0.6c1.6,0,2.2,2.6,2.4,5.4h0.5v-6H200v6h0.5
		c0.2-2.8,0.7-5.4,2.4-5.4h0.6v15.8c0,0.7-0.2,1-0.8,1.1l-0.7,0.2v0.5h5.7v-0.5l-0.8-0.2c-0.5-0.1-0.8-0.3-0.8-1.1L206.1,743
		L206.1,743z M194,751.4l0.8,0c1.2,0,1.5,0.5,1.8,3.4h0.5v-7.3h-0.5c-0.3,2.3-0.6,3.3-1.7,3.3l-0.8,0V743h1.8c2,0,2.5,2.6,2.8,5.4
		h0.5v-6H190v0.5l0.6,0.2c0.6,0.2,0.8,0.5,0.8,1.1v14.6c0,0.7-0.2,1-0.8,1.1l-0.6,0.2v0.5h9.4v-6h-0.5c-0.3,2.7-0.7,5.4-3,5.4H194
		L194,751.4L194,751.4z M184.1,751.4l0.8,0c1.2,0,1.5,0.5,1.8,3.4h0.5v-7.3h-0.5c-0.3,2.3-0.6,3.3-1.7,3.3l-0.8,0V743h1.8
		c2,0,2.5,2.6,2.8,5.4h0.5v-6h-9.4v0.5l0.8,0.2c0.6,0.2,0.8,0.5,0.8,1.1v14.6c0,0.7-0.2,1-0.8,1.1l-0.6,0.2v0.5h9.4v-6h-0.5
		c-0.3,2.7-0.7,5.4-3,5.4h-1.8V751.4L184.1,751.4z M173.2,743h0.8c1.1,0,2,0.7,2,4.1c0,3.5-0.7,3.9-2.2,3.9h-0.6V743z M169.2,760.5
		h5.3v-0.5l-0.6-0.1c-0.5-0.1-0.8-0.4-0.8-1.2v-7.2h1c0.8,0,1.2,0.3,1.2,1.8l0.1,3.4c0.1,3,1,3.9,2.5,3.9c1.5,0,1.9-1,1.9-2.5v-0.6
		h-0.6v0.4c0,1-0.1,1.7-0.5,1.7c-0.3,0-0.4-0.3-0.4-1.5l-0.2-2.3c-0.2-3.2-0.6-4.2-2.9-4.6c2.2-0.6,3.5-2.2,3.5-4.5
		c0-3-2.3-4.4-4.6-4.4h-5v0.5l0.6,0.2c0.5,0.2,0.8,0.4,0.8,1.1v14.7c0,0.7-0.2,1-0.8,1.1l-0.6,0.2L169.2,760.5L169.2,760.5z
		 M165.2,743h0.6c1.6,0,2.2,2.6,2.4,5.4h0.5v-6h-9.6v6h0.5c0.2-2.8,0.7-5.4,2.4-5.4h0.6v15.8c0,0.7-0.2,1-0.8,1.1l-0.7,0.2v0.5h5.6
		v-0.5l-0.7-0.2c-0.7-0.2-0.8-0.7-0.8-1.1V743z M159.1,755.8c0-5.4-5.9-6.8-5.9-10.8c0-0.8,0.3-2.1,1.6-2.1c1.9,0,2.6,2.5,2.9,5.4
		h0.5v-6h-0.3c-0.1,0.6-0.4,0.8-0.7,0.8c-0.6,0-0.9-1-2.4-1c-2.2,0-3.8,1.9-3.8,4.3c0,4.5,5.9,6.3,5.9,10.5c0,1.9-0.9,2.9-2.1,2.9
		c-1.8,0-2.9-2.1-3.2-5.4h-0.5v6h0.3c0.3-0.9,0.6-0.9,0.9-0.9c0.5,0,1,1.1,2.6,1.1C157.3,760.6,159.1,758.6,159.1,755.8
		 M141.8,744.1c0-0.7,0.2-1,0.8-1.1l0.7-0.2v-0.5h-5.5v0.5l0.6,0.2c0.5,0.2,0.8,0.4,0.8,1.1v14.7c0,0.7-0.2,1-0.8,1.1l-0.6,0.2v0.5
		h8.6v-6h-0.5c-0.3,2.8-0.8,5.4-3.1,5.4h-1.1V744.1z M124.3,755.6v-0.7h-3.6l-0.1,0.7H124.3L124.3,755.6z M109.1,760.6h1.1l2.5-13
		h-0.4l2.7,13h1l3.2-15.3c0.3-1.6,0.5-2.2,1.2-2.3l0.5-0.1v-0.5h-3.7v0.5l0.6,0.1c0.8,0.2,1,0.6,0.6,2.6l-2.1,10.3h0.3l-2.1-10.8
		c-0.2-1-0.3-1.9,0.5-2l0.6-0.1v-0.5h-5.1v0.5l0.3,0.1c0.5,0.1,0.6,0.4,0.8,1.5l0.8,3.9l-0.2-2.4l-1.8,9.6h0.2l-2.1-10.6
		c-0.2-1.1-0.3-1.9,0.5-2.1l0.4-0.1v-0.5h-5.2v0.5l0.5,0.1c0.5,0.1,0.7,0.4,1.1,1.8L109.1,760.6L109.1,760.6z M95,751.4l0.8,0
		c1.2,0,1.5,0.5,1.8,3.4h0.5v-7.3h-0.5c-0.3,2.3-0.6,3.3-1.7,3.3l-0.8,0V743h1.8c2,0,2.5,2.6,2.8,5.4h0.5v-6H91v0.5l0.6,0.2
		c0.6,0.2,0.8,0.5,0.8,1.1v14.6c0,0.7-0.2,1-0.8,1.1l-0.6,0.2v0.5h9.4v-6h-0.5c-0.3,2.7-0.7,5.4-3,5.4H95V751.4L95,751.4z
		 M78.4,760.5h5.4v-0.5l-0.6-0.1c-0.5-0.1-0.8-0.4-0.8-1.2v-7.2h4v7.2c0,0.7-0.3,1.1-0.8,1.2l-0.6,0.1v0.5h5.4v-0.5l-0.6-0.2
		c-0.5-0.1-0.8-0.4-0.8-1.2v-14.6c0-0.7,0.2-1,0.8-1.1l0.6-0.2v-0.5H85v0.5l0.6,0.2c0.4,0.1,0.8,0.3,0.8,1.1v6.8h-4v-6.8
		c0-0.7,0.3-0.9,0.8-1.1l0.6-0.2v-0.5h-5.4v0.5L79,743c0.5,0.2,0.8,0.4,0.8,1.1v14.7c0,0.7-0.2,1-0.8,1.1l-0.6,0.2V760.5L78.4,760.5
		z M74.4,743h0.6c1.6,0,2.2,2.6,2.4,5.4h0.5v-6h-9.6v6h0.5c0.2-2.8,0.7-5.4,2.4-5.4h0.6v15.8c0,0.7-0.2,1-0.8,1.1l-0.7,0.2v0.5h5.7
		v-0.5l-0.8-0.2c-0.5-0.1-0.8-0.3-0.8-1.1L74.4,743L74.4,743z"/>
</g>
</svg>
